{
.appVersion = "3134";
.formatVersion = 3;
DisplayStrings = (
"Aa Bb Cc Dd Ee Ff Gg Hh Ii Jj Kk Ll Mm Nn Oo Pp Qq Rr Ss Tt Uu Vv Ww Xx Yy Zz
!@#&
1234567890

For one thing, time is the very thing that we are least willing to allow.

The shining
Positive & Negative
Prostitusi"
);
customParameters = (
{
name = vendorID;
value = AMMP;
},
{
name = panose;
value = (
0,
0,
5,
0,
0,
0,
0,
0,
0,
0
);
},
{
name = unicodeRanges;
value = (
0,
1,
2,
29
);
},
{
name = codePageRanges;
value = (
"1252",
"1250",
"1254",
"1257",
"1258",
"bit 29"
);
},
{
name = blueScale;
value = 0.037;
},
{
name = glyphOrder;
value = (
.notdef,
space,
A,
Aacute,
Abreve,
uni1EAE,
uni1EB6,
uni1EB0,
uni1EB2,
uni1EB4,
uni01CD,
Acircumflex,
uni1EA4,
uni1EAC,
uni1EA6,
uni1EA8,
uni1EAA,
Adieresis,
uni1EA0,
Agrave,
uni1EA2,
Amacron,
Aogonek,
Aring,
Atilde,
AE,
B,
C,
Cacute,
Ccaron,
Ccedilla,
Cdotaccent,
D,
Eth,
Dcaron,
Dcroat,
E,
Eacute,
Ecaron,
Ecircumflex,
uni1EBE,
uni1EC6,
uni1EC0,
uni1EC2,
uni1EC4,
Edieresis,
Edotaccent,
uni1EB8,
Egrave,
uni1EBA,
Emacron,
Eogonek,
uni1EBC,
F,
G,
Gbreve,
uni0122,
Gdotaccent,
H,
Hbar,
I,
Iacute,
uni01CF,
Icircumflex,
Idieresis,
Idotaccent,
uni1ECA,
Igrave,
uni1EC8,
Imacron,
Iogonek,
Itilde,
J,
K,
uni0136,
L,
Lacute,
Lcaron,
uni013B,
Lslash,
M,
N,
Nacute,
Ncaron,
uni0145,
Eng,
Ntilde,
O,
Oacute,
uni01D1,
Ocircumflex,
uni1ED0,
uni1ED8,
uni1ED2,
uni1ED4,
uni1ED6,
Odieresis,
uni1ECC,
Ograve,
uni1ECE,
Ohorn,
uni1EDA,
uni1EE2,
uni1EDC,
uni1EDE,
uni1EE0,
Ohungarumlaut,
Omacron,
Oslash,
Otilde,
OE,
P,
Thorn,
Q,
R,
Racute,
Rcaron,
uni0156,
S,
Sacute,
Scaron,
Scedilla,
uni0218,
uni1E9E,
T,
Tbar,
Tcaron,
uni0162,
uni021A,
U,
Uacute,
uni01D3,
Ucircumflex,
Udieresis,
uni01D7,
uni01D9,
uni01DB,
uni01D5,
uni1EE4,
Ugrave,
uni1EE6,
Uhorn,
uni1EE8,
uni1EF0,
uni1EEA,
uni1EEC,
uni1EEE,
Uhungarumlaut,
Umacron,
Uogonek,
Uring,
Utilde,
V,
W,
Wacute,
Wcircumflex,
Wdieresis,
Wgrave,
X,
Y,
Yacute,
Ycircumflex,
Ydieresis,
uni1EF4,
Ygrave,
uni1EF6,
uni1EF8,
Z,
Zacute,
Zcaron,
Zdotaccent,

glyphs = (
{
glyphname = .notdef;
lastChange = "2022-12-26 09:35:14 +0000";
layers = (
{
hints = (
{
horizontal = 1;
place = (-123, -113);
place = (-123, -113);
type = Stem;
},
{
horizontal = 1;
place = (343, -113);
place = (343, -113);
type = Stem;
},
{
place = (13, -113);
place = (13, -113);
type = Stem;
},
{
place = (417, -113);
place = (417, -113);
type = Stem;
}
);
layerId = m01;
shapes = (
{
closed = 1;
nodes = (
(13,0,l),
(427,0,l),
(511,476,l),
(97,476,l)
);
},
{
closed = 1;
nodes = (
(25,10,l),
(105,466,l),
(499,466,l),
(419,10,l)
);
}
);
width = 686;
}
);
note = ".notdef";
},
{
glyphname = A;
kernLeft = A;
kernRight = A;
lastChange = "2022-12-26 09:35:14 +0000";
layers = (
{
hints = (
{
horizontal = 1;
place = (-123, 21);
target = up;
type = BottomGhost;
},
{
horizontal = 1;
place = (64, -62);
place = (64, -62);
type = Stem;
},
{
horizontal = 1;
place = (574, -20);
target = down;
type = TopGhost;
},
{
place = (-87, 457);
place = (-87, 457);
type = Stem;
}
);
layerId = m01;
shapes = (
{
closed = 1;
nodes = (
(414,0,l),
(493,0,l),
(448,230,o),
(408,452,o),
(345,675,cs),
(340,688,o),
(332,697,o),
(312,697,cs),
(308,697,o),
(300,697,o),
(296,697,c),
(-87,0,l),
(-9,0,l),
(91,187,l),
(381,187,l)
);
},
{
closed = 1;
nodes = (
(123,248,l),
(308,596,l),
(370,248,l)
);
}
);
width = 652;
}
);
note = A;
unicode = 65;
},
{
glyphname = Aacute;
kernLeft = A;
kernRight = A;
lastChange = "2022-12-26 09:35:14 +0000";
layers = (
{
hints = (
{
horizontal = 1;
place = (-123, 21);
target = up;
type = BottomGhost;
},
{
horizontal = 1;
place = (64, -62);
place = (64, -62);
type = Stem;
},
{
horizontal = 1;
place = (574, -20);
target = down;
type = TopGhost;
},
{
horizontal = 1;
place = (637, 18);
place = (637, 18);
type = Stem;
},
{
place = (-87, 457);
place = (-87, 457);
type = Stem;
}
);
layerId = m01;
shapes = (
{
closed = 1;
nodes = (
(518,901,l),
(444,901,l),
(311,760,l),
(364,760,l)
);
},
{
closed = 1;
nodes = (
(414,0,l),
(493,0,l),
(355,697,l),
(296,697,l),
(-87,0,l),
(-9,0,l),
(91,187,l),
(381,187,l)
);
},
{
closed = 1;
nodes = (
(123,248,l),
(308,596,l),
(370,248,l)
);
}
);
width = 652;
}
);
note = Aacute;
unicode = 193;
},
{
glyphname = Abreve;
kernLeft = A;
kernRight = A;
lastChange = "2022-12-26 09:35:14 +0000";
layers = (
{
hints = (
{
horizontal = 1;
place = (-123, 21);
target = up;
type = BottomGhost;
},
{
horizontal = 1;
place = (64, -62);
place = (64, -62);
type = Stem;
},
{
horizontal = 1;
place = (574, -20);
target = down;
type = TopGhost;
},
{
horizontal = 1;
place = (647, -81);
place = (647, -81);
type = Stem;
},
{
place = (52, -73);
place = (52, -73);
type = Stem;
},
{
place = (304, -73);
place = (304, -73);
type = Stem;
}
);
layerId = m01;
shapes = (
{
closed = 1;
nodes = (
(436,770,o),
(498,814,o),
(513,901,c),
(463,901,l),
(453,844,o),
(409,812,o),
(346,812,cs),
(285,812,o),
(251,842,o),
(261,901,c),
(211,901,l),
(196,816,o),
(238,770,o),
(339,770,cs)
);
},
{
closed = 1;
nodes = (
(414,0,l),
(493,0,l),
(355,697,l),
(296,697,l),
(-87,0,l),
(-9,0,l),
(91,187,l),
(381,187,l)
);
},
{
closed = 1;
nodes = (
(123,248,l),
(308,596,l),
(370,248,l)
);
}
);
width = 652;
}
);
note = Abreve;
unicode = 258;
},
{
glyphname = uni1EAE;
kernLeft = A;
kernRight = A;
lastChange = "2022-12-26 09:35:14 +0000";
layers = (
{
hints = (
{
horizontal = 1;
place = (-123, 21);
target = up;
type = BottomGhost;
},
{
horizontal = 1;
place = (64, -62);
place = (64, -62);
type = Stem;
},
{
horizontal = 1;
place = (574, -20);
target = down;
type = TopGhost;
},
{
horizontal = 1;
place = (647, -81);
place = (647, -81);
type = Stem;
},
{
horizontal = 1;
place = (841, 18);
place = (841, 18);
type = Stem;
},
{
place = (52, -73);
place = (52, -73);
type = Stem;
},
{
place = (304, -73);
place = (304, -73);
type = Stem;
}
);
layerId = m01;
shapes = (
{
closed = 1;
nodes = (
(554,1105,l),
(480,1105,l),
(347,964,l),
(400,964,l)
);
},
{
closed = 1;
nodes = (
(436,770,o),
(498,814,o),
(513,901,c),
(463,901,l),
(453,844,o),
(409,812,o),
(346,812,cs),
(285,812,o),
(251,842,o),
(261,901,c),
(211,901,l),
(196,816,o),
(238,770,o),
(339,770,cs)
);
},
{
closed = 1;
nodes = (
(414,0,l),
(493,0,l),
(355,697,l),
(296,697,l),
(-87,0,l),
(-9,0,l),
(91,187,l),
(381,187,l)
);
},
{
closed = 1;
nodes = (
(123,248,l),
(308,596,l),
(370,248,l)
);
}
);
width = 652;
}
);
note = uni1EAE;
unicode = 7854;
},
{
glyphname = uni1EB6;
kernLeft = A;
kernRight = A;
lastChange = "2022-12-26 09:35:14 +0000";
layers = (
{
hints = (
{
horizontal = 1;
place = (-296, -22);
place = (-296, -22);
type = Stem;
},
{
horizontal = 1;
place = (-123, 21);
target = up;
type = BottomGhost;
},
{
horizontal = 1;
place = (64, -62);
place = (64, -62);
type = Stem;
},
{
horizontal = 1;
place = (574, -20);
target = down;
type = TopGhost;
},
{
horizontal = 1;
place = (647, -81);
place = (647, -81);
type = Stem;
},
{
place = (52, -73);
place = (52, -73);
type = Stem;
},
{
place = (163, -43);
place = (163, -43);
type = Stem;
},
{
place = (304, -73);
place = (304, -73);
type = Stem;
}
);
layerId = m01;
shapes = (
{
closed = 1;
nodes = (
(436,770,o),
(498,814,o),
(513,901,c),
(463,901,l),
(453,844,o),
(409,812,o),
(346,812,cs),
(285,812,o),
(251,842,o),
(261,901,c),
(211,901,l),
(196,816,o),
(238,770,o),
(339,770,cs)
);
},
{
closed = 1;
nodes = (
(493,0,l),
(355,697,l),
(296,697,l),
(-87,0,l),
(-9,0,l),
(91,187,l),
(381,187,l),
(414,0,l)
);
},
{
closed = 1;
nodes = (
(123,248,l),
(308,596,l),
(370,248,l)
);
},
{
closed = 1;
nodes = (
(133,-173,l),
(213,-173,l),
(230,-72,l),
(150,-72,l)
);
}
);
width = 652;
}
);
note = uni1EB6;
unicode = 7862;
},
{
glyphname = uni1EB0;
kernLeft = A;
kernRight = A;
lastChange = "2022-12-26 09:35:14 +0000";
layers = (
{
hints = (
{
horizontal = 1;
place = (-123, 21);
target = up;
type = BottomGhost;
},
{
horizontal = 1;
place = (64, -62);
place = (64, -62);
type = Stem;
},
{
horizontal = 1;
place = (574, -20);
target = down;
type = TopGhost;
},
{
horizontal = 1;
place = (647, -81);
place = (647, -81);
type = Stem;
},
{
horizontal = 1;
place = (841, 18);
place = (841, 18);
type = Stem;
},
{
place = (52, -73);
place = (52, -73);
type = Stem;
},
{
place = (304, -73);
place = (304, -73);
type = Stem;
}
);
layerId = m01;
shapes = (
{
closed = 1;
nodes = (
(400,964,l),
(321,1105,l),
(247,1105,l),
(346,964,l)
);
},
{
closed = 1;
nodes = (
(436,770,o),
(498,814,o),
(513,901,c),
(463,901,l),
(453,844,o),
(409,812,o),
(346,812,cs),
(285,812,o),
(251,842,o),
(261,901,c),
(211,901,l),
(196,816,o),
(238,770,o),
(339,770,cs)
);
},
{
closed = 1;
nodes = (
(414,0,l),
(493,0,l),
(355,697,l),
(296,697,l),
(-87,0,l),
(-9,0,l),
(91,187,l),
(381,187,l)
);
},
{
closed = 1;
nodes = (
(123,248,l),
(308,596,l),
(370,248,l)
);
}
);
width = 652;
}
);
note = uni1EB0;
unicode = 7856;
},
{
glyphname = uni1EB2;
kernLeft = A;
kernRight = A;
lastChange = "2022-12-26 09:35:14 +0000";
layers = (
{
hints = (
{
horizontal = 1;
place = (-123, 21);
target = up;
type = BottomGhost;
},
{
horizontal = 1;
place = (64, -62);
place = (64, -62);
type = Stem;
},
{
horizontal = 1;
place = (574, -20);
target = down;
type = TopGhost;
},
{
horizontal = 1;
place = (647, -81);
place = (647, -81);
type = Stem;
},
{
horizontal = 1;
place = (963, -83);
place = (963, -83);
type = Stem;
},
{
place = (52, -73);
place = (52, -73);
type = Stem;
},
{
place = (265, -76);
place = (265, -76);
type = Stem;
},
{
place = (304, -73);
place = (304, -73);
type = Stem;
}
);
layerId = m01;
shapes = (
{
closed = 1;
nodes = (
(440,993,o),
(397,985,o),
(358,979,c),
(363,940,l),
(414,950,o),
(482,961,o),
(493,1028,cs),
(505,1092,o),
(452,1126,o),
(372,1126,cs),
(357,1126,l),
(350,1086,l),
(365,1086,ls),
(412,1086,o),
(454,1071,o),
(447,1030,cs)
);
},
{
closed = 1;
nodes = (
(436,770,o),
(498,814,o),
(513,901,c),
(463,901,l),
(453,844,o),
(409,812,o),
(346,812,cs),
(285,812,o),
(251,842,o),
(261,901,c),
(211,901,l),
(196,816,o),
(238,770,o),
(339,770,cs)
);
},
{
closed = 1;
nodes = (
(414,0,l),
(493,0,l),
(355,697,l),
(296,697,l),
(-87,0,l),
(-9,0,l),
(91,187,l),
(381,187,l)
);
},
{
closed = 1;
nodes = (
(123,248,l),
(308,596,l),
(370,248,l)
);
}
);
width = 652;
}
);
note = uni1EB2;
unicode = 7858;
},
{
glyphname = uni1EB4;
kernLeft = A;
kernRight = A;
lastChange = "2022-12-26 09:35:14 +0000";
layers = (
{
hints = (
{
horizontal = 1;
place = (-123, 21);
target = up;
type = BottomGhost;
},
{
horizontal = 1;
place = (64, -62);
place = (64, -62);
type = Stem;
},
{
horizontal = 1;
place = (574, -20);
target = down;
type = TopGhost;
},
{
horizontal = 1;
place = (647, -81);
place = (647, -81);
type = Stem;
},
{
horizontal = 1;
place = (855, -78);
place = (855, -78);
type = Stem;
},
{
horizontal = 1;
place = (942, -79);
place = (942, -79);
type = Stem;
},
{
place = (44, -82);
place = (44, -82);
type = Stem;
},
{
place = (318, -80);
place = (318, -80);
type = Stem;
},
{
place = (52, -73);
place = (52, -73);
type = Stem;
},
{
place = (304, -73);
place = (304, -73);
type = Stem;
}
);
layerId = m01;
shapes = (
{
closed = 1;
nodes = (
(376,1065,o),
(362,978,o),
(445,978,cs),
(498,978,o),
(542,1026,o),
(556,1105,c),
(513,1105,l),
(504,1054,o),
(478,1023,o),
(452,1023,cs),
(398,1023,o),
(408,1109,o),
(333,1109,cs),
(276,1109,o),
(232,1064,o),
(218,987,c),
(259,987,l),
(268,1036,o),
(292,1065,o),
(323,1065,cs)
);
},
{
closed = 1;
nodes = (
(285,812,o),
(251,842,o),
(261,901,c),
(211,901,l),
(196,816,o),
(238,770,o),
(339,770,cs),
(436,770,o),
(498,814,o),
(513,901,c),
(463,901,l),
(453,844,o),
(409,812,o),
(346,812,cs)
);
},
{
closed = 1;
nodes = (
(414,0,l),
(493,0,l),
(355,697,l),
(296,697,l),
(-87,0,l),
(-9,0,l),
(91,187,l),
(381,187,l)
);
},
{
closed = 1;
nodes = (
(123,248,l),
(308,596,l),
(370,248,l)
);
}
);
width = 652;
}
);
note = uni1EB4;
unicode = 7860;
},
{
glyphname = uni01CD;
kernLeft = A;
kernRight = A;
lastChange = "2022-12-26 09:35:14 +0000";
layers = (
{
hints = (
{
horizontal = 1;
place = (-123, 21);
target = up;
type = BottomGhost;
},
{
horizontal = 1;
place = (64, -62);
place = (64, -62);
type = Stem;
},
{
horizontal = 1;
place = (574, -20);
target = down;
type = TopGhost;
},
{
place = (-87, 457);
place = (-87, 457);
type = Stem;
}
);
layerId = m01;
shapes = (
{
closed = 1;
nodes = (
(511,901,l),
(454,901,l),
(345,806,l),
(270,901,l),
(213,901,l),
(335,748,l)
);
},
{
closed = 1;
nodes = (
(414,0,l),
(493,0,l),
(355,697,l),
(296,697,l),
(-87,0,l),
(-9,0,l),
(91,187,l),
(381,187,l)
);
},
{
closed = 1;
nodes = (
(123,248,l),
(308,596,l),
(370,248,l)
);
}
);
width = 652;
}
);
note = uni01CD;
unicode = 461;
},
{
glyphname = Acircumflex;
kernLeft = A;
kernRight = A;
lastChange = "2022-12-26 09:35:14 +0000";
layers = (
{
hints = (
{
horizontal = 1;
place = (-123, 21);
target = up;
type = BottomGhost;
},
{
horizontal = 1;
place = (64, -62);
place = (64, -62);
type = Stem;
},
{
horizontal = 1;
place = (574, -20);
target = down;
type = TopGhost;
},
{
place = (-87, 457);
place = (-87, 457);
type = Stem;
}
);
layerId = m01;
shapes = (
{
closed = 1;
nodes = (
(353,850,l),
(428,752,l),
(485,752,l),
(364,911,l),
(187,752,l),
(245,752,l)
);
},
{
closed = 1;
nodes = (
(414,0,l),
(493,0,l),
(355,697,l),
(296,697,l),
(-87,0,l),
(-9,0,l),
(91,187,l),
(381,187,l)
);
},
{
closed = 1;
nodes = (
(123,248,l),
(308,596,l),
(370,248,l)
);
}
);
width = 652;
}
);
note = Acircumflex;
unicode = 194;
},
{
glyphname = uni1EA4;
kernLeft = A;
kernRight = A;
lastChange = "2022-12-26 09:35:14 +0000";
layers = (
{
hints = (
{
horizontal = 1;
place = (-123, 21);
target = up;
type = BottomGhost;
},
{
horizontal = 1;
place = (64, -62);
place = (64, -62);
type = Stem;
},
{
horizontal = 1;
place = (574, -20);
target = down;
type = TopGhost;
},
{
horizontal = 1;
place = (826, 18);
place = (826, 18);
type = Stem;
},
{
place = (-87, 457);
place = (-87, 457);
type = Stem;
}
);
layerId = m01;
shapes = (
{
closed = 1;
nodes = (
(551,1090,l),
(477,1090,l),
(344,949,l),
(397,949,l)
);
},
{
closed = 1;
nodes = (
(353,850,l),
(428,752,l),
(485,752,l),
(364,911,l),
(187,752,l),
(245,752,l)
);
},
{
closed = 1;
nodes = (
(414,0,l),
(493,0,l),
(355,697,l),
(296,697,l),
(-87,0,l),
(-9,0,l),
(91,187,l),
(381,187,l)
);
},
{
closed = 1;
nodes = (
(123,248,l),
(308,596,l),
(370,248,l)
);
}
);
width = 652;
}
);
note = uni1EA4;
unicode = 7844;
},
{
glyphname = uni1EAC;
kernLeft = A;
kernRight = A;
lastChange = "2022-12-26 09:35:14 +0000";
layers = (
{
hints = (
{
horizontal = 1;
place = (-296, -22);
place = (-296, -22);
type = Stem;
},
{
horizontal = 1;
place = (-123, 21);
target = up;
type = BottomGhost;
},
{
horizontal = 1;
place = (64, -62);
place = (64, -62);
type = Stem;
},
{
horizontal = 1;
place = (574, -20);
target = down;
type = TopGhost;
},
{
place = (163, -43);
place = (163, -43);
type = Stem;
}
);
layerId = m01;
shapes = (
{
closed = 1;
nodes = (
(353,850,l),
(428,752,l),
(485,752,l),
(364,911,l),
(187,752,l),
(245,752,l)
);
},
{
closed = 1;
nodes = (
(493,0,l),
(355,697,l),
(296,697,l),
(-87,0,l),
(-9,0,l),
(91,187,l),
(381,187,l),
(414,0,l)
);
},
{
closed = 1;
nodes = (
(123,248,l),
(308,596,l),
(370,248,l)
);
},
{
closed = 1;
nodes = (
(133,-173,l),
(213,-173,l),
(230,-72,l),
(150,-72,l)
);
}
);
width = 652;
}
);
note = uni1EAC;
unicode = 7852;
},
{
glyphname = uni1EA6;
kernLeft = A;
kernRight = A;
lastChange = "2022-12-26 09:35:14 +0000";
layers = (
{
hints = (
{
horizontal = 1;
place = (-123, 21);
target = up;
type = BottomGhost;
},
{
horizontal = 1;
place = (64, -62);
place = (64, -62);
type = Stem;
},
{
horizontal = 1;
place = (574, -20);
target = down;
type = TopGhost;
},
{
horizontal = 1;
place = (826, 18);
place = (826, 18);
type = Stem;
},
{
place = (-87, 457);
place = (-87, 457);
type = Stem;
}
);
layerId = m01;
shapes = (
{
closed = 1;
nodes = (
(397,949,l),
(318,1090,l),
(244,1090,l),
(343,949,l)
);
},
{
closed = 1;
nodes = (
(187,752,l),
(245,752,l),
(353,850,l),
(428,752,l),
(485,752,l),
(364,911,l)
);
},
{
closed = 1;
nodes = (
(414,0,l),
(493,0,l),
(355,697,l),
(296,697,l),
(-87,0,l),
(-9,0,l),
(91,187,l),
(381,187,l)
);
},
{
closed = 1;
nodes = (
(123,248,l),
(308,596,l),
(370,248,l)
);
}
);
width = 652;
}
);
note = uni1EA6;
unicode = 7846;
},
{
glyphname = uni1EA8;
kernLeft = A;
kernRight = A;
lastChange = "2022-12-26 09:35:14 +0000";
layers = (
{
hints = (
{
horizontal = 1;
place = (-123, 21);
target = up;
type = BottomGhost;
},
{
horizontal = 1;
place = (64, -62);
place = (64, -62);
type = Stem;
},
{
horizontal = 1;
place = (574, -20);
target = down;
type = TopGhost;
},
{
horizontal = 1;
place = (948, -83);
place = (948, -83);
type = Stem;
},
{
place = (265, -76);
place = (265, -76);
type = Stem;
}
);
layerId = m01;
shapes = (
{
closed = 1;
nodes = (
(438,978,o),
(394,970,o),
(355,964,c),
(360,925,l),
(411,935,o),
(479,946,o),
(491,1013,cs),
(502,1077,o),
(449,1111,o),
(369,1111,cs),
(354,1111,l),
(347,1071,l),
(362,1071,ls),
(409,1071,o),
(451,1056,o),
(444,1015,cs)
);
},
{
closed = 1;
nodes = (
(353,850,l),
(428,752,l),
(485,752,l),
(364,911,l),
(187,752,l),
(245,752,l)
);
},
{
closed = 1;
nodes = (
(414,0,l),
(493,0,l),
(355,697,l),
(296,697,l),
(-87,0,l),
(-9,0,l),
(91,187,l),
(381,187,l)
);
},
{
closed = 1;
nodes = (
(123,248,l),
(308,596,l),
(370,248,l)
);
}
);
width = 652;
}
);
note = uni1EA8;
unicode = 7848;
},
{
glyphname = uni1EAA;
kernLeft = A;
kernRight = A;
lastChange = "2022-12-26 09:35:14 +0000";
layers = (
{
hints = (
{
horizontal = 1;
place = (-123, 21);
target = up;
type = BottomGhost;
},
{
horizontal = 1;
place = (64, -62);
place = (64, -62);
type = Stem;
},
{
horizontal = 1;
place = (574, -20);
target = down;
type = TopGhost;
},
{
horizontal = 1;
place = (840, -78);
place = (840, -78);
type = Stem;
},
{
horizontal = 1;
place = (927, -79);
place = (927, -79);
type = Stem;
},
{
place = (44, -82);
place = (44, -82);
type = Stem;
},
{
place = (318, -80);
place = (318, -80);
type = Stem;
}
);
layerId = m01;
shapes = (
{
closed = 1;
nodes = (
(373,1050,o),
(359,963,o),
(442,963,cs),
(495,963,o),
(539,1011,o),
(553,1090,c),
(510,1090,l),
(501,1039,o),
(476,1008,o),
(450,1008,cs),
(396,1008,o),
(405,1094,o),
(330,1094,cs),
(273,1094,o),
(229,1049,o),
(215,972,c),
(256,972,l),
(265,1021,o),
(289,1050,o),
(320,1050,cs)
);
},
{
closed = 1;
nodes = (
(187,752,l),
(245,752,l),
(353,850,l),
(428,752,l),
(485,752,l),
(364,911,l)
);
},
{
closed = 1;
nodes = (
(414,0,l),
(493,0,l),
(355,697,l),
(296,697,l),
(-87,0,l),
(-9,0,l),
(91,187,l),
(381,187,l)
);
},
{
closed = 1;
nodes = (
(123,248,l),
(308,596,l),
(370,248,l)
);
}
);
width = 652;
}
);
note = uni1EAA;
unicode = 7850;
},
{
glyphname = Adieresis;
kernLeft = A;
kernRight = A;
lastChange = "2022-12-26 09:35:14 +0000";
layers = (
{
hints = (
{
horizontal = 1;
place = (-123, 21);
target = up;
type = BottomGhost;
},
{
horizontal = 1;
place = (64, -62);
place = (64, -62);
type = Stem;
},
{
horizontal = 1;
place = (574, -20);
target = down;
type = TopGhost;
},
{
horizontal = 1;
place = (676, -21);
place = (676, -21);
type = Stem;
},
{
place = (73, -43);
place = (73, -43);
type = Stem;
},
{
place = (253, -43);
place = (253, -43);
type = Stem;
}
);
layerId = m01;
shapes = (
{
closed = 1;
nodes = (
(312,901,l),
(232,901,l),
(214,799,l),
(294,799,l)
);
},
{
closed = 1;
nodes = (
(492,901,l),
(412,901,l),
(394,799,l),
(474,799,l)
);
},
{
closed = 1;
nodes = (
(414,0,l),
(493,0,l),
(355,697,l),
(296,697,l),
(-87,0,l),
(-9,0,l),
(91,187,l),
(381,187,l)
);
},
{
closed = 1;
nodes = (
(123,248,l),
(308,596,l),
(370,248,l)
);
}
);
width = 652;
}
);
note = Adieresis;
unicode = 196;
},
{
glyphname = uni1EA0;
kernLeft = A;
kernRight = A;
lastChange = "2022-12-26 09:35:14 +0000";
layers = (
{
hints = (
{
horizontal = 1;
place = (-296, -22);
place = (-296, -22);
type = Stem;
},
{
horizontal = 1;
place = (-123, 21);
target = up;
type = BottomGhost;
},
{
horizontal = 1;
place = (64, -62);
place = (64, -62);
type = Stem;
},
{
horizontal = 1;
place = (574, -20);
target = down;
type = TopGhost;
},
{
place = (163, -43);
place = (163, -43);
type = Stem;
}
);
layerId = m01;
shapes = (
{
closed = 1;
nodes = (
(493,0,l),
(355,697,l),
(296,697,l),
(-87,0,l),
(-9,0,l),
(91,187,l),
(381,187,l),
(414,0,l)
);
},
{
closed = 1;
nodes = (
(123,248,l),
(308,596,l),
(370,248,l)
);
},
{
closed = 1;
nodes = (
(133,-173,l),
(213,-173,l),
(230,-72,l),
(150,-72,l)
);
}
);
width = 652;
}
);
note = uni1EA0;
unicode = 7840;
},
{
glyphname = Agrave;
kernLeft = A;
kernRight = A;
lastChange = "2022-12-26 09:35:14 +0000";
layers = (
{
hints = (
{
horizontal = 1;
place = (-123, 21);
target = up;
type = BottomGhost;
},
{
horizontal = 1;
place = (64, -62);
place = (64, -62);
type = Stem;
},
{
horizontal = 1;
place = (574, -20);
target = down;
type = TopGhost;
},
{
horizontal = 1;
place = (637, 18);
place = (637, 18);
type = Stem;
},
{
place = (-87, 457);
place = (-87, 457);
type = Stem;
}
);
layerId = m01;
shapes = (
{
closed = 1;
nodes = (
(364,760,l),
(285,901,l),
(211,901,l),
(310,760,l)
);
},
{
closed = 1;
nodes = (
(414,0,l),
(493,0,l),
(355,697,l),
(296,697,l),
(-87,0,l),
(-9,0,l),
(91,187,l),
(381,187,l)
);
},
{
closed = 1;
nodes = (
(123,248,l),
(308,596,l),
(370,248,l)
);
}
);
width = 652;
}
);
note = Agrave;
unicode = 192;
},
{
glyphname = uni1EA2;
kernLeft = A;
kernRight = A;
lastChange = "2022-12-26 09:35:14 +0000";
layers = (
{
hints = (
{
horizontal = 1;
place = (-123, 21);
target = up;
type = BottomGhost;
},
{
horizontal = 1;
place = (64, -62);
place = (64, -62);
type = Stem;
},
{
horizontal = 1;
place = (574, -20);
target = down;
type = TopGhost;
},
{
horizontal = 1;
place = (759, -83);
place = (759, -83);
type = Stem;
},
{
place = (265, -76);
place = (265, -76);
type = Stem;
}
);
layerId = m01;
shapes = (
{
closed = 1;
nodes = (
(404,789,o),
(361,781,o),
(322,775,c),
(327,736,l),
(378,746,o),
(446,757,o),
(457,824,cs),
(469,888,o),
(416,922,o),
(336,922,cs),
(321,922,l),
(314,882,l),
(329,882,ls),
(376,882,o),
(418,867,o),
(411,826,cs)
);
},
{
closed = 1;
nodes = (
(414,0,l),
(493,0,l),
(355,697,l),
(296,697,l),
(-87,0,l),
(-9,0,l),
(91,187,l),
(381,187,l)
);
},
{
closed = 1;
nodes = (
(123,248,l),
(308,596,l),
(370,248,l)
);
}
);
width = 652;
}
);
note = uni1EA2;
unicode = 7842;
},
{
glyphname = Amacron;
kernLeft = A;
kernRight = A;
lastChange = "2022-12-26 09:35:14 +0000";
layers = (
{
hints = (
{
horizontal = 1;
place = (-123, 21);
target = up;
type = BottomGhost;
},
{
horizontal = 1;
place = (64, -62);
place = (64, -62);
type = Stem;
},
{
horizontal = 1;
place = (574, -20);
target = down;
type = TopGhost;
},
{
horizontal = 1;
place = (680, -81);
place = (680, -81);
type = Stem;
},
{
place = (-87, 457);
place = (-87, 457);
type = Stem;
}
);
layerId = m01;
shapes = (
{
closed = 1;
nodes = (
(486,845,l),
(216,845,l),
(209,803,l),
(479,803,l)
);
},
{
closed = 1;
nodes = (
(414,0,l),
(493,0,l),
(355,697,l),
(296,697,l),
(-87,0,l),
(-9,0,l),
(91,187,l),
(381,187,l)
);
},
{
closed = 1;
nodes = (
(123,248,l),
(308,596,l),
(370,248,l)
);
}
);
width = 652;
}
);
note = Amacron;
unicode = 256;
},
{
glyphname = Aogonek;
kernLeft = A;
kernRight = A;
lastChange = "2022-12-26 09:35:14 +0000";
layers = (
{
hints = (
{
horizontal = 1;
place = (-337, -78);
place = (-337, -78);
type = Stem;
},
{
horizontal = 1;
place = (-123, 21);
target = up;
type = BottomGhost;
},
{
horizontal = 1;
place = (64, -62);
place = (64, -62);
type = Stem;
},
{
horizontal = 1;
place = (574, -20);
target = down;
type = TopGhost;
},
{
place = (349, -80);
place = (349, -80);
type = Stem;
}
);
layerId = m01;
shapes = (
{
closed = 1;
nodes = (
(474,-142,l),
(453,-159,o),
(431,-169,o),
(408,-169,cs),
(384,-169,o),
(364,-157,o),
(370,-124,cs),
(381,-63,o),
(454,-21,o),
(493,0,c),
(355,697,l),
(296,697,l),
(-87,0,l),
(-9,0,l),
(91,187,l),
(381,187,l),
(414,0,l),
(435,0,l),
(390,-26,o),
(336,-72,o),
(326,-130,cs),
(317,-182,o),
(351,-214,o),
(402,-214,cs),
(439,-214,o),
(475,-196,o),
(503,-169,c)
);
},
{
closed = 1;
nodes = (
(123,248,l),
(308,596,l),
(370,248,l)
);
}
);
width = 652;
}
);
note = Aogonek;
unicode = 260;
},
{
glyphname = Aring;
kernLeft = A;
kernRight = A;
lastChange = "2022-12-26 09:35:14 +0000";
layers = (
{
hints = (
{
horizontal = 1;
place = (-123, 21);
target = up;
type = BottomGhost;
},
{
horizontal = 1;
place = (64, -62);
place = (64, -62);
type = Stem;
},
{
horizontal = 1;
place = (714, -84);
place = (714, -84);
type = Stem;
},
{
place = (106, -84);
place = (106, -84);
type = Stem;
},
{
place = (261, -84);
place = (261, -84);
type = Stem;
}
);
layerId = m01;
shapes = (
{
closed = 1;
nodes = (
(414,0,l),
(493,0,l),
(357,688,l),
(397,701,o),
(430,737,o),
(437,779,cs),
(447,833,o),
(410,876,o),
(358,876,cs),
(305,876,o),
(253,833,o),
(243,779,cs),
(236,738,o),
(256,702,o),
(291,688,c),
(-87,0,l),
(-9,0,l),
(91,187,l),
(381,187,l)
);
},
{
closed = 1;
nodes = (
(288,812,o),
(318,837,o),
(351,837,cs),
(385,837,o),
(404,812,o),
(398,779,cs),
(393,747,o),
(363,721,o),
(330,721,cs),
(297,721,o),
(277,747,o),
(282,779,cs)
);
},
{
closed = 1;
nodes = (
(123,248,l),
(308,596,l),
(370,248,l)
);
}
);
width = 652;
}
);
note = Aring;
unicode = 197;
},
{
glyphname = Atilde;
kernLeft = A;
kernRight = A;
lastChange = "2022-12-26 09:35:14 +0000";
layers = (
{
hints = (
{
horizontal = 1;
place = (-123, 21);
target = up;
type = BottomGhost;
},
{
horizontal = 1;
place = (64, -62);
place = (64, -62);
type = Stem;
},
{
horizontal = 1;
place = (574, -20);
target = down;
type = TopGhost;
},
{
horizontal = 1;
place = (651, -78);
place = (651, -78);
type = Stem;
},
{
horizontal = 1;
place = (738, -79);
place = (738, -79);
type = Stem;
},
{
place = (44, -82);
place = (44, -82);
type = Stem;
},
{
place = (318, -80);
place = (318, -80);
type = Stem;
}
);
layerId = m01;
shapes = (
{
closed = 1;
nodes = (
(340,861,o),
(326,774,o),
(409,774,cs),
(462,774,o),
(506,822,o),
(520,901,c),
(477,901,l),
(468,850,o),
(443,819,o),
(417,819,cs),
(363,819,o),
(372,905,o),
(297,905,cs),
(240,905,o),
(196,860,o),
(182,783,c),
(223,783,l),
(232,832,o),
(256,861,o),
(287,861,cs)
);
},
{
closed = 1;
nodes = (
(414,0,l),
(493,0,l),
(355,697,l),
(296,697,l),
(-87,0,l),
(-9,0,l),
(91,187,l),
(381,187,l)
);
},
{
closed = 1;
nodes = (
(123,248,l),
(308,596,l),
(370,248,l)
);
}
);
width = 652;
}
);
note = Atilde;
unicode = 195;
},
{
glyphname = AE;
kernLeft = A;
lastChange = "2022-12-26 09:35:14 +0000";
layers = (
{
hints = (
{
horizontal = 1;
place = (-123, -58);
place = (-123, -58);
type = Stem;
},
{
horizontal = 1;
place = (44, -67);
place = (44, -67);
type = Stem;
},
{
horizontal = 1;
place = (196, -62);
place = (196, -62);
type = Stem;
},
{
horizontal = 1;
place = (511, -60);
place = (511, -60);
type = Stem;
},
{
place = (276, -50);
place = (276, -50);
type = Stem;
},
{
horizontal = 1;
place = (513, -62);
place = (513, -62);
type = Stem;
}
);
layerId = m01;
shapes = (
{
closed = 1;
nodes = (
(-87,0,l),
(-9,0,l),
(80,167,l),
(306,167,l),
(276,0,l),
(724,0,l),
(736,65,l),
(361,65,l),
(405,319,l),
(731,319,l),
(742,380,l),
(416,380,l),
(461,634,l),
(836,634,l),
(847,697,l),
(296,697,l)
);
},
{
closed = 1;
nodes = (
(111,223,l),
(330,636,l),
(388,636,l),
(315,223,l)
);
}
);
width = 906;
}
);
note = AE;
unicode = 198;
},
{
glyphname = B;
kernLeft = B;
kernRight = B;
lastChange = "2022-12-26 09:35:14 +0000";
layers = (
{
hints = (
{
horizontal = 1;
place = (-123, -57);
place = (-123, -57);
type = Stem;
},
{
horizontal = 1;
place = (208, -61);
place = (208, -61);
type = Stem;
},
{
horizontal = 1;
place = (508, -57);
place = (508, -57);
type = Stem;
},
{
place = (-9, -52);
place = (-9, -52);
type = Stem;
},
{
place = (377, -51);
place = (377, -51);
type = Stem;
},
{
place = (342, -52);
place = (342, -52);
type = Stem;
}
);
layerId = m01;
shapes = (
{
closed = 1;
nodes = (
(-9,0,l),
(226,0,ls),
(369,0,o),
(461,70,o),
(483,195,cs),
(500,288,o),
(466,350,o),
(387,371,c),
(450,396,o),
(493,451,o),
(505,523,cs),
(525,633,o),
(459,697,o),
(328,697,cs),
(129,697,ls),
(121,697,o),
(113,690,o),
(111,682,cs)
);
},
{
closed = 1;
nodes = (
(131,393,l),
(173,631,l),
(316,631,ls),
(403,631,o),
(446,587,o),
(432,511,cs),
(419,438,o),
(365,393,o),
(288,393,cs)
);
},
{
closed = 1;
nodes = (
(74,66,l),
(120,331,l),
(298,331,ls),
(385,331,o),
(427,283,o),
(413,201,cs),
(397,114,o),
(333,66,o),
(233,66,cs)
);
}
);
width = 638;
}
);
note = B;
unicode = 66;
},
{
glyphname = C;
kernLeft = C;
kernRight = C;
lastChange = "2022-12-26 09:35:14 +0000";
layers = (
{
hints = (
{
horizontal = 1;
place = (-133, -55);
place = (-133, -55);
type = Stem;
},
{
horizontal = 1;
place = (516, -55);
place = (516, -55);
type = Stem;
},
{
place = (-55, -52);
place = (-55, -52);
type = Stem;
}
);
layerId = m01;
shapes = (
{
closed = 1;
nodes = (
(538,204,ls),
(530,207,o),
(522,204,o),
(516,195,cs),
(459,104,o),
(376,58,o),
(272,58,cs),
(116,58,o),
(45,164,o),
(78,350,cs),
(110,535,o),
(220,639,o),
(380,639,cs),
(485,639,o),
(548,595,o),
(571,505,cs),
(573,495,o),
(580,492,o),
(590,496,cs),
(645,516,l),
(618,643,o),
(532,707,o),
(392,707,cs),
(191,707,o),
(46,574,o),
(7,350,cs),
(-33,125,o),
(62,-10,o),
(260,-10,cs),
(399,-10,o),
(514,57,o),
(589,184,c)
);
}
);
width = 729;
}
);
note = C;
unicode = 67;
},
{
glyphname = Cacute;
kernLeft = C;
kernRight = C;
lastChange = "2022-12-26 09:35:14 +0000";
layers = (
{
hints = (
{
horizontal = 1;
place = (-133, -55);
place = (-133, -55);
type = Stem;
},
{
horizontal = 1;
place = (516, -55);
place = (516, -55);
type = Stem;
},
{
horizontal = 1;
place = (637, 18);
place = (637, 18);
type = Stem;
},
{
place = (-55, -52);
place = (-55, -52);
type = Stem;
}
);
layerId = m01;
shapes = (
{
closed = 1;
nodes = (
(378,760,l),
(431,760,l),
(585,901,l),
(511,901,l)
);
},
{
closed = 1;
nodes = (
(399,-10,o),
(514,57,o),
(589,184,c),
(525,209,l),
(468,109,o),
(381,58,o),
(272,58,cs),
(116,58,o),
(45,164,o),
(78,350,cs),
(110,535,o),
(220,639,o),
(380,639,cs),
(490,639,o),
(555,591,o),
(575,491,c),
(645,516,l),
(618,643,o),
(532,707,o),
(392,707,cs),
(191,707,o),
(46,574,o),
(7,350,cs),
(-33,125,o),
(62,-10,o),
(260,-10,cs)
);
}
);
width = 729;
}
);
note = Cacute;
unicode = 262;
},
{
glyphname = Ccaron;
kernLeft = C;
kernRight = C;
lastChange = "2022-12-26 09:35:14 +0000";
layers = (
{
hints = (
{
horizontal = 1;
place = (-133, -55);
place = (-133, -55);
type = Stem;
},
{
horizontal = 1;
place = (516, -55);
place = (516, -55);
type = Stem;
},
{
place = (-55, -52);
place = (-55, -52);
type = Stem;
}
);
layerId = m01;
shapes = (
{
closed = 1;
nodes = (
(402,748,l),
(578,901,l),
(521,901,l),
(412,806,l),
(337,901,l),
(280,901,l)
);
},
{
closed = 1;
nodes = (
(399,-10,o),
(514,57,o),
(589,184,c),
(525,209,l),
(468,109,o),
(381,58,o),
(272,58,cs),
(116,58,o),
(45,164,o),
(78,350,cs),
(110,535,o),
(220,639,o),
(380,639,cs),
(490,639,o),
(555,591,o),
(575,491,c),
(645,516,l),
(618,643,o),
(532,707,o),
(392,707,cs),
(191,707,o),
(46,574,o),
(7,350,cs),
(-33,125,o),
(62,-10,o),
(260,-10,cs)
);
}
);
width = 729;
}
);
note = Ccaron;
unicode = 268;
},
{
glyphname = Ccedilla;
kernLeft = C;
kernRight = C;
lastChange = "2022-12-26 09:35:14 +0000";
layers = (
{
hints = (
{
horizontal = 1;
place = (-378, -81);
place = (-378, -81);
type = Stem;
},
{
horizontal = 1;
place = (-217, -93);
place = (-217, -93);
type = Stem;
},
{
horizontal = 1;
place = (-133, -55);
place = (-133, -55);
type = Stem;
},
{
horizontal = 1;
place = (516, -55);
place = (516, -55);
type = Stem;
},
{
place = (-55, -52);
place = (-55, -52);
type = Stem;
},
{
place = (325, -81);
place = (325, -81);
type = Stem;
}
);
layerId = m01;
shapes = (
{
closed = 1;
nodes = (
(525,209,l),
(468,109,o),
(381,58,o),
(272,58,cs),
(116,58,o),
(45,164,o),
(78,350,cs),
(110,535,o),
(220,639,o),
(380,639,cs),
(490,639,o),
(555,591,o),
(575,491,c),
(645,516,l),
(618,643,o),
(532,707,o),
(392,707,cs),
(191,707,o),
(46,574,o),
(7,350,cs),
(-32,132,o),
(56,-1,o),
(241,-10,c),
(178,-94,l),
(208,-94,o),
(233,-96,o),
(252,-101,cs),
(282,-109,o),
(303,-125,o),
(297,-158,cs),
(291,-193,o),
(266,-213,o),
(229,-213,cs),
(205,-213,o),
(181,-201,o),
(169,-175,c),
(138,-208,l),
(155,-239,o),
(188,-255,o),
(219,-255,cs),
(281,-255,o),
(329,-214,o),
(339,-157,cs),
(346,-119,o),
(331,-95,o),
(301,-80,cs),
(284,-72,o),
(265,-68,o),
(240,-64,c),
(284,-9,l),
(412,-2,o),
(518,64,o),
(589,184,c)
);
}
);
width = 729;
}
);
note = Ccedilla;
unicode = 199;
},
{
glyphname = Cdotaccent;
kernLeft = C;
kernRight = C;
lastChange = "2022-12-26 09:35:14 +0000";
layers = (
{
hints = (
{
horizontal = 1;
place = (-133, -55);
place = (-133, -55);
type = Stem;
},
{
horizontal = 1;
place = (516, -55);
place = (516, -55);
type = Stem;
},
{
horizontal = 1;
place = (676, -21);
place = (676, -21);
type = Stem;
},
{
place = (-55, -52);
place = (-55, -52);
type = Stem;
},
{
place = (230, -43);
place = (230, -43);
type = Stem;
}
);
layerId = m01;
shapes = (
{
closed = 1;
nodes = (
(371,799,l),
(451,799,l),
(469,901,l),
(389,901,l)
);
},
{
closed = 1;
nodes = (
(399,-10,o),
(514,57,o),
(589,184,c),
(525,209,l),
(468,109,o),
(381,58,o),
(272,58,cs),
(116,58,o),
(45,164,o),
(78,350,cs),
(110,535,o),
(220,639,o),
(380,639,cs),
(490,639,o),
(555,591,o),
(575,491,c),
(645,516,l),
(618,643,o),
(532,707,o),
(392,707,cs),
(191,707,o),
(46,574,o),
(7,350,cs),
(-33,125,o),
(62,-10,o),
(260,-10,cs)
);
}
);
width = 729;
}
);
note = Cdotaccent;
unicode = 266;
},
{
glyphname = D;
kernLeft = B;
kernRight = D;
lastChange = "2022-12-26 09:35:14 +0000";
layers = (
{
hints = (
{
horizontal = 1;
place = (-123, -57);
place = (-123, -57);
type = Stem;
},
{
horizontal = 1;
place = (508, -57);
place = (508, -57);
type = Stem;
},
{
place = (-9, -52);
place = (-9, -52);
type = Stem;
},
{
place = (464, -51);
place = (464, -51);
type = Stem;
}
);
layerId = m01;
shapes = (
{
closed = 1;
nodes = (
(135,697,ls),
(121,697,o),
(113,690,o),
(110,676,cs),
(-9,0,l),
(179,0,ls),
(410,0,o),
(557,121,o),
(597,343,cs),
(636,568,o),
(530,697,o),
(303,697,cs)
);
},
{
closed = 1;
nodes = (
(74,66,l),
(173,631,l),
(290,631,ls),
(479,631,o),
(558,535,o),
(525,346,cs),
(492,158,o),
(380,66,o),
(185,66,cs)
);
}
);
width = 725;
}
);
note = D;
unicode = 68;
},
{
glyphname = Eth;
kernLeft = B;
kernRight = D;
lastChange = "2022-12-26 09:35:14 +0000";
layers = (
{
hints = (
{
horizontal = 1;
place = (-123, -57);
place = (-123, -57);
type = Stem;
},
{
horizontal = 1;
place = (202, -76);
place = (202, -76);
type = Stem;
},
{
horizontal = 1;
place = (508, -57);
place = (508, -57);
type = Stem;
},
{
place = (-9, -52);
place = (-9, -52);
type = Stem;
},
{
place = (464, -51);
place = (464, -51);
type = Stem;
}
);
layerId = m01;
shapes = (
{
closed = 1;
nodes = (
(114,697,l),
(57,372,l),
(-17,372,l),
(-26,325,l),
(48,325,l),
(-9,0,l),
(179,0,ls),
(410,0,o),
(557,121,o),
(597,343,cs),
(636,568,o),
(530,697,o),
(303,697,cs)
);
},
{
closed = 1;
nodes = (
(74,66,l),
(119,325,l),
(244,325,l),
(253,372,l),
(128,372,l),
(173,631,l),
(290,631,ls),
(479,631,o),
(558,535,o),
(525,346,cs),
(492,158,o),
(380,66,o),
(185,66,cs)
);
}
);
width = 725;
}
);
note = Eth;
unicode = 208;
},
{
glyphname = Dcaron;
kernLeft = B;
kernRight = D;
lastChange = "2022-12-26 09:35:14 +0000";
layers = (
{
hints = (
{
horizontal = 1;
place = (-123, -57);
place = (-123, -57);
type = Stem;
},
{
horizontal = 1;
place = (508, -57);
place = (508, -57);
type = Stem;
},
{
place = (-9, -52);
place = (-9, -52);
type = Stem;
},
{
place = (464, -51);
place = (464, -51);
type = Stem;
}
);
layerId = m01;
shapes = (
{
closed = 1;
nodes = (
(373,748,l),
(549,901,l),
(492,901,l),
(383,806,l),
(308,901,l),
(251,901,l)
);
},
{
closed = 1;
nodes = (
(-9,0,l),
(179,0,ls),
(410,0,o),
(557,121,o),
(597,343,cs),
(636,568,o),
(530,697,o),
(303,697,cs),
(114,697,l)
);
},
{
closed = 1;
nodes = (
(74,66,l),
(173,631,l),
(290,631,ls),
(479,631,o),
(558,535,o),
(525,346,cs),
(492,158,o),
(380,66,o),
(185,66,cs)
);
}
);
width = 725;
}
);
note = Dcaron;
unicode = 270;
},
{
glyphname = Dcroat;
kernLeft = B;
kernRight = D;
lastChange = "2022-12-26 09:35:14 +0000";
layers = (
{
hints = (
{
horizontal = 1;
place = (-123, -57);
place = (-123, -57);
type = Stem;
},
{
horizontal = 1;
place = (202, -76);
place = (202, -76);
type = Stem;
},
{
horizontal = 1;
place = (508, -57);
place = (508, -57);
type = Stem;
},
{
place = (-9, -52);
place = (-9, -52);
type = Stem;
},
{
place = (464, -51);
place = (464, -51);
type = Stem;
}
);
layerId = m01;
shapes = (
{
closed = 1;
nodes = (
(114,697,l),
(57,372,l),
(-17,372,l),
(-26,325,l),
(48,325,l),
(-9,0,l),
(179,0,ls),
(410,0,o),
(557,121,o),
(597,343,cs),
(636,568,o),
(530,697,o),
(303,697,cs)
);
},
{
closed = 1;
nodes = (
(74,66,l),
(119,325,l),
(244,325,l),
(253,372,l),
(128,372,l),
(173,631,l),
(290,631,ls),
(479,631,o),
(558,535,o),
(525,346,cs),
(492,158,o),
(380,66,o),
(185,66,cs)
);
}
);
width = 725;
}
);
note = Dcroat;
unicode = 272;
},
{
glyphname = E;
kernLeft = B;
lastChange = "2022-12-26 09:35:14 +0000";
layers = (
{
hints = (
{
horizontal = 1;
place = (-123, -57);
place = (-123, -57);
type = Stem;
},
{
horizontal = 1;
place = (199, -57);
place = (199, -57);
type = Stem;
},
{
horizontal = 1;
place = (508, -57);
place = (508, -57);
type = Stem;
},
{
place = (-9, -52);
place = (-9, -52);
type = Stem;
}
);
layerId = m01;
shapes = (
{
closed = 1;
nodes = (
(-9,0,l),
(448,0,l),
(460,66,l),
(74,66,l),
(119,322,l),
(466,322,l),
(468,334,o),
(471,352,o),
(474,366,cs),
(476,378,o),
(469,388,o),
(457,388,c),
(131,388,l),
(173,631,l),
(559,631,l),
(571,697,l),
(114,697,l)
);
}
);
width = 632;
}
);
note = E;
unicode = 69;
},
{
glyphname = Eacute;
kernLeft = B;
lastChange = "2022-12-26 09:35:14 +0000";
layers = (
{
hints = (
{
horizontal = 1;
place = (-123, -57);
place = (-123, -57);
type = Stem;
},
{
horizontal = 1;
place = (199, -57);
place = (199, -57);
type = Stem;
},
{
horizontal = 1;
place = (508, -57);
place = (508, -57);
type = Stem;
},
{
horizontal = 1;
place = (637, 18);
place = (637, 18);
type = Stem;
},
{
place = (-9, -52);
place = (-9, -52);
type = Stem;
}
);
layerId = m01;
shapes = (
{
closed = 1;
nodes = (
(327,760,l),
(380,760,l),
(534,901,l),
(460,901,l)
);
},
{
closed = 1;
nodes = (
(-9,0,l),
(448,0,l),
(460,66,l),
(74,66,l),
(119,322,l),
(466,322,l),
(478,388,l),
(131,388,l),
(173,631,l),
(559,631,l),
(571,697,l),
(114,697,l)
);
}
);
width = 632;
}
);
note = Eacute;
unicode = 201;
},
{
glyphname = Ecaron;
kernLeft = B;
lastChange = "2022-12-26 09:35:14 +0000";
layers = (
{
hints = (
{
horizontal = 1;
place = (-123, -57);
place = (-123, -57);
type = Stem;
},
{
horizontal = 1;
place = (199, -57);
place = (199, -57);
type = Stem;
},
{
horizontal = 1;
place = (508, -57);
place = (508, -57);
type = Stem;
},
{
place = (-9, -52);
place = (-9, -52);
type = Stem;
}
);
layerId = m01;
shapes = (
{
closed = 1;
nodes = (
(351,748,l),
(527,901,l),
(470,901,l),
(361,806,l),
(286,901,l),
(229,901,l)
);
},
{
closed = 1;
nodes = (
(-9,0,l),
(448,0,l),
(460,66,l),
(74,66,l),
(119,322,l),
(466,322,l),
(478,388,l),
(131,388,l),
(173,631,l),
(559,631,l),
(571,697,l),
(114,697,l)
);
}
);
width = 632;
}
);
note = Ecaron;
unicode = 282;
},
{
glyphname = Ecircumflex;
kernLeft = B;
lastChange = "2022-12-26 09:35:14 +0000";
layers = (
{
hints = (
{
horizontal = 1;
place = (-123, -57);
place = (-123, -57);
type = Stem;
},
{
horizontal = 1;
place = (199, -57);
place = (199, -57);
type = Stem;
},
{
horizontal = 1;
place = (508, -57);
place = (508, -57);
type = Stem;
},
{
place = (-9, -52);
place = (-9, -52);
type = Stem;
}
);
layerId = m01;
shapes = (
{
closed = 1;
nodes = (
(203,752,l),
(261,752,l),
(369,850,l),
(444,752,l),
(501,752,l),
(380,911,l)
);
},
{
closed = 1;
nodes = (
(-9,0,l),
(448,0,l),
(460,66,l),
(74,66,l),
(119,322,l),
(466,322,l),
(478,388,l),
(131,388,l),
(173,631,l),
(559,631,l),
(571,697,l),
(114,697,l)
);
}
);
width = 632;
}
);
note = Ecircumflex;
unicode = 202;
},
{
glyphname = uni1EBE;
kernLeft = B;
lastChange = "2022-12-26 09:35:14 +0000";
layers = (
{
hints = (
{
horizontal = 1;
place = (-123, -57);
place = (-123, -57);
type = Stem;
},
{
horizontal = 1;
place = (199, -57);
place = (199, -57);
type = Stem;
},
{
horizontal = 1;
place = (508, -57);
place = (508, -57);
type = Stem;
},
{
horizontal = 1;
place = (826, 18);
place = (826, 18);
type = Stem;
},
{
place = (-9, -52);
place = (-9, -52);
type = Stem;
}
);
layerId = m01;
shapes = (
{
closed = 1;
nodes = (
(360,949,l),
(413,949,l),
(567,1090,l),
(493,1090,l)
);
},
{
closed = 1;
nodes = (
(203,752,l),
(261,752,l),
(369,850,l),
(444,752,l),
(501,752,l),
(380,911,l)
);
},
{
closed = 1;
nodes = (
(-9,0,l),
(448,0,l),
(460,66,l),
(74,66,l),
(119,322,l),
(466,322,l),
(478,388,l),
(131,388,l),
(173,631,l),
(559,631,l),
(571,697,l),
(114,697,l)
);
}
);
width = 632;
}
);
note = uni1EBE;
unicode = 7870;
},
{
glyphname = uni1EC6;
kernLeft = B;
lastChange = "2022-12-26 09:35:14 +0000";
layers = (
{
hints = (
{
horizontal = 1;
place = (-296, -22);
place = (-296, -22);
type = Stem;
},
{
horizontal = 1;
place = (-123, -57);
place = (-123, -57);
type = Stem;
},
{
horizontal = 1;
place = (199, -57);
place = (199, -57);
type = Stem;
},
{
horizontal = 1;
place = (508, -57);
place = (508, -57);
type = Stem;
},
{
place = (-9, -52);
place = (-9, -52);
type = Stem;
},
{
place = (179, -43);
place = (179, -43);
type = Stem;
}
);
layerId = m01;
shapes = (
{
closed = 1;
nodes = (
(203,752,l),
(261,752,l),
(369,850,l),
(444,752,l),
(501,752,l),
(380,911,l)
);
},
{
closed = 1;
nodes = (
(-9,0,l),
(448,0,l),
(460,66,l),
(74,66,l),
(119,322,l),
(466,322,l),
(478,388,l),
(131,388,l),
(173,631,l),
(559,631,l),
(571,697,l),
(114,697,l)
);
},
{
closed = 1;
nodes = (
(149,-173,l),
(229,-173,l),
(246,-72,l),
(166,-72,l)
);
}
);
width = 632;
}
);
note = uni1EC6;
unicode = 7878;
},
{
glyphname = uni1EC0;
kernLeft = B;
lastChange = "2022-12-26 09:35:14 +0000";
layers = (
{
hints = (
{
horizontal = 1;
place = (-123, -57);
place = (-123, -57);
type = Stem;
},
{
horizontal = 1;
place = (199, -57);
place = (199, -57);
type = Stem;
},
{
horizontal = 1;
place = (508, -57);
place = (508, -57);
type = Stem;
},
{
horizontal = 1;
place = (826, 18);
place = (826, 18);
type = Stem;
},
{
place = (-9, -52);
place = (-9, -52);
type = Stem;
}
);
layerId = m01;
shapes = (
{
closed = 1;
nodes = (
(359,949,l),
(413,949,l),
(334,1090,l),
(260,1090,l)
);
},
{
closed = 1;
nodes = (
(203,752,l),
(261,752,l),
(369,850,l),
(444,752,l),
(501,752,l),
(380,911,l)
);
},
{
closed = 1;
nodes = (
(-9,0,l),
(448,0,l),
(460,66,l),
(74,66,l),
(119,322,l),
(466,322,l),
(478,388,l),
(131,388,l),
(173,631,l),
(559,631,l),
(571,697,l),
(114,697,l)
);
}
);
width = 632;
}
);
note = uni1EC0;
unicode = 7872;
},
{
glyphname = uni1EC2;
kernLeft = B;
lastChange = "2022-12-26 09:35:14 +0000";
layers = (
{
hints = (
{
horizontal = 1;
place = (-123, -57);
place = (-123, -57);
type = Stem;
},
{
horizontal = 1;
place = (199, -57);
place = (199, -57);
type = Stem;
},
{
horizontal = 1;
place = (508, -57);
place = (508, -57);
type = Stem;
},
{
horizontal = 1;
place = (948, -83);
place = (948, -83);
type = Stem;
},
{
place = (-9, -52);
place = (-9, -52);
type = Stem;
},
{
place = (281, -76);
place = (281, -76);
type = Stem;
}
);
layerId = m01;
shapes = (
{
closed = 1;
nodes = (
(376,925,l),
(427,935,o),
(495,946,o),
(507,1013,cs),
(518,1077,o),
(465,1111,o),
(385,1111,cs),
(370,1111,l),
(363,1071,l),
(378,1071,ls),
(425,1071,o),
(467,1056,o),
(460,1015,cs),
(454,978,o),
(410,970,o),
(371,964,c)
);
},
{
closed = 1;
nodes = (
(203,752,l),
(261,752,l),
(369,850,l),
(444,752,l),
(501,752,l),
(380,911,l)
);
},
{
closed = 1;
nodes = (
(-9,0,l),
(448,0,l),
(460,66,l),
(74,66,l),
(119,322,l),
(466,322,l),
(478,388,l),
(131,388,l),
(173,631,l),
(559,631,l),
(571,697,l),
(114,697,l)
);
}
);
width = 632;
}
);
note = uni1EC2;
unicode = 7874;
},
{
glyphname = uni1EC4;
kernLeft = B;
lastChange = "2022-12-26 09:35:14 +0000";
layers = (
{
hints = (
{
horizontal = 1;
place = (-123, -57);
place = (-123, -57);
type = Stem;
},
{
horizontal = 1;
place = (199, -57);
place = (199, -57);
type = Stem;
},
{
horizontal = 1;
place = (508, -57);
place = (508, -57);
type = Stem;
},
{
horizontal = 1;
place = (840, -78);
place = (840, -78);
type = Stem;
},
{
horizontal = 1;
place = (927, -79);
place = (927, -79);
type = Stem;
},
{
place = (-9, -52);
place = (-9, -52);
type = Stem;
},
{
place = (334, -80);
place = (334, -80);
type = Stem;
},
{
place = (60, -82);
place = (60, -82);
type = Stem;
}
);
layerId = m01;
shapes = (
{
closed = 1;
nodes = (
(511,963,o),
(555,1011,o),
(569,1090,c),
(526,1090,l),
(517,1039,o),
(492,1008,o),
(466,1008,cs),
(412,1008,o),
(421,1094,o),
(346,1094,cs),
(289,1094,o),
(245,1049,o),
(231,972,c),
(272,972,l),
(281,1021,o),
(305,1050,o),
(336,1050,cs),
(389,1050,o),
(375,963,o),
(458,963,cs)
);
},
{
closed = 1;
nodes = (
(203,752,l),
(261,752,l),
(369,850,l),
(444,752,l),
(501,752,l),
(380,911,l)
);
},
{
closed = 1;
nodes = (
(-9,0,l),
(448,0,l),
(460,66,l),
(74,66,l),
(119,322,l),
(466,322,l),
(478,388,l),
(131,388,l),
(173,631,l),
(559,631,l),
(571,697,l),
(114,697,l)
);
}
);
width = 632;
}
);
note = uni1EC4;
unicode = 7876;
},
{
glyphname = Edieresis;
kernLeft = B;
lastChange = "2022-12-26 09:35:14 +0000";
layers = (
{
hints = (
{
horizontal = 1;
place = (-123, -57);
place = (-123, -57);
type = Stem;
},
{
horizontal = 1;
place = (199, -57);
place = (199, -57);
type = Stem;
},
{
horizontal = 1;
place = (508, -57);
place = (508, -57);
type = Stem;
},
{
horizontal = 1;
place = (676, -21);
place = (676, -21);
type = Stem;
},
{
place = (-9, -52);
place = (-9, -52);
type = Stem;
},
{
place = (89, -43);
place = (89, -43);
type = Stem;
},
{
place = (269, -43);
place = (269, -43);
type = Stem;
}
);
layerId = m01;
shapes = (
{
closed = 1;
nodes = (
(230,799,l),
(310,799,l),
(328,901,l),
(248,901,l)
);
},
{
closed = 1;
nodes = (
(410,799,l),
(490,799,l),
(508,901,l),
(428,901,l)
);
},
{
closed = 1;
nodes = (
(-9,0,l),
(448,0,l),
(460,66,l),
(74,66,l),
(119,322,l),
(466,322,l),
(478,388,l),
(131,388,l),
(173,631,l),
(559,631,l),
(571,697,l),
(114,697,l)
);
}
);
width = 632;
}
);
note = Edieresis;
unicode = 203;
},
{
glyphname = Edotaccent;
kernLeft = B;
lastChange = "2022-12-26 09:35:14 +0000";
layers = (
{
hints = (
{
horizontal = 1;
place = (-123, -57);
place = (-123, -57);
type = Stem;
},
{
horizontal = 1;
place = (199, -57);
place = (199, -57);
type = Stem;
},
{
horizontal = 1;
place = (508, -57);
place = (508, -57);
type = Stem;
},
{
horizontal = 1;
place = (676, -21);
place = (676, -21);
type = Stem;
},
{
place = (-9, -52);
place = (-9, -52);
type = Stem;
},
{
place = (179, -43);
place = (179, -43);
type = Stem;
}
);
layerId = m01;
shapes = (
{
closed = 1;
nodes = (
(320,799,l),
(400,799,l),
(418,901,l),
(338,901,l)
);
},
{
closed = 1;
nodes = (
(-9,0,l),
(448,0,l),
(460,66,l),
(74,66,l),
(119,322,l),
(466,322,l),
(478,388,l),
(131,388,l),
(173,631,l),
(559,631,l),
(571,697,l),
(114,697,l)
);
}
);
width = 632;
}
);
note = Edotaccent;
unicode = 278;
},
{
glyphname = uni1EB8;
kernLeft = B;
lastChange = "2022-12-26 09:35:14 +0000";
layers = (
{
hints = (
{
horizontal = 1;
place = (-296, -22);
place = (-296, -22);
type = Stem;
},
{
horizontal = 1;
place = (-123, -57);
place = (-123, -57);
type = Stem;
},
{
horizontal = 1;
place = (199, -57);
place = (199, -57);
type = Stem;
},
{
horizontal = 1;
place = (508, -57);
place = (508, -57);
type = Stem;
},
{
place = (-9, -52);
place = (-9, -52);
type = Stem;
},
{
place = (179, -43);
place = (179, -43);
type = Stem;
}
);
layerId = m01;
shapes = (
{
closed = 1;
nodes = (
(-9,0,l),
(448,0,l),
(460,66,l),
(74,66,l),
(119,322,l),
(466,322,l),
(478,388,l),
(131,388,l),
(173,631,l),
(559,631,l),
(571,697,l),
(114,697,l)
);
},
{
closed = 1;
nodes = (
(149,-173,l),
(229,-173,l),
(246,-72,l),
(166,-72,l)
);
}
);
width = 632;
}
);
note = uni1EB8;
unicode = 7864;
},
{
glyphname = Egrave;
kernLeft = B;
lastChange = "2022-12-26 09:35:14 +0000";
layers = (
{
hints = (
{
horizontal = 1;
place = (-123, -57);
place = (-123, -57);
type = Stem;
},
{
horizontal = 1;
place = (199, -57);
place = (199, -57);
type = Stem;
},
{
horizontal = 1;
place = (508, -57);
place = (508, -57);
type = Stem;
},
{
horizontal = 1;
place = (637, 18);
place = (637, 18);
type = Stem;
},
{
place = (-9, -52);
place = (-9, -52);
type = Stem;
}
);
layerId = m01;
shapes = (
{
closed = 1;
nodes = (
(326,760,l),
(380,760,l),
(301,901,l),
(227,901,l)
);
},
{
closed = 1;
nodes = (
(-9,0,l),
(448,0,l),
(460,66,l),
(74,66,l),
(119,322,l),
(466,322,l),
(478,388,l),
(131,388,l),
(173,631,l),
(559,631,l),
(571,697,l),
(114,697,l)
);
}
);
width = 632;
}
);
note = Egrave;
unicode = 200;
},
{
glyphname = uni1EBA;
kernLeft = B;
lastChange = "2022-12-26 09:35:14 +0000";
layers = (
{
hints = (
{
horizontal = 1;
place = (-123, -57);
place = (-123, -57);
type = Stem;
},
{
horizontal = 1;
place = (199, -57);
place = (199, -57);
type = Stem;
},
{
horizontal = 1;
place = (508, -57);
place = (508, -57);
type = Stem;
},
{
horizontal = 1;
place = (759, -83);
place = (759, -83);
type = Stem;
},
{
place = (-9, -52);
place = (-9, -52);
type = Stem;
},
{
place = (281, -76);
place = (281, -76);
type = Stem;
}
);
layerId = m01;
shapes = (
{
closed = 1;
nodes = (
(343,736,l),
(394,746,o),
(462,757,o),
(473,824,cs),
(485,888,o),
(432,922,o),
(352,922,cs),
(337,922,l),
(330,882,l),
(345,882,ls),
(392,882,o),
(434,867,o),
(427,826,cs),
(420,789,o),
(377,781,o),
(338,775,c)
);
},
{
closed = 1;
nodes = (
(-9,0,l),
(448,0,l),
(460,66,l),
(74,66,l),
(119,322,l),
(466,322,l),
(478,388,l),
(131,388,l),
(173,631,l),
(559,631,l),
(571,697,l),
(114,697,l)
);
}
);
width = 632;
}
);
note = uni1EBA;
unicode = 7866;
},
{
glyphname = Emacron;
kernLeft = B;
lastChange = "2022-12-26 09:35:14 +0000";
layers = (
{
hints = (
{
horizontal = 1;
place = (-123, -57);
place = (-123, -57);
type = Stem;
},
{
horizontal = 1;
place = (199, -57);
place = (199, -57);
type = Stem;
},
{
horizontal = 1;
place = (508, -57);
place = (508, -57);
type = Stem;
},
{
horizontal = 1;
place = (680, -81);
place = (680, -81);
type = Stem;
},
{
place = (-9, -52);
place = (-9, -52);
type = Stem;
}
);
layerId = m01;
shapes = (
{
closed = 1;
nodes = (
(225,803,l),
(495,803,l),
(502,845,l),
(232,845,l)
);
},
{
closed = 1;
nodes = (
(-9,0,l),
(448,0,l),
(460,66,l),
(74,66,l),
(119,322,l),
(466,322,l),
(478,388,l),
(131,388,l),
(173,631,l),
(559,631,l),
(571,697,l),
(114,697,l)
);
}
);
width = 632;
}
);
note = Emacron;
unicode = 274;
},
{
glyphname = Eogonek;
kernLeft = B;
lastChange = "2022-12-26 09:35:14 +0000";
layers = (
{
hints = (
{
horizontal = 1;
place = (-337, -78);
place = (-337, -78);
type = Stem;
},
{
horizontal = 1;
place = (-123, -57);
place = (-123, -57);
type = Stem;
},
{
horizontal = 1;
place = (199, -57);
place = (199, -57);
type = Stem;
},
{
horizontal = 1;
place = (508, -57);
place = (508, -57);
type = Stem;
},
{
place = (-9, -52);
place = (-9, -52);
type = Stem;
},
{
place = (304, -80);
place = (304, -80);
type = Stem;
}
);
layerId = m01;
shapes = (
{
closed = 1;
nodes = (
(429,-142,l),
(408,-159,o),
(386,-169,o),
(363,-169,cs),
(339,-169,o),
(319,-157,o),
(325,-124,cs),
(336,-63,o),
(409,-21,o),
(448,0,c),
(460,66,l),
(74,66,l),
(119,322,l),
(466,322,l),
(478,388,l),
(131,388,l),
(173,631,l),
(559,631,l),
(571,697,l),
(114,697,l),
(-9,0,l),
(390,0,l),
(345,-26,o),
(291,-72,o),
(281,-130,cs),
(272,-182,o),
(306,-214,o),
(357,-214,cs),
(394,-214,o),
(430,-196,o),
(458,-169,c)
);
}
);
width = 632;
}
);
note = Eogonek;
unicode = 280;
},
{
glyphname = uni1EBC;
kernLeft = B;
lastChange = "2022-12-26 09:35:14 +0000";
layers = (
{
hints = (
{
horizontal = 1;
place = (-123, -57);
place = (-123, -57);
type = Stem;
},
{
horizontal = 1;
place = (199, -57);
place = (199, -57);
type = Stem;
},
{
horizontal = 1;
place = (508, -57);
place = (508, -57);
type = Stem;
},
{
horizontal = 1;
place = (651, -78);
place = (651, -78);
type = Stem;
},
{
horizontal = 1;
place = (738, -79);
place = (738, -79);
type = Stem;
},
{
place = (-9, -52);
place = (-9, -52);
type = Stem;
},
{
place = (334, -80);
place = (334, -80);
type = Stem;
},
{
place = (60, -82);
place = (60, -82);
type = Stem;
}
);
layerId = m01;
shapes = (
{
closed = 1;
nodes = (
(478,774,o),
(522,822,o),
(536,901,c),
(493,901,l),
(484,850,o),
(459,819,o),
(433,819,cs),
(379,819,o),
(388,905,o),
(313,905,cs),
(256,905,o),
(212,860,o),
(198,783,c),
(239,783,l),
(248,832,o),
(272,861,o),
(303,861,cs),
(356,861,o),
(342,774,o),
(425,774,cs)
);
},
{
closed = 1;
nodes = (
(-9,0,l),
(448,0,l),
(460,66,l),
(74,66,l),
(119,322,l),
(466,322,l),
(478,388,l),
(131,388,l),
(173,631,l),
(559,631,l),
(571,697,l),
(114,697,l)
);
}
);
width = 632;
}
);
note = uni1EBC;
unicode = 7868;
},
{
glyphname = F;
kernLeft = B;
kernRight = F;
lastChange = "2022-12-26 09:35:14 +0000";
layers = (
{
hints = (
{
horizontal = 1;
place = (-123, 21);
target = up;
type = BottomGhost;
},
{
horizontal = 1;
place = (199, -57);
place = (199, -57);
type = Stem;
},
{
horizontal = 1;
place = (508, -57);
place = (508, -57);
type = Stem;
},
{
place = (-9, -52);
place = (-9, -52);
type = Stem;
}
);
layerId = m01;
shapes = (
{
closed = 1;
nodes = (
(-9,0,l),
(28,0,l),
(72,57,l),
(119,322,l),
(471,322,l),
(483,388,l),
(131,388,l),
(173,631,l),
(560,631,ls),
(568,631,o),
(577,638,o),
(578,646,cs),
(587,697,l),
(114,697,l)
);
}
);
width = 628;
}
);
note = F;
unicode = 70;
},
{
glyphname = G;
kernLeft = C;
kernRight = G;
lastChange = "2022-12-26 09:35:14 +0000";
layers = (
{
hints = (
{
horizontal = 1;
place = (-133, -55);
place = (-133, -55);
type = Stem;
},
{
horizontal = 1;
place = (179, -65);
place = (179, -65);
type = Stem;
},
{
horizontal = 1;
place = (516, -55);
place = (516, -55);
type = Stem;
},
{
place = (-55, -52);
place = (-55, -52);
type = Stem;
},
{
place = (487, -56);
place = (487, -56);
type = Stem;
},
{
horizontal = 1;
place = (-123, 21);
target = up;
type = BottomGhost;
}
);
layerId = m01;
shapes = (
{
closed = 1;
nodes = (
(372,302,l),
(540,302,l),
(536,280,ls),
(508,121,o),
(392,58,o),
(272,58,cs),
(99,58,o),
(49,187,o),
(78,353,cs),
(109,525,o),
(212,639,o),
(380,639,cs),
(496,639,o),
(556,586,o),
(575,491,c),
(631,510,ls),
(648,516,o),
(642,532,o),
(638,547,cs),
(607,652,o),
(526,707,o),
(392,707,cs),
(178,707,o),
(43,557,o),
(7,350,cs),
(-30,142,o),
(52,-10,o),
(255,-10,cs),
(362,-10,o),
(455,32,o),
(506,109,c),
(497,0,l),
(526,0,l),
(562,44,l),
(618,360,l),
(398,360,ls),
(390,360,o),
(381,353,o),
(380,345,cs)
);
}
);
width = 766;
}
);
note = G;
unicode = 71;
},
{
glyphname = Gbreve;
kernLeft = C;
kernRight = G;
lastChange = "2022-12-26 09:35:14 +0000";
layers = (
{
hints = (
{
horizontal = 1;
place = (-133, -55);
place = (-133, -55);
type = Stem;
},
{
horizontal = 1;
place = (179, -65);
place = (179, -65);
type = Stem;
},
{
horizontal = 1;
place = (516, -55);
place = (516, -55);
type = Stem;
},
{
horizontal = 1;
place = (647, -81);
place = (647, -81);
type = Stem;
},
{
place = (-55, -52);
place = (-55, -52);
type = Stem;
},
{
place = (111, -73);
place = (111, -73);
type = Stem;
},
{
place = (363, -73);
place = (363, -73);
type = Stem;
},
{
place = (487, -56);
place = (487, -56);
type = Stem;
},
{
horizontal = 1;
place = (-123, 21);
target = up;
type = BottomGhost;
}
);
layerId = m01;
shapes = (
{
closed = 1;
nodes = (
(495,770,o),
(557,814,o),
(572,901,c),
(522,901,l),
(512,844,o),
(468,812,o),
(405,812,cs),
(344,812,o),
(310,842,o),
(320,901,c),
(270,901,l),
(255,816,o),
(297,770,o),
(398,770,cs)
);
},
{
closed = 1;
nodes = (
(372,302,l),
(540,302,l),
(536,280,ls),
(508,121,o),
(392,58,o),
(272,58,cs),
(99,58,o),
(49,187,o),
(78,353,cs),
(109,525,o),
(212,639,o),
(380,639,cs),
(496,639,o),
(556,586,o),
(575,491,c),
(645,516,l),
(620,636,o),
(539,707,o),
(392,707,cs),
(178,707,o),
(43,557,o),
(7,350,cs),
(-30,142,o),
(52,-10,o),
(255,-10,cs),
(362,-10,o),
(455,32,o),
(506,109,c),
(497,0,l),
(554,0,l),
(618,360,l),
(383,360,l)
);
}
);
width = 766;
}
);
note = Gbreve;
unicode = 286;
},
{
glyphname = uni0122;
kernLeft = C;
kernRight = G;
lastChange = "2022-12-26 09:35:14 +0000";
layers = (
{
hints = (
{
horizontal = 1;
place = (-133, -55);
place = (-133, -55);
type = Stem;
},
{
horizontal = 1;
place = (179, -65);
place = (179, -65);
type = Stem;
},
{
horizontal = 1;
place = (516, -55);
place = (516, -55);
type = Stem;
},
{
place = (-55, -52);
place = (-55, -52);
type = Stem;
},
{
place = (487, -56);
place = (487, -56);
type = Stem;
},
{
horizontal = 1;
place = (-344, 42);
place = (-344, 42);
type = Stem;
},
{
horizontal = 1;
place = (-123, 21);
target = up;
type = BottomGhost;
}
);
layerId = m01;
shapes = (
{
closed = 1;
nodes = (
(372,302,l),
(540,302,l),
(536,280,ls),
(508,121,o),
(392,58,o),
(272,58,cs),
(99,58,o),
(49,187,o),
(78,353,cs),
(109,525,o),
(212,639,o),
(380,639,cs),
(496,639,o),
(556,586,o),
(575,491,c),
(645,516,l),
(620,636,o),
(539,707,o),
(392,707,cs),
(178,707,o),
(43,557,o),
(7,350,cs),
(-30,142,o),
(52,-10,o),
(255,-10,cs),
(362,-10,o),
(455,32,o),
(506,109,c),
(497,0,l),
(554,0,l),
(618,360,l),
(383,360,l)
);
},
{
closed = 1;
nodes = (
(98,-221,l),
(142,-221,l),
(288,-56,l),
(215,-56,l)
);
}
);
width = 766;
}
);
note = uni0122;
unicode = 290;
},
{
glyphname = Gdotaccent;
kernLeft = C;
kernRight = G;
lastChange = "2022-12-26 09:35:14 +0000";
layers = (
{
hints = (
{
horizontal = 1;
place = (-133, -55);
place = (-133, -55);
type = Stem;
},
{
horizontal = 1;
place = (179, -65);
place = (179, -65);
type = Stem;
},
{
horizontal = 1;
place = (516, -55);
place = (516, -55);
type = Stem;
},
{
horizontal = 1;
place = (676, -21);
place = (676, -21);
type = Stem;
},
{
place = (-55, -52);
place = (-55, -52);
type = Stem;
},
{
place = (222, -43);
place = (222, -43);
type = Stem;
},
{
place = (487, -56);
place = (487, -56);
type = Stem;
},
{
horizontal = 1;
place = (-123, 21);
target = up;
type = BottomGhost;
}
);
layerId = m01;
shapes = (
{
closed = 1;
nodes = (
(461,901,l),
(381,901,l),
(363,799,l),
(443,799,l)
);
},
{
closed = 1;
nodes = (
(372,302,l),
(540,302,l),
(536,280,ls),
(508,121,o),
(392,58,o),
(272,58,cs),
(99,58,o),
(49,187,o),
(78,353,cs),
(109,525,o),
(212,639,o),
(380,639,cs),
(496,639,o),
(556,586,o),
(575,491,c),
(645,516,l),
(620,636,o),
(539,707,o),
(392,707,cs),
(178,707,o),
(43,557,o),
(7,350,cs),
(-30,142,o),
(52,-10,o),
(255,-10,cs),
(362,-10,o),
(455,32,o),
(506,109,c),
(497,0,l),
(554,0,l),
(618,360,l),
(383,360,l)
);
}
);
width = 766;
}
);
note = Gdotaccent;
unicode = 288;
},
{
glyphname = H;
kernLeft = B;
kernRight = H;
lastChange = "2022-12-26 09:35:14 +0000";
layers = (
{
hints = (
{
horizontal = 1;
place = (-123, 21);
target = up;
type = BottomGhost;
},
{
horizontal = 1;
place = (199, -56);
place = (199, -56);
type = Stem;
},
{
horizontal = 1;
place = (574, -20);
target = down;
type = TopGhost;
},
{
place = (-9, -52);
place = (-9, -52);
type = Stem;
},
{
place = (424, -51);
place = (424, -51);
type = Stem;
}
);
layerId = m01;
shapes = (
{
closed = 1;
nodes = (
(-9,0,l),
(62,0,l),
(119,322,l),
(481,322,l),
(424,0,l),
(496,0,l),
(619,697,l),
(547,697,l),
(493,389,l),
(131,389,l),
(185,697,l),
(114,697,l)
);
}
);
width = 733;
}
);
note = H;
unicode = 72;
},
{
glyphname = Hbar;
kernLeft = B;
kernRight = H;
lastChange = "2022-12-26 09:35:14 +0000";
layers = (
{
hints = (
{
horizontal = 1;
place = (-123, 21);
target = up;
type = BottomGhost;
},
{
horizontal = 1;
place = (199, -56);
place = (199, -56);
type = Stem;
},
{
horizontal = 1;
place = (394, -81);
place = (394, -81);
type = Stem;
},
{
place = (-9, -52);
place = (-9, -52);
type = Stem;
},
{
place = (424, -51);
place = (424, -51);
type = Stem;
},
{
horizontal = 1;
place = (394, 57);
place = (394, 57);
type = Stem;
}
);
layerId = m01;
shapes = (
{
closed = 1;
nodes = (
(659,559,l),
(595,559,l),
(619,697,l),
(547,697,l),
(523,559,l),
(161,559,l),
(185,697,l),
(114,697,l),
(90,559,l),
(24,559,l),
(16,517,l),
(82,517,l),
(-9,0,l),
(62,0,l),
(119,322,l),
(481,322,l),
(424,0,l),
(496,0,l),
(587,517,l),
(651,517,l)
);
},
{
closed = 1;
nodes = (
(493,389,l),
(131,389,l),
(153,517,l),
(515,517,l)
);
}
);
width = 733;
}
);
note = Hbar;
unicode = 294;
},
{
glyphname = I;
kernLeft = B;
kernRight = H;
lastChange = "2022-12-26 09:35:14 +0000";
layers = (
{
hints = (
{
horizontal = 1;
place = (-123, 21);
target = up;
type = BottomGhost;
},
{
horizontal = 1;
place = (574, -20);
target = down;
type = TopGhost;
},
{
place = (-9, -52);
place = (-9, -52);
type = Stem;
}
);
layerId = m01;
shapes = (
{
closed = 1;
nodes = (
(-9,0,l),
(62,0,l),
(185,697,l),
(114,697,l)
);
}
);
width = 299;
}
);
note = I;
unicode = 73;
},
{
glyphname = Iacute;
kernLeft = B;
kernRight = H;
lastChange = "2022-12-26 09:35:14 +0000";
layers = (
{
hints = (
{
horizontal = 1;
place = (-123, 21);
target = up;
type = BottomGhost;
},
{
horizontal = 1;
place = (574, -20);
target = down;
type = TopGhost;
},
{
horizontal = 1;
place = (637, 18);
place = (637, 18);
type = Stem;
},
{
place = (-9, -52);
place = (-9, -52);
type = Stem;
}
);
layerId = m01;
shapes = (
{
closed = 1;
nodes = (
(135,760,l),
(188,760,l),
(342,901,l),
(268,901,l)
);
},
{
closed = 1;
nodes = (
(-9,0,l),
(62,0,l),
(185,697,l),
(114,697,l)
);
}
);
width = 299;
}
);
note = Iacute;
unicode = 205;
},
{
glyphname = uni01CF;
lastChange = "2022-12-26 09:35:14 +0000";
layers = (
{
hints = (
{
horizontal = 1;
place = (-123, 21);
target = up;
type = BottomGhost;
},
{
horizontal = 1;
place = (574, -20);
target = down;
type = TopGhost;
},
{
place = (-9, -52);
place = (-9, -52);
type = Stem;
}
);
layerId = m01;
shapes = (
{
closed = 1;
nodes = (
(159,748,l),
(335,901,l),
(278,901,l),
(169,806,l),
(94,901,l),
(37,901,l)
);
},
{
closed = 1;
nodes = (
(-9,0,l),
(62,0,l),
(185,697,l),
(114,697,l)
);
}
);
width = 299;
}
);
note = uni01CF;
unicode = 463;
},
{
glyphname = Icircumflex;
kernLeft = B;
kernRight = H;
lastChange = "2022-12-26 09:35:14 +0000";
layers = (
{
hints = (
{
horizontal = 1;
place = (-123, 21);
target = up;
type = BottomGhost;
},
{
horizontal = 1;
place = (574, -20);
target = down;
type = TopGhost;
},
{
place = (-9, -52);
place = (-9, -52);
type = Stem;
}
);
layerId = m01;
shapes = (
{
closed = 1;
nodes = (
(11,752,l),
(69,752,l),
(177,850,l),
(252,752,l),
(309,752,l),
(188,911,l)
);
},
{
closed = 1;
nodes = (
(-9,0,l),
(62,0,l),
(185,697,l),
(114,697,l)
);
}
);
width = 299;
}
);
note = Icircumflex;
unicode = 206;
},
{
glyphname = Idieresis;
kernLeft = B;
kernRight = H;
lastChange = "2022-12-26 09:35:14 +0000";
layers = (
{
hints = (
{
horizontal = 1;
place = (-123, 21);
target = up;
type = BottomGhost;
},
{
horizontal = 1;
place = (574, -20);
target = down;
type = TopGhost;
},
{
horizontal = 1;
place = (676, -21);
place = (676, -21);
type = Stem;
},
{
place = (-103, -43);
place = (-103, -43);
type = Stem;
},
{
place = (-9, -52);
place = (-9, -52);
type = Stem;
},
{
place = (77, -43);
place = (77, -43);
type = Stem;
}
);
layerId = m01;
shapes = (
{
closed = 1;
nodes = (
(38,799,l),
(118,799,l),
(136,901,l),
(56,901,l)
);
},
{
closed = 1;
nodes = (
(218,799,l),
(298,799,l),
(316,901,l),
(236,901,l)
);
},
{
closed = 1;
nodes = (
(-9,0,l),
(62,0,l),
(185,697,l),
(114,697,l)
);
}
);
width = 299;
}
);
note = Idieresis;
unicode = 207;
},
{
glyphname = Idotaccent;
kernLeft = B;
kernRight = H;
lastChange = "2022-12-26 09:35:14 +0000";
layers = (
{
hints = (
{
horizontal = 1;
place = (-123, 21);
target = up;
type = BottomGhost;
},
{
horizontal = 1;
place = (574, -20);
target = down;
type = TopGhost;
},
{
horizontal = 1;
place = (676, -21);
place = (676, -21);
type = Stem;
},
{
place = (-13, -43);
place = (-13, -43);
type = Stem;
},
{
place = (-9, -52);
place = (-9, -52);
type = Stem;
}
);
layerId = m01;
shapes = (
{
closed = 1;
nodes = (
(128,799,l),
(208,799,l),
(226,901,l),
(146,901,l)
);
},
{
closed = 1;
nodes = (
(-9,0,l),
(62,0,l),
(185,697,l),
(114,697,l)
);
}
);
width = 299;
}
);
note = Idotaccent;
unicode = 304;
},
{
glyphname = uni1ECA;
lastChange = "2022-12-26 09:35:14 +0000";
layers = (
{
hints = (
{
horizontal = 1;
place = (-296, -22);
place = (-296, -22);
type = Stem;
},
{
horizontal = 1;
place = (-123, 21);
target = up;
type = BottomGhost;
},
{
horizontal = 1;
place = (574, -20);
target = down;
type = TopGhost;
},
{
place = (-9, -52);
place = (-9, -52);
type = Stem;
},
{
place = (-13, -43);
place = (-13, -43);
type = Stem;
}
);
layerId = m01;
shapes = (
{
closed = 1;
nodes = (
(-9,0,l),
(62,0,l),
(185,697,l),
(114,697,l)
);
},
{
closed = 1;
nodes = (
(-43,-173,l),
(37,-173,l),
(54,-72,l),
(-26,-72,l)
);
}
);
width = 299;
}
);
note = uni1ECA;
unicode = 7882;
},
{
glyphname = Igrave;
kernLeft = B;
kernRight = H;
lastChange = "2022-12-26 09:35:14 +0000";
layers = (
{
hints = (
{
horizontal = 1;
place = (-123, 21);
target = up;
type = BottomGhost;
},
{
horizontal = 1;
place = (574, -20);
target = down;
type = TopGhost;
},
{
horizontal = 1;
place = (637, 18);
place = (637, 18);
type = Stem;
},
{
place = (-9, -52);
place = (-9, -52);
type = Stem;
}
);
layerId = m01;
shapes = (
{
closed = 1;
nodes = (
(134,760,l),
(188,760,l),
(109,901,l),
(35,901,l)
);
},
{
closed = 1;
nodes = (
(-9,0,l),
(62,0,l),
(185,697,l),
(114,697,l)
);
}
);
width = 299;
}
);
note = Igrave;
unicode = 204;
},
{
glyphname = uni1EC8;
lastChange = "2022-12-26 09:35:14 +0000";
layers = (
{
hints = (
{
horizontal = 1;
place = (-123, 21);
target = up;
type = BottomGhost;
},
{
horizontal = 1;
place = (574, -20);
target = down;
type = TopGhost;
},
{
horizontal = 1;
place = (759, -83);
place = (759, -83);
type = Stem;
},
{
place = (-9, -52);
place = (-9, -52);
type = Stem;
},
{
place = (89, -76);
place = (89, -76);
type = Stem;
}
);
layerId = m01;
shapes = (
{
closed = 1;
nodes = (
(151,736,l),
(202,746,o),
(270,757,o),
(281,824,cs),
(293,888,o),
(240,922,o),
(160,922,cs),
(145,922,l),
(138,882,l),
(153,882,ls),
(200,882,o),
(242,867,o),
(235,826,cs),
(228,789,o),
(185,781,o),
(146,775,c)
);
},
{
closed = 1;
nodes = (
(-9,0,l),
(62,0,l),
(185,697,l),
(114,697,l)
);
}
);
width = 299;
}
);
note = uni1EC8;
unicode = 7880;
},
{
glyphname = Imacron;
kernLeft = B;
kernRight = H;
lastChange = "2022-12-26 09:35:14 +0000";
layers = (
{
hints = (
{
horizontal = 1;
place = (-123, 21);
target = up;
type = BottomGhost;
},
{
horizontal = 1;
place = (574, -20);
target = down;
type = TopGhost;
},
{
horizontal = 1;
place = (680, -81);
place = (680, -81);
type = Stem;
},
{
place = (-9, -52);
place = (-9, -52);
type = Stem;
}
);
layerId = m01;
shapes = (
{
closed = 1;
nodes = (
(33,803,l),
(303,803,l),
(310,845,l),
(40,845,l)
);
},
{
closed = 1;
nodes = (
(-9,0,l),
(62,0,l),
(185,697,l),
(114,697,l)
);
}
);
width = 299;
}
);
note = Imacron;
unicode = 298;
},
{
glyphname = Iogonek;
kernLeft = B;
kernRight = H;
lastChange = "2022-12-26 09:35:14 +0000";
layers = (
{
hints = (
{
horizontal = 1;
place = (-337, -78);
place = (-337, -78);
type = Stem;
},
{
horizontal = 1;
place = (-123, 21);
target = up;
type = BottomGhost;
},
{
horizontal = 1;
place = (574, -20);
target = down;
type = TopGhost;
},
{
place = (-9, -52);
place = (-9, -52);
type = Stem;
},
{
place = (-82, -80);
place = (-82, -80);
type = Stem;
}
);
layerId = m01;
shapes = (
{
closed = 1;
nodes = (
(43,-142,l),
(22,-159,o),
(0,-169,o),
(-23,-169,cs),
(-47,-169,o),
(-67,-157,o),
(-61,-124,cs),
(-50,-63,o),
(23,-21,o),
(62,0,c),
(185,697,l),
(114,697,l),
(-9,0,l),
(4,0,l),
(-41,-26,o),
(-95,-72,o),
(-105,-130,cs),
(-114,-182,o),
(-80,-214,o),
(-29,-214,cs),
(8,-214,o),
(44,-196,o),
(72,-169,c)
);
}
);
width = 299;
}
);
note = Iogonek;
unicode = 302;
},
{
glyphname = Itilde;
lastChange = "2022-12-26 09:35:14 +0000";
layers = (
{
hints = (
{
horizontal = 1;
place = (-123, 21);
target = up;
type = BottomGhost;
},
{
horizontal = 1;
place = (574, -20);
target = down;
type = TopGhost;
},
{
horizontal = 1;
place = (651, -78);
place = (651, -78);
type = Stem;
},
{
horizontal = 1;
place = (738, -79);
place = (738, -79);
type = Stem;
},
{
place = (-132, -82);
place = (-132, -82);
type = Stem;
},
{
place = (-9, -52);
place = (-9, -52);
type = Stem;
},
{
place = (142, -80);
place = (142, -80);
type = Stem;
}
);
layerId = m01;
shapes = (
{
closed = 1;
nodes = (
(286,774,o),
(330,822,o),
(344,901,c),
(301,901,l),
(292,850,o),
(267,819,o),
(241,819,cs),
(187,819,o),
(196,905,o),
(121,905,cs),
(64,905,o),
(20,860,o),
(6,783,c),
(47,783,l),
(56,832,o),
(80,861,o),
(111,861,cs),
(164,861,o),
(150,774,o),
(233,774,cs)
);
},
{
closed = 1;
nodes = (
(-9,0,l),
(62,0,l),
(185,697,l),
(114,697,l)
);
}
);
width = 299;
}
);
note = Itilde;
unicode = 296;
},
{
glyphname = J;
kernLeft = J;
kernRight = J;
lastChange = "2022-12-26 09:35:14 +0000";
layers = (
{
hints = (
{
horizontal = 1;
place = (-133, -56);
place = (-133, -56);
type = Stem;
},
{
horizontal = 1;
place = (508, -57);
place = (508, -57);
type = Stem;
},
{
place = (-83, -53);
place = (-83, -53);
type = Stem;
},
{
place = (289, -52);
place = (289, -52);
type = Stem;
}
);
layerId = m01;
shapes = (
{
closed = 1;
nodes = (
(-32,206,ls),
(-42,205,o),
(-48,199,o),
(-49,189,cs),
(-56,64,o),
(14,-10,o),
(138,-10,cs),
(278,-10,o),
(375,83,o),
(404,249,cs),
(483,697,l),
(173,697,l),
(124,663,l),
(118,631,l),
(400,631,l),
(334,253,ls),
(311,122,o),
(249,57,o),
(150,57,cs),
(59,57,o),
(14,112,o),
(24,212,c)
);
}
);
width = 584;
}
);
note = J;
unicode = 74;
},
{
glyphname = K;
kernLeft = B;
kernRight = K;
lastChange = "2022-12-26 09:35:14 +0000";
layers = (
{
hints = (
{
horizontal = 1;
place = (-123, 21);
target = up;
type = BottomGhost;
},
{
horizontal = 1;
place = (574, -20);
target = down;
type = TopGhost;
},
{
place = (-9, -52);
place = (-9, -52);
type = Stem;
}
);
layerId = m01;
shapes = (
{
closed = 1;
nodes = (
(480,0,ls),
(490,0,o),
(493,4,o),
(489,13,cs),
(325,408,l),
(660,697,l),
(566,697,l),
(115,301,l),
(185,697,l),
(150,697,l),
(106,650,l),
(-9,0,l),
(62,0,l),
(98,204,l),
(267,358,l),
(413,0,l)
);
}
);
width = 711;
}
);
note = K;
unicode = 75;
},
{
glyphname = uni0136;
kernLeft = B;
kernRight = K;
lastChange = "2022-12-26 09:35:14 +0000";
layers = (
{
hints = (
{
horizontal = 1;
place = (-344, 42);
place = (-344, 42);
type = Stem;
},
{
horizontal = 1;
place = (-123, 21);
target = up;
type = BottomGhost;
},
{
horizontal = 1;
place = (574, -20);
target = down;
type = TopGhost;
},
{
place = (-9, -52);
place = (-9, -52);
type = Stem;
}
);
layerId = m01;
shapes = (
{
closed = 1;
nodes = (
(366,443,l),
(660,697,l),
(566,697,l),
(115,301,l),
(185,697,l),
(114,697,l),
(-9,0,l),
(62,0,l),
(99,211,l),
(308,393,l),
(469,0,l),
(551,0,l)
);
},
{
closed = 1;
nodes = (
(69,-221,l),
(113,-221,l),
(259,-56,l),
(186,-56,l)
);
}
);
width = 711;
}
);
note = uni0136;
unicode = 310;
},
{
glyphname = L;
kernLeft = B;
kernRight = L;
lastChange = "2022-12-26 09:35:14 +0000";
layers = (
{
hints = (
{
horizontal = 1;
place = (-123, -57);
place = (-123, -57);
type = Stem;
},
{
horizontal = 1;
place = (574, -20);
target = down;
type = TopGhost;
},
{
place = (-9, -52);
place = (-9, -52);
type = Stem;
}
);
layerId = m01;
shapes = (
{
closed = 1;
nodes = (
(-9,0,l),
(380,0,l),
(392,66,l),
(74,66,l),
(185,697,l),
(114,697,l)
);
}
);
width = 537;
}
);
note = L;
unicode = 76;
},
{
glyphname = Lacute;
kernLeft = B;
kernRight = L;
lastChange = "2022-12-26 09:35:14 +0000";
layers = (
{
hints = (
{
horizontal = 1;
place = (-123, -57);
place = (-123, -57);
type = Stem;
},
{
horizontal = 1;
place = (574, -20);
target = down;
type = TopGhost;
},
{
horizontal = 1;
place = (637, 18);
place = (637, 18);
type = Stem;
},
{
place = (-9, -52);
place = (-9, -52);
type = Stem;
}
);
layerId = m01;
shapes = (
{
closed = 1;
nodes = (
(135,760,l),
(188,760,l),
(342,901,l),
(268,901,l)
);
},
{
closed = 1;
nodes = (
(-9,0,l),
(380,0,l),
(392,66,l),
(74,66,l),
(185,697,l),
(114,697,l)
);
}
);
width = 537;
}
);
note = Lacute;
unicode = 313;
},
{
glyphname = Lcaron;
kernLeft = B;
kernRight = L;
lastChange = "2022-12-26 09:35:14 +0000";
layers = (
{
hints = (
{
horizontal = 1;
place = (-123, -57);
place = (-123, -57);
type = Stem;
},
{
horizontal = 1;
place = (574, -20);
target = down;
type = TopGhost;
},
{
place = (-9, -52);
place = (-9, -52);
type = Stem;
},
{
horizontal = 1;
place = (366, 85);
place = (366, 85);
type = Stem;
}
);
layerId = m01;
shapes = (
{
closed = 1;
nodes = (
(-9,0,l),
(380,0,l),
(392,66,l),
(74,66,l),
(185,697,l),
(114,697,l)
);
},
{
closed = 1;
nodes = (
(300,489,l),
(342,489,l),
(467,697,l),
(395,697,l)
);
}
);
width = 537;
}
);
note = Lcaron;
unicode = 317;
},
{
glyphname = uni013B;
kernLeft = B;
kernRight = L;
lastChange = "2022-12-26 09:35:14 +0000";
layers = (
{
hints = (
{
horizontal = 1;
place = (-344, 42);
place = (-344, 42);
type = Stem;
},
{
horizontal = 1;
place = (-123, -57);
place = (-123, -57);
type = Stem;
},
{
horizontal = 1;
place = (574, -20);
target = down;
type = TopGhost;
},
{
place = (-9, -52);
place = (-9, -52);
type = Stem;
}
);
layerId = m01;
shapes = (
{
closed = 1;
nodes = (
(-9,0,l),
(380,0,l),
(392,66,l),
(74,66,l),
(185,697,l),
(114,697,l)
);
},
{
closed = 1;
nodes = (
(22,-221,l),
(66,-221,l),
(212,-56,l),
(139,-56,l)
);
}
);
width = 537;
}
);
note = uni013B;
unicode = 315;
},
{
glyphname = Lslash;
lastChange = "2022-12-26 09:35:14 +0000";
layers = (
{
hints = (
{
horizontal = 1;
place = (-123, -57);
place = (-123, -57);
type = Stem;
},
{
horizontal = 1;
place = (574, -20);
target = down;
type = TopGhost;
},
{
place = (-9, -52);
place = (-9, -52);
type = Stem;
}
);
layerId = m01;
shapes = (
{
closed = 1;
nodes = (
(74,66,l),
(116,304,l),
(311,440,l),
(323,511,l),
(128,376,l),
(185,697,l),
(114,697,l),
(48,320,l),
(-12,279,l),
(-24,207,l),
(35,248,l),
(-9,0,l),
(380,0,l),
(392,66,l)
);
}
);
width = 537;
}
);
note = Lslash;
unicode = 321;
},
{
glyphname = M;
kernLeft = B;
kernRight = H;
lastChange = "2022-12-26 09:35:14 +0000";
layers = (
{
hints = (
{
horizontal = 1;
place = (-123, 21);
target = up;
type = BottomGhost;
},
{
horizontal = 1;
place = (574, -20);
target = down;
type = TopGhost;
},
{
place = (-9, -52);
place = (-9, -52);
type = Stem;
},
{
place = (583, -51);
place = (583, -51);
type = Stem;
},
{
horizontal = 1;
place = (481, -30);
place = (481, -30);
type = Stem;
},
{
horizontal = 1;
place = (479, -28);
place = (479, -28);
type = Stem;
}
);
layerId = m01;
shapes = (
{
closed = 1;
nodes = (
(47,0,ls),
(57,0,o),
(63,5,o),
(65,15,cs),
(169,604,l),
(298,58,l),
(368,58,l),
(689,602,l),
(586,15,ls),
(584,5,o),
(588,0,o),
(598,0,cs),
(655,0,l),
(778,697,l),
(674,697,l),
(348,141,l),
(218,697,l),
(114,697,l),
(-9,0,l)
);
}
);
width = 892;
}
);
note = M;
unicode = 77;
},
{
glyphname = N;
kernLeft = B;
kernRight = H;
lastChange = "2022-12-26 09:35:14 +0000";
layers = (
{
hints = (
{
horizontal = 1;
place = (-123, 21);
target = up;
type = BottomGhost;
},
{
horizontal = 1;
place = (574, -20);
target = down;
type = TopGhost;
},
{
place = (-9, -52);
place = (-9, -52);
type = Stem;
},
{
place = (412, -52);
place = (412, -52);
type = Stem;
}
);
layerId = m01;
shapes = (
{
closed = 1;
nodes = (
(535,697,l),
(434,124,l),
(191,697,l),
(114,697,l),
(-9,0,l),
(27,0,l),
(71,50,l),
(164,576,l),
(405,0,l),
(483,0,l),
(606,697,l)
);
}
);
width = 720;
}
);
note = N;
unicode = 78;
},
{
glyphname = Nacute;
kernLeft = B;
kernRight = H;
lastChange = "2022-12-26 09:35:14 +0000";
layers = (
{
hints = (
{
horizontal = 1;
place = (-123, 21);
target = up;
type = BottomGhost;
},
{
horizontal = 1;
place = (574, -20);
target = down;
type = TopGhost;
},
{
horizontal = 1;
place = (637, 18);
place = (637, 18);
type = Stem;
},
{
place = (-9, -52);
place = (-9, -52);
type = Stem;
},
{
place = (412, -52);
place = (412, -52);
type = Stem;
}
);
layerId = m01;
shapes = (
{
closed = 1;
nodes = (
(552,901,l),
(478,901,l),
(345,760,l),
(398,760,l)
);
},
{
closed = 1;
nodes = (
(535,697,l),
(434,124,l),
(191,697,l),
(114,697,l),
(-9,0,l),
(62,0,l),
(164,576,l),
(405,0,l),
(483,0,l),
(606,697,l)
);
}
);
width = 720;
}
);
note = Nacute;
unicode = 323;
},
{
glyphname = Ncaron;
kernLeft = B;
kernRight = H;
lastChange = "2022-12-26 09:35:14 +0000";
layers = (
{
hints = (
{
horizontal = 1;
place = (-123, 21);
target = up;
type = BottomGhost;
},
{
horizontal = 1;
place = (574, -20);
target = down;
type = TopGhost;
},
{
place = (-9, -52);
place = (-9, -52);
type = Stem;
},
{
place = (412, -52);
place = (412, -52);
type = Stem;
}
);
layerId = m01;
shapes = (
{
closed = 1;
nodes = (
(545,901,l),
(488,901,l),
(379,806,l),
(304,901,l),
(247,901,l),
(369,748,l)
);
},
{
closed = 1;
nodes = (
(535,697,l),
(434,124,l),
(191,697,l),
(114,697,l),
(-9,0,l),
(62,0,l),
(164,576,l),
(405,0,l),
(483,0,l),
(606,697,l)
);
}
);
width = 720;
}
);
note = Ncaron;
unicode = 327;
},
{
glyphname = uni0145;
kernLeft = B;
kernRight = H;
lastChange = "2022-12-26 09:35:14 +0000";
layers = (
{
hints = (
{
horizontal = 1;
place = (-344, 42);
place = (-344, 42);
type = Stem;
},
{
horizontal = 1;
place = (-123, 21);
target = up;
type = BottomGhost;
},
{
horizontal = 1;
place = (574, -20);
target = down;
type = TopGhost;
},
{
place = (-9, -52);
place = (-9, -52);
type = Stem;
},
{
place = (412, -52);
place = (412, -52);
type = Stem;
}
);
layerId = m01;
shapes = (
{
closed = 1;
nodes = (
(535,697,l),
(434,124,l),
(191,697,l),
(114,697,l),
(-9,0,l),
(62,0,l),
(164,576,l),
(405,0,l),
(483,0,l),
(606,697,l)
);
},
{
closed = 1;
nodes = (
(73,-221,l),
(117,-221,l),
(263,-56,l),
(190,-56,l)
);
}
);
width = 720;
}
);
note = uni0145;
unicode = 325;
},
{
glyphname = Eng;
kernLeft = B;
kernRight = H;
lastChange = "2022-12-26 09:35:14 +0000";
layers = (
{
hints = (
{
horizontal = 1;
place = (-294, -74);
place = (-294, -74);
type = Stem;
},
{
horizontal = 1;
place = (-123, 21);
target = up;
type = BottomGhost;
},
{
horizontal = 1;
place = (574, -20);
target = down;
type = TopGhost;
},
{
place = (-9, -52);
place = (-9, -52);
type = Stem;
},
{
place = (412, -52);
place = (412, -52);
type = Stem;
},
{
place = (415, -55);
place = (415, -55);
type = Stem;
}
);
layerId = m01;
shapes = (
{
closed = 1;
nodes = (
(535,697,l),
(434,123,l),
(191,697,l),
(114,697,l),
(-9,0,l),
(62,0,l),
(163,575,l),
(405,0,ls),
(409,-10,o),
(411,-24,o),
(409,-37,cs),
(401,-81,o),
(367,-122,o),
(299,-122,cs),
(286,-122,o),
(265,-119,o),
(248,-113,c),
(238,-160,l),
(261,-167,o),
(287,-171,o),
(307,-171,cs),
(412,-171,o),
(465,-100,o),
(481,-13,cs),
(606,697,l)
);
}
);
width = 720;
}
);
note = Eng;
unicode = 330;
},
{
glyphname = Ntilde;
kernLeft = B;
kernRight = H;
lastChange = "2022-12-26 09:35:14 +0000";
layers = (
{
hints = (
{
horizontal = 1;
place = (-123, 21);
target = up;
type = BottomGhost;
},
{
horizontal = 1;
place = (574, -20);
target = down;
type = TopGhost;
},
{
horizontal = 1;
place = (651, -78);
place = (651, -78);
type = Stem;
},
{
horizontal = 1;
place = (738, -79);
place = (738, -79);
type = Stem;
},
{
place = (-9, -52);
place = (-9, -52);
type = Stem;
},
{
place = (78, -82);
place = (78, -82);
type = Stem;
},
{
place = (352, -80);
place = (352, -80);
type = Stem;
},
{
place = (412, -52);
place = (412, -52);
type = Stem;
}
);
layerId = m01;
shapes = (
{
closed = 1;
nodes = (
(374,861,o),
(360,774,o),
(443,774,cs),
(496,774,o),
(540,822,o),
(554,901,c),
(511,901,l),
(502,850,o),
(477,819,o),
(451,819,cs),
(397,819,o),
(406,905,o),
(331,905,cs),
(274,905,o),
(230,860,o),
(216,783,c),
(257,783,l),
(266,832,o),
(290,861,o),
(321,861,cs)
);
},
{
closed = 1;
nodes = (
(535,697,l),
(434,124,l),
(191,697,l),
(114,697,l),
(-9,0,l),
(62,0,l),
(164,576,l),
(405,0,l),
(483,0,l),
(606,697,l)
);
}
);
width = 720;
}
);
note = Ntilde;
unicode = 209;
},
{
glyphname = O;
kernLeft = C;
kernRight = D;
lastChange = "2022-12-26 09:35:14 +0000";
layers = (
{
hints = (
{
horizontal = 1;
place = (-133, -55);
place = (-133, -55);
type = Stem;
},
{
horizontal = 1;
place = (516, -55);
place = (516, -55);
type = Stem;
},
{
place = (-56, -52);
place = (-56, -52);
type = Stem;
},
{
place = (511, -52);
place = (511, -52);
type = Stem;
}
);
layerId = m01;
shapes = (
{
closed = 1;
nodes = (
(452,-10,o),
(606,133,o),
(643,348,cs),
(682,564,o),
(579,707,o),
(388,707,cs),
(197,707,o),
(44,564,o),
(5,348,cs),
(-32,133,o),
(70,-10,o),
(261,-10,cs)
);
},
{
closed = 1;
nodes = (
(119,38,o),
(45,171,o),
(76,348,cs),
(108,526,o),
(228,658,o),
(379,658,cs),
(530,658,o),
(604,526,o),
(572,348,cs),
(541,171,o),
(421,38,o),
(270,38,cs)
);
}
);
width = 772;
}
);
note = O;
unicode = 79;
},
{
glyphname = Oacute;
kernLeft = C;
kernRight = D;
lastChange = "2022-12-26 09:35:14 +0000";
layers = (
{
hints = (
{
horizontal = 1;
place = (-133, -55);
place = (-133, -55);
type = Stem;
},
{
horizontal = 1;
place = (516, -55);
place = (516, -55);
type = Stem;
},
{
horizontal = 1;
place = (637, 18);
place = (637, 18);
type = Stem;
},
{
place = (-56, -52);
place = (-56, -52);
type = Stem;
},
{
place = (511, -52);
place = (511, -52);
type = Stem;
}
);
layerId = m01;
shapes = (
{
closed = 1;
nodes = (
(371,760,l),
(424,760,l),
(578,901,l),
(504,901,l)
);
},
{
closed = 1;
nodes = (
(452,-10,o),
(606,133,o),
(643,348,cs),
(682,564,o),
(579,707,o),
(388,707,cs),
(197,707,o),
(44,564,o),
(5,348,cs),
(-32,133,o),
(70,-10,o),
(261,-10,cs)
);
},
{
closed = 1;
nodes = (
(122,58,o),
(45,171,o),
(76,348,cs),
(108,526,o),
(225,639,o),
(376,639,cs),
(527,639,o),
(604,526,o),
(572,348,cs),
(541,171,o),
(424,58,o),
(273,58,cs)
);
}
);
width = 772;
}
);
note = Oacute;
unicode = 211;
},
{
glyphname = uni01D1;
kernLeft = C;
kernRight = D;
lastChange = "2022-12-26 09:35:14 +0000";
layers = (
{
hints = (
{
horizontal = 1;
place = (-133, -55);
place = (-133, -55);
type = Stem;
},
{
horizontal = 1;
place = (516, -55);
place = (516, -55);
type = Stem;
},
{
place = (-56, -52);
place = (-56, -52);
type = Stem;
},
{
place = (511, -52);
place = (511, -52);
type = Stem;
}
);
layerId = m01;
shapes = (
{
closed = 1;
nodes = (
(395,748,l),
(571,901,l),
(514,901,l),
(405,806,l),
(330,901,l),
(273,901,l)
);
},
{
closed = 1;
nodes = (
(452,-10,o),
(606,133,o),
(643,348,cs),
(682,564,o),
(579,707,o),
(388,707,cs),
(197,707,o),
(44,564,o),
(5,348,cs),
(-32,133,o),
(70,-10,o),
(261,-10,cs)
);
},
{
closed = 1;
nodes = (
(122,58,o),
(45,171,o),
(76,348,cs),
(108,526,o),
(225,639,o),
(376,639,cs),
(527,639,o),
(604,526,o),
(572,348,cs),
(541,171,o),
(424,58,o),
(273,58,cs)
);
}
);
width = 772;
}
);
note = uni01D1;
unicode = 465;
},
{
glyphname = Ocircumflex;
kernLeft = C;
kernRight = D;
lastChange = "2022-12-26 09:35:14 +0000";
layers = (
{
hints = (
{
horizontal = 1;
place = (-133, -55);
place = (-133, -55);
type = Stem;
},
{
horizontal = 1;
place = (516, -55);
place = (516, -55);
type = Stem;
},
{
place = (-56, -52);
place = (-56, -52);
type = Stem;
},
{
place = (511, -52);
place = (511, -52);
type = Stem;
}
);
layerId = m01;
shapes = (
{
closed = 1;
nodes = (
(247,752,l),
(305,752,l),
(413,850,l),
(488,752,l),
(545,752,l),
(424,911,l)
);
},
{
closed = 1;
nodes = (
(452,-10,o),
(606,133,o),
(643,348,cs),
(682,564,o),
(579,707,o),
(388,707,cs),
(197,707,o),
(44,564,o),
(5,348,cs),
(-32,133,o),
(70,-10,o),
(261,-10,cs)
);
},
{
closed = 1;
nodes = (
(122,58,o),
(45,171,o),
(76,348,cs),
(108,526,o),
(225,639,o),
(376,639,cs),
(527,639,o),
(604,526,o),
(572,348,cs),
(541,171,o),
(424,58,o),
(273,58,cs)
);
}
);
width = 772;
}
);
note = Ocircumflex;
unicode = 212;
},
{
glyphname = uni1ED0;
kernLeft = C;
kernRight = D;
lastChange = "2022-12-26 09:35:14 +0000";
layers = (
{
hints = (
{
horizontal = 1;
place = (-133, -55);
place = (-133, -55);
type = Stem;
},
{
horizontal = 1;
place = (516, -55);
place = (516, -55);
type = Stem;
},
{
horizontal = 1;
place = (826, 18);
place = (826, 18);
type = Stem;
},
{
place = (-56, -52);
place = (-56, -52);
type = Stem;
},
{
place = (511, -52);
place = (511, -52);
type = Stem;
}
);
layerId = m01;
shapes = (
{
closed = 1;
nodes = (
(404,949,l),
(457,949,l),
(611,1090,l),
(537,1090,l)
);
},
{
closed = 1;
nodes = (
(247,752,l),
(305,752,l),
(413,850,l),
(488,752,l),
(545,752,l),
(424,911,l)
);
},
{
closed = 1;
nodes = (
(452,-10,o),
(606,133,o),
(643,348,cs),
(682,564,o),
(579,707,o),
(388,707,cs),
(197,707,o),
(44,564,o),
(5,348,cs),
(-32,133,o),
(70,-10,o),
(261,-10,cs)
);
},
{
closed = 1;
nodes = (
(122,58,o),
(45,171,o),
(76,348,cs),
(108,526,o),
(225,639,o),
(376,639,cs),
(527,639,o),
(604,526,o),
(572,348,cs),
(541,171,o),
(424,58,o),
(273,58,cs)
);
}
);
width = 772;
}
);
note = uni1ED0;
unicode = 7888;
},
{
glyphname = uni1ED8;
kernLeft = C;
kernRight = D;
lastChange = "2022-12-26 09:35:14 +0000";
layers = (
{
hints = (
{
horizontal = 1;
place = (-296, -22);
place = (-296, -22);
type = Stem;
},
{
horizontal = 1;
place = (-133, -55);
place = (-133, -55);
type = Stem;
},
{
horizontal = 1;
place = (516, -55);
place = (516, -55);
type = Stem;
},
{
place = (-56, -52);
place = (-56, -52);
type = Stem;
},
{
place = (223, -43);
place = (223, -43);
type = Stem;
},
{
place = (511, -52);
place = (511, -52);
type = Stem;
}
);
layerId = m01;
shapes = (
{
closed = 1;
nodes = (
(247,752,l),
(305,752,l),
(413,850,l),
(488,752,l),
(545,752,l),
(424,911,l)
);
},
{
closed = 1;
nodes = (
(452,-10,o),
(606,133,o),
(643,348,cs),
(682,564,o),
(579,707,o),
(388,707,cs),
(197,707,o),
(44,564,o),
(5,348,cs),
(-32,133,o),
(70,-10,o),
(261,-10,cs)
);
},
{
closed = 1;
nodes = (
(122,58,o),
(45,171,o),
(76,348,cs),
(108,526,o),
(225,639,o),
(376,639,cs),
(527,639,o),
(604,526,o),
(572,348,cs),
(541,171,o),
(424,58,o),
(273,58,cs)
);
},
{
closed = 1;
nodes = (
(193,-173,l),
(273,-173,l),
(290,-72,l),
(210,-72,l)
);
}
);
width = 772;
}
);
note = uni1ED8;
unicode = 7896;
},
{
glyphname = uni1ED2;
kernLeft = C;
kernRight = D;
lastChange = "2022-12-26 09:35:14 +0000";
layers = (
{
hints = (
{
horizontal = 1;
place = (-133, -55);
place = (-133, -55);
type = Stem;
},
{
horizontal = 1;
place = (516, -55);
place = (516, -55);
type = Stem;
},
{
horizontal = 1;
place = (826, 18);
place = (826, 18);
type = Stem;
},
{
place = (-56, -52);
place = (-56, -52);
type = Stem;
},
{
place = (511, -52);
place = (511, -52);
type = Stem;
}
);
layerId = m01;
shapes = (
{
closed = 1;
nodes = (
(403,949,l),
(457,949,l),
(378,1090,l),
(304,1090,l)
);
},
{
closed = 1;
nodes = (
(247,752,l),
(305,752,l),
(413,850,l),
(488,752,l),
(545,752,l),
(424,911,l)
);
},
{
closed = 1;
nodes = (
(452,-10,o),
(606,133,o),
(643,348,cs),
(682,564,o),
(579,707,o),
(388,707,cs),
(197,707,o),
(44,564,o),
(5,348,cs),
(-32,133,o),
(70,-10,o),
(261,-10,cs)
);
},
{
closed = 1;
nodes = (
(122,58,o),
(45,171,o),
(76,348,cs),
(108,526,o),
(225,639,o),
(376,639,cs),
(527,639,o),
(604,526,o),
(572,348,cs),
(541,171,o),
(424,58,o),
(273,58,cs)
);
}
);
width = 772;
}
);
note = uni1ED2;
unicode = 7890;
},
{
glyphname = uni1ED4;
kernLeft = C;
kernRight = D;
lastChange = "2022-12-26 09:35:14 +0000";
layers = (
{
hints = (
{
horizontal = 1;
place = (-133, -55);
place = (-133, -55);
type = Stem;
},
{
horizontal = 1;
place = (516, -55);
place = (516, -55);
type = Stem;
},
{
horizontal = 1;
place = (948, -83);
place = (948, -83);
type = Stem;
},
{
place = (-56, -52);
place = (-56, -52);
type = Stem;
},
{
place = (325, -76);
place = (325, -76);
type = Stem;
},
{
place = (511, -52);
place = (511, -52);
type = Stem;
}
);
layerId = m01;
shapes = (
{
closed = 1;
nodes = (
(420,925,l),
(471,935,o),
(539,946,o),
(551,1013,cs),
(562,1077,o),
(509,1111,o),
(429,1111,cs),
(414,1111,l),
(407,1071,l),
(422,1071,ls),
(469,1071,o),
(511,1056,o),
(504,1015,cs),
(498,978,o),
(454,970,o),
(415,964,c)
);
},
{
closed = 1;
nodes = (
(247,752,l),
(305,752,l),
(413,850,l),
(488,752,l),
(545,752,l),
(424,911,l)
);
},
{
closed = 1;
nodes = (
(452,-10,o),
(606,133,o),
(643,348,cs),
(682,564,o),
(579,707,o),
(388,707,cs),
(197,707,o),
(44,564,o),
(5,348,cs),
(-32,133,o),
(70,-10,o),
(261,-10,cs)
);
},
{
closed = 1;
nodes = (
(122,58,o),
(45,171,o),
(76,348,cs),
(108,526,o),
(225,639,o),
(376,639,cs),
(527,639,o),
(604,526,o),
(572,348,cs),
(541,171,o),
(424,58,o),
(273,58,cs)
);
}
);
width = 772;
}
);
note = uni1ED4;
unicode = 7892;
},
{
glyphname = uni1ED6;
kernLeft = C;
kernRight = D;
lastChange = "2022-12-26 09:35:14 +0000";
layers = (
{
hints = (
{
horizontal = 1;
place = (-133, -55);
place = (-133, -55);
type = Stem;
},
{
horizontal = 1;
place = (516, -55);
place = (516, -55);
type = Stem;
},
{
horizontal = 1;
place = (840, -78);
place = (840, -78);
type = Stem;
},
{
horizontal = 1;
place = (927, -79);
place = (927, -79);
type = Stem;
},
{
place = (-56, -52);
place = (-56, -52);
type = Stem;
},
{
place = (104, -82);
place = (104, -82);
type = Stem;
},
{
place = (378, -80);
place = (378, -80);
type = Stem;
},
{
place = (511, -52);
place = (511, -52);
type = Stem;
}
);
layerId = m01;
shapes = (
{
closed = 1;
nodes = (
(555,963,o),
(599,1011,o),
(613,1090,c),
(570,1090,l),
(561,1039,o),
(536,1008,o),
(510,1008,cs),
(456,1008,o),
(465,1094,o),
(390,1094,cs),
(333,1094,o),
(289,1049,o),
(275,972,c),
(316,972,l),
(325,1021,o),
(349,1050,o),
(380,1050,cs),
(433,1050,o),
(419,963,o),
(502,963,cs)
);
},
{
closed = 1;
nodes = (
(247,752,l),
(305,752,l),
(413,850,l),
(488,752,l),
(545,752,l),
(424,911,l)
);
},
{
closed = 1;
nodes = (
(452,-10,o),
(606,133,o),
(643,348,cs),
(682,564,o),
(579,707,o),
(388,707,cs),
(197,707,o),
(44,564,o),
(5,348,cs),
(-32,133,o),
(70,-10,o),
(261,-10,cs)
);
},
{
closed = 1;
nodes = (
(122,58,o),
(45,171,o),
(76,348,cs),
(108,526,o),
(225,639,o),
(376,639,cs),
(527,639,o),
(604,526,o),
(572,348,cs),
(541,171,o),
(424,58,o),
(273,58,cs)
);
}
);
width = 772;
}
);
note = uni1ED6;
unicode = 7894;
},
{
glyphname = Odieresis;
kernLeft = C;
kernRight = D;
lastChange = "2022-12-26 09:35:14 +0000";
layers = (
{
hints = (
{
horizontal = 1;
place = (-133, -55);
place = (-133, -55);
type = Stem;
},
{
horizontal = 1;
place = (516, -55);
place = (516, -55);
type = Stem;
},
{
horizontal = 1;
place = (676, -21);
place = (676, -21);
type = Stem;
},
{
place = (-56, -52);
place = (-56, -52);
type = Stem;
},
{
place = (133, -43);
place = (133, -43);
type = Stem;
},
{
place = (313, -43);
place = (313, -43);
type = Stem;
},
{
place = (511, -52);
place = (511, -52);
type = Stem;
}
);
layerId = m01;
shapes = (
{
closed = 1;
nodes = (
(274,799,l),
(354,799,l),
(372,901,l),
(292,901,l)
);
},
{
closed = 1;
nodes = (
(454,799,l),
(534,799,l),
(552,901,l),
(472,901,l)
);
},
{
closed = 1;
nodes = (
(452,-10,o),
(606,133,o),
(643,348,cs),
(682,564,o),
(579,707,o),
(388,707,cs),
(197,707,o),
(44,564,o),
(5,348,cs),
(-32,133,o),
(70,-10,o),
(261,-10,cs)
);
},
{
closed = 1;
nodes = (
(122,58,o),
(45,171,o),
(76,348,cs),
(108,526,o),
(225,639,o),
(376,639,cs),
(527,639,o),
(604,526,o),
(572,348,cs),
(541,171,o),
(424,58,o),
(273,58,cs)
);
}
);
width = 772;
}
);
note = Odieresis;
unicode = 214;
},
{
glyphname = uni1ECC;
kernLeft = C;
kernRight = D;
lastChange = "2022-12-26 09:35:14 +0000";
layers = (
{
hints = (
{
horizontal = 1;
place = (-296, -22);
place = (-296, -22);
type = Stem;
},
{
horizontal = 1;
place = (-133, -55);
place = (-133, -55);
type = Stem;
},
{
horizontal = 1;
place = (516, -55);
place = (516, -55);
type = Stem;
},
{
place = (-56, -52);
place = (-56, -52);
type = Stem;
},
{
place = (223, -43);
place = (223, -43);
type = Stem;
},
{
place = (511, -52);
place = (511, -52);
type = Stem;
}
);
layerId = m01;
shapes = (
{
closed = 1;
nodes = (
(452,-10,o),
(606,133,o),
(643,348,cs),
(682,564,o),
(579,707,o),
(388,707,cs),
(197,707,o),
(44,564,o),
(5,348,cs),
(-32,133,o),
(70,-10,o),
(261,-10,cs)
);
},
{
closed = 1;
nodes = (
(122,58,o),
(45,171,o),
(76,348,cs),
(108,526,o),
(225,639,o),
(376,639,cs),
(527,639,o),
(604,526,o),
(572,348,cs),
(541,171,o),
(424,58,o),
(273,58,cs)
);
},
{
closed = 1;
nodes = (
(193,-173,l),
(273,-173,l),
(290,-72,l),
(210,-72,l)
);
}
);
width = 772;
}
);
note = uni1ECC;
unicode = 7884;
},
{
glyphname = Ograve;
kernLeft = C;
kernRight = D;
lastChange = "2022-12-26 09:35:14 +0000";
layers = (
{
hints = (
{
horizontal = 1;
place = (-133, -55);
place = (-133, -55);
type = Stem;
},
{
horizontal = 1;
place = (516, -55);
place = (516, -55);
type = Stem;
},
{
horizontal = 1;
place = (637, 18);
place = (637, 18);
type = Stem;
},
{
place = (-56, -52);
place = (-56, -52);
type = Stem;
},
{
place = (511, -52);
place = (511, -52);
type = Stem;
}
);
layerId = m01;
shapes = (
{
closed = 1;
nodes = (
(370,760,l),
(424,760,l),
(345,901,l),
(271,901,l)
);
},
{
closed = 1;
nodes = (
(452,-10,o),
(606,133,o),
(643,348,cs),
(682,564,o),
(579,707,o),
(388,707,cs),
(197,707,o),
(44,564,o),
(5,348,cs),
(-32,133,o),
(70,-10,o),
(261,-10,cs)
);
},
{
closed = 1;
nodes = (
(122,58,o),
(45,171,o),
(76,348,cs),
(108,526,o),
(225,639,o),
(376,639,cs),
(527,639,o),
(604,526,o),
(572,348,cs),
(541,171,o),
(424,58,o),
(273,58,cs)
);
}
);
width = 772;
}
);
note = Ograve;
unicode = 210;
},
{
glyphname = uni1ECE;
kernLeft = C;
kernRight = D;
lastChange = "2022-12-26 09:35:14 +0000";
layers = (
{
hints = (
{
horizontal = 1;
place = (-133, -55);
place = (-133, -55);
type = Stem;
},
{
horizontal = 1;
place = (516, -55);
place = (516, -55);
type = Stem;
},
{
horizontal = 1;
place = (759, -83);
place = (759, -83);
type = Stem;
},
{
place = (-56, -52);
place = (-56, -52);
type = Stem;
},
{
place = (325, -76);
place = (325, -76);
type = Stem;
},
{
place = (511, -52);
place = (511, -52);
type = Stem;
}
);
layerId = m01;
shapes = (
{
closed = 1;
nodes = (
(387,736,l),
(438,746,o),
(506,757,o),
(517,824,cs),
(529,888,o),
(476,922,o),
(396,922,cs),
(381,922,l),
(374,882,l),
(389,882,ls),
(436,882,o),
(478,867,o),
(471,826,cs),
(464,789,o),
(421,781,o),
(382,775,c)
);
},
{
closed = 1;
nodes = (
(452,-10,o),
(606,133,o),
(643,348,cs),
(682,564,o),
(579,707,o),
(388,707,cs),
(197,707,o),
(44,564,o),
(5,348,cs),
(-32,133,o),
(70,-10,o),
(261,-10,cs)
);
},
{
closed = 1;
nodes = (
(122,58,o),
(45,171,o),
(76,348,cs),
(108,526,o),
(225,639,o),
(376,639,cs),
(527,639,o),
(604,526,o),
(572,348,cs),
(541,171,o),
(424,58,o),
(273,58,cs)
);
}
);
width = 772;
}
);
note = uni1ECE;
unicode = 7886;
},
{
glyphname = Ohorn;
kernLeft = C;
kernRight = D;
lastChange = "2022-12-26 09:35:14 +0000";
layers = (
{
hints = (
{
horizontal = 1;
place = (-133, -55);
place = (-133, -55);
type = Stem;
},
{
horizontal = 1;
place = (378, -20);
target = down;
type = TopGhost;
},
{
horizontal = 1;
place = (574, -20);
target = down;
type = TopGhost;
},
{
place = (-56, -52);
place = (-56, -52);
type = Stem;
},
{
place = (511, -52);
place = (511, -52);
type = Stem;
},
{
place = (601, -70);
place = (601, -70);
type = Stem;
},
{
horizontal = 1;
place = (516, -55);
place = (516, -55);
type = Stem;
}
);
layerId = m01;
shapes = (
{
closed = 1;
nodes = (
(724,697,l),
(715,644,ls),
(706,594,o),
(682,555,o),
(633,546,c),
(598,647,o),
(512,707,o),
(388,707,cs),
(197,707,o),
(44,564,o),
(5,348,cs),
(-32,133,o),
(70,-10,o),
(261,-10,cs),
(452,-10,o),
(606,133,o),
(643,348,cs),
(653,404,o),
(654,456,o),
(645,501,c),
(716,517,o),
(755,572,o),
(769,649,cs),
(777,697,l)
);
},
{
closed = 1;
nodes = (
(122,58,o),
(45,171,o),
(76,348,cs),
(108,526,o),
(225,639,o),
(376,639,cs),
(527,639,o),
(604,526,o),
(572,348,cs),
(541,171,o),
(424,58,o),
(273,58,cs)
);
}
);
width = 772;
}
);
note = Ohorn;
unicode = 416;
},
{
glyphname = uni1EDA;
kernLeft = C;
kernRight = D;
lastChange = "2022-12-26 09:35:14 +0000";
layers = (
{
hints = (
{
horizontal = 1;
place = (-133, -55);
place = (-133, -55);
type = Stem;
},
{
horizontal = 1;
place = (378, -20);
target = down;
type = TopGhost;
},
{
horizontal = 1;
place = (516, -55);
place = (516, -55);
type = Stem;
},
{
horizontal = 1;
place = (637, 18);
place = (637, 18);
type = Stem;
},
{
place = (-56, -52);
place = (-56, -52);
type = Stem;
},
{
place = (511, -52);
place = (511, -52);
type = Stem;
},
{
horizontal = 1;
place = (574, -20);
target = down;
type = TopGhost;
},
{
place = (601, -70);
place = (601, -70);
type = Stem;
}
);
layerId = m01;
shapes = (
{
closed = 1;
nodes = (
(578,901,l),
(504,901,l),
(371,760,l),
(424,760,l)
);
},
{
closed = 1;
nodes = (
(724,697,l),
(715,644,ls),
(706,594,o),
(682,555,o),
(633,546,c),
(598,647,o),
(512,707,o),
(388,707,cs),
(197,707,o),
(44,564,o),
(5,348,cs),
(-32,133,o),
(70,-10,o),
(261,-10,cs),
(452,-10,o),
(606,133,o),
(643,348,cs),
(653,404,o),
(654,456,o),
(645,501,c),
(716,517,o),
(755,572,o),
(769,649,cs),
(777,697,l)
);
},
{
closed = 1;
nodes = (
(122,58,o),
(45,171,o),
(76,348,cs),
(108,526,o),
(225,639,o),
(376,639,cs),
(527,639,o),
(604,526,o),
(572,348,cs),
(541,171,o),
(424,58,o),
(273,58,cs)
);
}
);
width = 772;
}
);
note = uni1EDA;
unicode = 7898;
},
{
glyphname = uni1EE2;
kernLeft = C;
kernRight = D;
lastChange = "2022-12-26 09:35:14 +0000";
layers = (
{
hints = (
{
horizontal = 1;
place = (-296, -22);
place = (-296, -22);
type = Stem;
},
{
horizontal = 1;
place = (-133, -55);
place = (-133, -55);
type = Stem;
},
{
horizontal = 1;
place = (378, -20);
target = down;
type = TopGhost;
},
{
horizontal = 1;
place = (574, -20);
target = down;
type = TopGhost;
},
{
place = (-56, -52);
place = (-56, -52);
type = Stem;
},
{
place = (223, -43);
place = (223, -43);
type = Stem;
},
{
place = (511, -52);
place = (511, -52);
type = Stem;
},
{
place = (601, -70);
place = (601, -70);
type = Stem;
},
{
horizontal = 1;
place = (516, -55);
place = (516, -55);
type = Stem;
}
);
layerId = m01;
shapes = (
{
closed = 1;
nodes = (
(724,697,l),
(715,644,ls),
(706,594,o),
(682,555,o),
(633,546,c),
(598,647,o),
(512,707,o),
(388,707,cs),
(197,707,o),
(44,564,o),
(5,348,cs),
(-32,133,o),
(70,-10,o),
(261,-10,cs),
(452,-10,o),
(606,133,o),
(643,348,cs),
(653,404,o),
(654,456,o),
(645,501,c),
(716,517,o),
(755,572,o),
(769,649,cs),
(777,697,l)
);
},
{
closed = 1;
nodes = (
(122,58,o),
(45,171,o),
(76,348,cs),
(108,526,o),
(225,639,o),
(376,639,cs),
(527,639,o),
(604,526,o),
(572,348,cs),
(541,171,o),
(424,58,o),
(273,58,cs)
);
},
{
closed = 1;
nodes = (
(193,-173,l),
(273,-173,l),
(290,-72,l),
(210,-72,l)
);
}
);
width = 772;
}
);
note = uni1EE2;
unicode = 7906;
},
{
glyphname = uni1EDC;
kernLeft = C;
kernRight = D;
lastChange = "2022-12-26 09:35:14 +0000";
layers = (
{
hints = (
{
horizontal = 1;
place = (-133, -55);
place = (-133, -55);
type = Stem;
},
{
horizontal = 1;
place = (378, -20);
target = down;
type = TopGhost;
},
{
horizontal = 1;
place = (516, -55);
place = (516, -55);
type = Stem;
},
{
horizontal = 1;
place = (637, 18);
place = (637, 18);
type = Stem;
},
{
place = (-56, -52);
place = (-56, -52);
type = Stem;
},
{
place = (511, -52);
place = (511, -52);
type = Stem;
},
{
horizontal = 1;
place = (574, -20);
target = down;
type = TopGhost;
},
{
place = (601, -70);
place = (601, -70);
type = Stem;
}
);
layerId = m01;
shapes = (
{
closed = 1;
nodes = (
(424,760,l),
(345,901,l),
(271,901,l),
(370,760,l)
);
},
{
closed = 1;
nodes = (
(724,697,l),
(715,644,ls),
(706,594,o),
(682,555,o),
(633,546,c),
(598,647,o),
(512,707,o),
(388,707,cs),
(197,707,o),
(44,564,o),
(5,348,cs),
(-32,133,o),
(70,-10,o),
(261,-10,cs),
(452,-10,o),
(606,133,o),
(643,348,cs),
(653,404,o),
(654,456,o),
(645,501,c),
(716,517,o),
(755,572,o),
(769,649,cs),
(777,697,l)
);
},
{
closed = 1;
nodes = (
(122,58,o),
(45,171,o),
(76,348,cs),
(108,526,o),
(225,639,o),
(376,639,cs),
(527,639,o),
(604,526,o),
(572,348,cs),
(541,171,o),
(424,58,o),
(273,58,cs)
);
}
);
width = 772;
}
);
note = uni1EDC;
unicode = 7900;
},
{
glyphname = uni1EDE;
kernLeft = C;
kernRight = D;
lastChange = "2022-12-26 09:35:14 +0000";
layers = (
{
hints = (
{
horizontal = 1;
place = (-133, -55);
place = (-133, -55);
type = Stem;
},
{
horizontal = 1;
place = (378, -20);
target = down;
type = TopGhost;
},
{
horizontal = 1;
place = (516, -55);
place = (516, -55);
type = Stem;
},
{
horizontal = 1;
place = (759, -83);
place = (759, -83);
type = Stem;
},
{
place = (-56, -52);
place = (-56, -52);
type = Stem;
},
{
place = (325, -76);
place = (325, -76);
type = Stem;
},
{
place = (511, -52);
place = (511, -52);
type = Stem;
},
{
horizontal = 1;
place = (574, -20);
target = down;
type = TopGhost;
},
{
place = (601, -70);
place = (601, -70);
type = Stem;
}
);
layerId = m01;
shapes = (
{
closed = 1;
nodes = (
(464,789,o),
(421,781,o),
(382,775,c),
(387,736,l),
(438,746,o),
(506,757,o),
(517,824,cs),
(529,888,o),
(476,922,o),
(396,922,cs),
(381,922,l),
(374,882,l),
(389,882,ls),
(436,882,o),
(478,867,o),
(471,826,cs)
);
},
{
closed = 1;
nodes = (
(724,697,l),
(715,644,ls),
(706,594,o),
(682,555,o),
(633,546,c),
(598,647,o),
(512,707,o),
(388,707,cs),
(197,707,o),
(44,564,o),
(5,348,cs),
(-32,133,o),
(70,-10,o),
(261,-10,cs),
(452,-10,o),
(606,133,o),
(643,348,cs),
(653,404,o),
(654,456,o),
(645,501,c),
(716,517,o),
(755,572,o),
(769,649,cs),
(777,697,l)
);
},
{
closed = 1;
nodes = (
(122,58,o),
(45,171,o),
(76,348,cs),
(108,526,o),
(225,639,o),
(376,639,cs),
(527,639,o),
(604,526,o),
(572,348,cs),
(541,171,o),
(424,58,o),
(273,58,cs)
);
}
);
width = 772;
}
);
note = uni1EDE;
unicode = 7902;
},
{
glyphname = uni1EE0;
kernLeft = C;
kernRight = D;
lastChange = "2022-12-26 09:35:14 +0000";
layers = (
{
hints = (
{
horizontal = 1;
place = (-133, -55);
place = (-133, -55);
type = Stem;
},
{
horizontal = 1;
place = (378, -20);
target = down;
type = TopGhost;
},
{
horizontal = 1;
place = (516, -55);
place = (516, -55);
type = Stem;
},
{
horizontal = 1;
place = (651, -78);
place = (651, -78);
type = Stem;
},
{
horizontal = 1;
place = (738, -79);
place = (738, -79);
type = Stem;
},
{
place = (-56, -52);
place = (-56, -52);
type = Stem;
},
{
place = (104, -82);
place = (104, -82);
type = Stem;
},
{
place = (378, -80);
place = (378, -80);
type = Stem;
},
{
place = (511, -52);
place = (511, -52);
type = Stem;
},
{
horizontal = 1;
place = (574, -20);
target = down;
type = TopGhost;
},
{
place = (601, -70);
place = (601, -70);
type = Stem;
}
);
layerId = m01;
shapes = (
{
closed = 1;
nodes = (
(400,861,o),
(386,774,o),
(469,774,cs),
(522,774,o),
(566,822,o),
(580,901,c),
(537,901,l),
(528,850,o),
(503,819,o),
(477,819,cs),
(423,819,o),
(432,905,o),
(357,905,cs),
(300,905,o),
(256,860,o),
(242,783,c),
(283,783,l),
(292,832,o),
(316,861,o),
(347,861,cs)
);
},
{
closed = 1;
nodes = (
(724,697,l),
(715,644,ls),
(706,594,o),
(682,555,o),
(633,546,c),
(598,647,o),
(512,707,o),
(388,707,cs),
(197,707,o),
(44,564,o),
(5,348,cs),
(-32,133,o),
(70,-10,o),
(261,-10,cs),
(452,-10,o),
(606,133,o),
(643,348,cs),
(653,404,o),
(654,456,o),
(645,501,c),
(716,517,o),
(755,572,o),
(769,649,cs),
(777,697,l)
);
},
{
closed = 1;
nodes = (
(122,58,o),
(45,171,o),
(76,348,cs),
(108,526,o),
(225,639,o),
(376,639,cs),
(527,639,o),
(604,526,o),
(572,348,cs),
(541,171,o),
(424,58,o),
(273,58,cs)
);
}
);
width = 772;
}
);
note = uni1EE0;
unicode = 7904;
},
{
glyphname = Ohungarumlaut;
kernLeft = C;
kernRight = D;
lastChange = "2022-12-26 09:35:14 +0000";
layers = (
{
hints = (
{
horizontal = 1;
place = (-133, -55);
place = (-133, -55);
type = Stem;
},
{
horizontal = 1;
place = (516, -55);
place = (516, -55);
type = Stem;
},
{
horizontal = 1;
place = (626, 29);
place = (626, 29);
type = Stem;
},
{
place = (-56, -52);
place = (-56, -52);
type = Stem;
},
{
place = (511, -52);
place = (511, -52);
type = Stem;
}
);
layerId = m01;
shapes = (
{
closed = 1;
nodes = (
(283,749,l),
(336,749,l),
(481,901,l),
(418,901,l)
);
},
{
closed = 1;
nodes = (
(453,749,l),
(506,749,l),
(662,901,l),
(588,901,l)
);
},
{
closed = 1;
nodes = (
(452,-10,o),
(606,133,o),
(643,348,cs),
(682,564,o),
(579,707,o),
(388,707,cs),
(197,707,o),
(44,564,o),
(5,348,cs),
(-32,133,o),
(70,-10,o),
(261,-10,cs)
);
},
{
closed = 1;
nodes = (
(122,58,o),
(45,171,o),
(76,348,cs),
(108,526,o),
(225,639,o),
(376,639,cs),
(527,639,o),
(604,526,o),
(572,348,cs),
(541,171,o),
(424,58,o),
(273,58,cs)
);
}
);
width = 772;
}
);
note = Ohungarumlaut;
unicode = 336;
},
{
glyphname = Omacron;
kernLeft = C;
kernRight = D;
lastChange = "2022-12-26 09:35:14 +0000";
layers = (
{
hints = (
{
horizontal = 1;
place = (-133, -55);
place = (-133, -55);
type = Stem;
},
{
horizontal = 1;
place = (516, -55);
place = (516, -55);
type = Stem;
},
{
horizontal = 1;
place = (680, -81);
place = (680, -81);
type = Stem;
},
{
place = (-56, -52);
place = (-56, -52);
type = Stem;
},
{
place = (511, -52);
place = (511, -52);
type = Stem;
}
);
layerId = m01;
shapes = (
{
closed = 1;
nodes = (
(269,803,l),
(539,803,l),
(546,845,l),
(276,845,l)
);
},
{
closed = 1;
nodes = (
(452,-10,o),
(606,133,o),
(643,348,cs),
(682,564,o),
(579,707,o),
(388,707,cs),
(197,707,o),
(44,564,o),
(5,348,cs),
(-32,133,o),
(70,-10,o),
(261,-10,cs)
);
},
{
closed = 1;
nodes = (
(122,58,o),
(45,171,o),
(76,348,cs),
(108,526,o),
(225,639,o),
(376,639,cs),
(527,639,o),
(604,526,o),
(572,348,cs),
(541,171,o),
(424,58,o),
(273,58,cs)
);
}
);
width = 772;
}
);
note = Omacron;
unicode = 332;
},
{
glyphname = Oslash;
kernLeft = C;
kernRight = D;
lastChange = "2022-12-26 09:35:14 +0000";
layers = (
{
hints = (
{
horizontal = 1;
place = (-133, -55);
place = (-133, -55);
type = Stem;
},
{
horizontal = 1;
place = (504, -53);
place = (504, -53);
type = Stem;
},
{
place = (-56, -52);
place = (-56, -52);
type = Stem;
},
{
place = (511, -52);
place = (511, -52);
type = Stem;
},
{
horizontal = 1;
place = (-123, -53);
place = (-123, -53);
type = Stem;
},
{
horizontal = 1;
place = (516, -55);
place = (516, -55);
type = Stem;
}
);
layerId = m01;
shapes = (
{
closed = 1;
nodes = (
(645,697,l),
(576,697,l),
(547,662,l),
(505,691,o),
(452,707,o),
(388,707,cs),
(197,707,o),
(44,564,o),
(5,348,cs),
(-15,230,o),
(7,133,o),
(61,70,c),
(4,0,l),
(73,0,l),
(102,35,l),
(144,6,o),
(197,-10,o),
(261,-10,cs),
(452,-10,o),
(606,133,o),
(643,348,cs),
(664,467,o),
(643,564,o),
(588,627,c)
);
},
{
closed = 1;
nodes = (
(108,526,o),
(225,639,o),
(376,639,cs),
(426,639,o),
(468,627,o),
(500,604,c),
(111,130,l),
(73,181,o),
(60,256,o),
(76,348,cs)
);
},
{
closed = 1;
nodes = (
(223,58,o),
(181,70,o),
(149,93,c),
(538,567,l),
(576,516,o),
(589,441,o),
(572,348,cs),
(541,171,o),
(424,58,o),
(273,58,cs)
);
}
);
width = 772;
}
);
note = Oslash;
unicode = 216;
},
{
glyphname = Otilde;
kernLeft = C;
kernRight = D;
lastChange = "2022-12-26 09:35:14 +0000";
layers = (
{
hints = (
{
horizontal = 1;
place = (-133, -55);
place = (-133, -55);
type = Stem;
},
{
horizontal = 1;
place = (516, -55);
place = (516, -55);
type = Stem;
},
{
horizontal = 1;
place = (651, -78);
place = (651, -78);
type = Stem;
},
{
horizontal = 1;
place = (738, -79);
place = (738, -79);
type = Stem;
},
{
place = (-56, -52);
place = (-56, -52);
type = Stem;
},
{
place = (104, -82);
place = (104, -82);
type = Stem;
},
{
place = (378, -80);
place = (378, -80);
type = Stem;
},
{
place = (511, -52);
place = (511, -52);
type = Stem;
}
);
layerId = m01;
shapes = (
{
closed = 1;
nodes = (
(522,774,o),
(566,822,o),
(580,901,c),
(537,901,l),
(528,850,o),
(503,819,o),
(477,819,cs),
(423,819,o),
(432,905,o),
(357,905,cs),
(300,905,o),
(256,860,o),
(242,783,c),
(283,783,l),
(292,832,o),
(316,861,o),
(347,861,cs),
(400,861,o),
(386,774,o),
(469,774,cs)
);
},
{
closed = 1;
nodes = (
(452,-10,o),
(606,133,o),
(643,348,cs),
(682,564,o),
(579,707,o),
(388,707,cs),
(197,707,o),
(44,564,o),
(5,348,cs),
(-32,133,o),
(70,-10,o),
(261,-10,cs)
);
},
{
closed = 1;
nodes = (
(122,58,o),
(45,171,o),
(76,348,cs),
(108,526,o),
(225,639,o),
(376,639,cs),
(527,639,o),
(604,526,o),
(572,348,cs),
(541,171,o),
(424,58,o),
(273,58,cs)
);
}
);
width = 772;
}
);
note = Otilde;
unicode = 213;
},
{
glyphname = OE;
kernLeft = C;
lastChange = "2022-12-26 09:35:14 +0000";
layers = (
{
hints = (
{
horizontal = 1;
place = (-123, -57);
place = (-123, -57);
type = Stem;
},
{
horizontal = 1;
place = (199, -57);
place = (199, -57);
type = Stem;
},
{
horizontal = 1;
place = (508, -57);
place = (508, -57);
type = Stem;
},
{
place = (-56, -52);
place = (-56, -52);
type = Stem;
},
{
place = (511, -51);
place = (511, -51);
type = Stem;
},
{
place = (512, -52);
place = (512, -52);
type = Stem;
},
{
horizontal = 1;
place = (-133, -55);
place = (-133, -55);
type = Stem;
},
{
horizontal = 1;
place = (516, -55);
place = (516, -55);
type = Stem;
}
);
layerId = m01;
shapes = (
{
closed = 1;
nodes = (
(1080,631,l),
(1092,697,l),
(635,697,l),
(615,586,l),
(573,663,o),
(494,707,o),
(388,707,cs),
(197,707,o),
(44,564,o),
(5,348,cs),
(-32,133,o),
(70,-10,o),
(261,-10,cs),
(367,-10,o),
(462,34,o),
(531,110,c),
(512,0,l),
(969,0,l),
(981,66,l),
(595,66,l),
(640,322,l),
(987,322,l),
(999,388,l),
(652,388,l),
(694,631,l)
);
},
{
closed = 1;
nodes = (
(122,58,o),
(45,171,o),
(76,348,cs),
(108,526,o),
(225,639,o),
(376,639,cs),
(527,639,o),
(604,526,o),
(572,348,cs),
(541,171,o),
(424,58,o),
(273,58,cs)
);
}
);
width = 1153;
}
);
note = OE;
unicode = 338;
},
{
glyphname = P;
kernLeft = B;
kernRight = P;
lastChange = "2022-12-26 09:35:14 +0000";
layers = (
{
hints = (
{
horizontal = 1;
place = (-123, 21);
target = up;
type = BottomGhost;
},
{
horizontal = 1;
place = (181, -57);
place = (181, -57);
type = Stem;
},
{
horizontal = 1;
place = (508, -57);
place = (508, -57);
type = Stem;
},
{
place = (-9, -52);
place = (-9, -52);
type = Stem;
},
{
place = (348, -51);
place = (348, -51);
type = Stem;
}
);
layerId = m01;
shapes = (
{
closed = 1;
nodes = (
(-9,0,l),
(27,0,l),
(71,50,l),
(116,304,l),
(244,304,ls),
(391,304,o),
(486,375,o),
(509,502,cs),
(531,627,o),
(461,697,o),
(313,697,cs),
(114,697,l)
);
},
{
closed = 1;
nodes = (
(127,370,l),
(173,631,l),
(294,631,ls),
(403,631,o),
(452,587,o),
(436,501,cs),
(421,415,o),
(357,370,o),
(248,370,cs)
);
}
);
width = 593;
}
);
note = P;
unicode = 80;
},
{
glyphname = Thorn;
kernLeft = B;
kernRight = Thorn;
lastChange = "2022-12-26 09:35:14 +0000";
layers = (
{
hints = (
{
horizontal = 1;
place = (-123, 21);
target = up;
type = BottomGhost;
},
{
horizontal = 1;
place = (82, -63);
place = (82, -63);
type = Stem;
},
{
horizontal = 1;
place = (417, -66);
place = (417, -66);
type = Stem;
},
{
place = (-9, -58);
place = (-9, -58);
type = Stem;
},
{
place = (348, -57);
place = (348, -57);
type = Stem;
},
{
horizontal = 1;
place = (417, 34);
place = (417, 34);
type = Stem;
}
);
layerId = m01;
shapes = (
{
closed = 1;
nodes = (
(-9,0,l),
(56,0,l),
(92,205,l),
(218,205,ls),
(364,205,o),
(463,279,o),
(485,404,cs),
(507,525,o),
(438,597,o),
(301,597,cs),
(161,597,l),
(179,697,l),
(114,697,l)
);
},
{
closed = 1;
nodes = (
(103,265,l),
(151,540,l),
(277,540,ls),
(383,540,o),
(435,490,o),
(419,401,cs),
(403,313,o),
(337,265,o),
(229,265,cs)
);
}
);
width = 587;
}
);
note = Thorn;
unicode = 222;
},
{
glyphname = Q;
kernLeft = C;
kernRight = Q;
lastChange = "2022-12-26 09:35:14 +0000";
layers = (
{
hints = (
{
horizontal = 1;
place = (-133, -55);
place = (-133, -55);
type = Stem;
},
{
horizontal = 1;
place = (516, -55);
place = (516, -55);
type = Stem;
},
{
place = (-57, -52);
place = (-57, -52);
type = Stem;
},
{
place = (510, -52);
place = (510, -52);
type = Stem;
}
);
layerId = m01;
shapes = (
{
closed = 1;
nodes = (
(564,-12,l),
(565,21,l),
(509,88,l),
(576,151,o),
(623,240,o),
(642,348,cs),
(681,564,o),
(578,707,o),
(387,707,cs),
(196,707,o),
(43,564,o),
(4,348,cs),
(-33,133,o),
(69,-10,o),
(260,-10,cs),
(331,-10,o),
(397,10,o),
(454,46,c),
(537,-33,l)
);
},
{
closed = 1;
nodes = (
(118,39,o),
(44,171,o),
(75,348,cs),
(107,526,o),
(227,657,o),
(378,657,c),
(529,657,o),
(603,526,o),
(571,348,cs),
(556,260,o),
(519,187,o),
(467,137,c),
(374,248,l),
(318,205,l),
(412,95,l),
(371,71,o),
(320,39,o),
(269,39,cs)
);
}
);
width = 784;
}
);
note = Q;
unicode = 81;
},
{
glyphname = R;
kernLeft = B;
kernRight = R;
lastChange = "2022-12-26 09:35:14 +0000";
layers = (
{
hints = (
{
horizontal = 1;
place = (-123, 21);
target = up;
type = BottomGhost;
},
{
horizontal = 1;
place = (186, -57);
place = (186, -57);
type = Stem;
},
{
horizontal = 1;
place = (508, -57);
place = (508, -57);
type = Stem;
},
{
place = (-9, -52);
place = (-9, -52);
type = Stem;
},
{
place = (348, -51);
place = (348, -51);
type = Stem;
}
);
layerId = m01;
shapes = (
{
closed = 1;
nodes = (
(405,0,ls),
(415,0,o),
(418,4,o),
(414,13,cs),
(286,318,l),
(417,318,o),
(492,406,o),
(509,504,cs),
(531,630,o),
(463,697,o),
(313,697,cs),
(114,697,l),
(-9,0,l),
(27,0,l),
(71,50,l),
(117,309,l),
(183,309,l),
(214,309,l),
(337,0,l)
);
},
{
closed = 1;
nodes = (
(128,375,l),
(173,631,l),
(294,631,ls),
(404,631,o),
(452,588,o),
(437,503,cs),
(422,418,o),
(359,375,o),
(249,375,cs)
);
}
);
width = 633;
}
);
note = R;
unicode = 82;
},
{
glyphname = Racute;
kernLeft = B;
kernRight = R;
lastChange = "2022-12-26 09:35:14 +0000";
layers = (
{
hints = (
{
horizontal = 1;
place = (-123, 21);
target = up;
type = BottomGhost;
},
{
horizontal = 1;
place = (186, -57);
place = (186, -57);
type = Stem;
},
{
horizontal = 1;
place = (508, -57);
place = (508, -57);
type = Stem;
},
{
horizontal = 1;
place = (637, 18);
place = (637, 18);
type = Stem;
},
{
place = (-9, -52);
place = (-9, -52);
type = Stem;
},
{
place = (348, -51);
place = (348, -51);
type = Stem;
}
);
layerId = m01;
shapes = (
{
closed = 1;
nodes = (
(509,901,l),
(435,901,l),
(302,760,l),
(355,760,l)
);
},
{
closed = 1;
nodes = (
(467,0,l),
(333,318,l),
(432,343,o),
(492,406,o),
(509,504,cs),
(531,630,o),
(463,697,o),
(313,697,cs),
(114,697,l),
(-9,0,l),
(62,0,l),
(117,309,l),
(214,309,l),
(261,309,l),
(384,0,l)
);
},
{
closed = 1;
nodes = (
(128,375,l),
(173,631,l),
(294,631,ls),
(404,631,o),
(452,588,o),
(437,503,cs),
(422,418,o),
(359,375,o),
(249,375,cs)
);
}
);
width = 633;
}
);
note = Racute;
unicode = 340;
},
{
glyphname = Rcaron;
kernLeft = B;
kernRight = R;
lastChange = "2022-12-26 09:35:14 +0000";
layers = (
{
hints = (
{
horizontal = 1;
place = (-123, 21);
target = up;
type = BottomGhost;
},
{
horizontal = 1;
place = (186, -57);
place = (186, -57);
type = Stem;
},
{
horizontal = 1;
place = (508, -57);
place = (508, -57);
type = Stem;
},
{
place = (-9, -52);
place = (-9, -52);
type = Stem;
},
{
place = (348, -51);
place = (348, -51);
type = Stem;
}
);
layerId = m01;
shapes = (
{
closed = 1;
nodes = (
(502,901,l),
(445,901,l),
(336,806,l),
(261,901,l),
(204,901,l),
(326,748,l)
);
},
{
closed = 1;
nodes = (
(467,0,l),
(333,318,l),
(432,343,o),
(492,406,o),
(509,504,cs),
(531,630,o),
(463,697,o),
(313,697,cs),
(114,697,l),
(-9,0,l),
(62,0,l),
(117,309,l),
(214,309,l),
(261,309,l),
(384,0,l)
);
},
{
closed = 1;
nodes = (
(128,375,l),
(173,631,l),
(294,631,ls),
(404,631,o),
(452,588,o),
(437,503,cs),
(422,418,o),
(359,375,o),
(249,375,cs)
);
}
);
width = 633;
}
);
note = Rcaron;
unicode = 344;
},
{
glyphname = uni0156;
kernLeft = B;
kernRight = R;
lastChange = "2022-12-26 09:35:14 +0000";
layers = (
{
hints = (
{
horizontal = 1;
place = (-344, 42);
place = (-344, 42);
type = Stem;
},
{
horizontal = 1;
place = (-123, 21);
target = up;
type = BottomGhost;
},
{
horizontal = 1;
place = (186, -57);
place = (186, -57);
type = Stem;
},
{
horizontal = 1;
place = (508, -57);
place = (508, -57);
type = Stem;
},
{
place = (-9, -52);
place = (-9, -52);
type = Stem;
},
{
place = (348, -51);
place = (348, -51);
type = Stem;
}
);
layerId = m01;
shapes = (
{
closed = 1;
nodes = (
(333,318,l),
(432,343,o),
(492,406,o),
(509,504,cs),
(531,630,o),
(463,697,o),
(313,697,cs),
(114,697,l),
(-9,0,l),
(62,0,l),
(117,309,l),
(214,309,l),
(261,309,l),
(384,0,l),
(467,0,l)
);
},
{
closed = 1;
nodes = (
(128,375,l),
(173,631,l),
(294,631,ls),
(404,631,o),
(452,588,o),
(437,503,cs),
(422,418,o),
(359,375,o),
(249,375,cs)
);
},
{
closed = 1;
nodes = (
(30,-221,l),
(74,-221,l),
(220,-56,l),
(147,-56,l)
);
}
);
width = 633;
}
);
note = uni0156;
unicode = 342;
},
{
glyphname = S;
kernLeft = S;
kernRight = S;
lastChange = "2022-12-26 09:35:14 +0000";
layers = (
{
hints = (
{
horizontal = 1;
place = (-133, -59);
place = (-133, -59);
type = Stem;
},
{
horizontal = 1;
place = (520, -59);
place = (520, -59);
type = Stem;
},
{
place = (-32, -52);
place = (-32, -52);
type = Stem;
},
{
place = (324, -51);
place = (324, -51);
type = Stem;
}
);
layerId = m01;
shapes = (
{
closed = 1;
nodes = (
(313,-10,o),
(408,65,o),
(428,182,cs),
(445,279,o),
(411,335,o),
(267,394,cs),
(164,436,o),
(122,470,o),
(133,534,cs),
(144,593,o),
(204,643,o),
(277,643,cs),
(337,643,o),
(383,611,o),
(403,557,c),
(470,594,l),
(441,668,o),
(379,707,o),
(291,707,cs),
(173,707,o),
(80,637,o),
(62,531,cs),
(46,440,o),
(86,390,o),
(218,337,cs),
(332,290,o),
(368,251,o),
(355,176,cs),
(343,107,o),
(283,54,o),
(182,54,cs),
(88,54,o),
(30,111,o),
(33,201,c),
(-41,184,l),
(-43,67,o),
(40,-10,o),
(169,-10,cs)
);
}
);
width = 574;
}
);
note = S;
unicode = 83;
},
{
glyphname = Sacute;
kernLeft = S;
kernRight = S;
lastChange = "2022-12-26 09:35:14 +0000";
layers = (
{
hints = (
{
horizontal = 1;
place = (-133, -59);
place = (-133, -59);
type = Stem;
},
{
horizontal = 1;
place = (520, -59);
place = (520, -59);
type = Stem;
},
{
horizontal = 1;
place = (637, 18);
place = (637, 18);
type = Stem;
},
{
place = (-32, -52);
place = (-32, -52);
type = Stem;
},
{
place = (324, -51);
place = (324, -51);
type = Stem;
}
);
layerId = m01;
shapes = (
{
closed = 1;
nodes = (
(272,760,l),
(325,760,l),
(479,901,l),
(405,901,l)
);
},
{
closed = 1;
nodes = (
(313,-10,o),
(408,65,o),
(428,182,cs),
(445,279,o),
(411,335,o),
(267,394,cs),
(164,436,o),
(122,470,o),
(133,534,cs),
(144,593,o),
(204,643,o),
(277,643,cs),
(337,643,o),
(383,611,o),
(403,557,c),
(470,594,l),
(441,668,o),
(379,707,o),
(291,707,cs),
(173,707,o),
(80,637,o),
(62,531,cs),
(46,440,o),
(86,390,o),
(218,337,cs),
(332,290,o),
(368,251,o),
(355,176,cs),
(343,107,o),
(283,54,o),
(182,54,cs),
(88,54,o),
(30,111,o),
(33,201,c),
(-41,184,l),
(-43,67,o),
(40,-10,o),
(169,-10,cs)
);
}
);
width = 574;
}
);
note = Sacute;
unicode = 346;
},
{
glyphname = Scaron;
kernLeft = S;
kernRight = S;
lastChange = "2022-12-26 09:35:14 +0000";
layers = (
{
hints = (
{
horizontal = 1;
place = (-133, -59);
place = (-133, -59);
type = Stem;
},
{
horizontal = 1;
place = (520, -59);
place = (520, -59);
type = Stem;
},
{
place = (-32, -52);
place = (-32, -52);
type = Stem;
},
{
place = (324, -51);
place = (324, -51);
type = Stem;
}
);
layerId = m01;
shapes = (
{
closed = 1;
nodes = (
(296,748,l),
(472,901,l),
(415,901,l),
(306,806,l),
(231,901,l),
(174,901,l)
);
},
{
closed = 1;
nodes = (
(313,-10,o),
(408,65,o),
(428,182,cs),
(445,279,o),
(411,335,o),
(267,394,cs),
(164,436,o),
(122,470,o),
(133,534,cs),
(144,593,o),
(204,643,o),
(277,643,cs),
(337,643,o),
(383,611,o),
(403,557,c),
(470,594,l),
(441,668,o),
(379,707,o),
(291,707,cs),
(173,707,o),
(80,637,o),
(62,531,cs),
(46,440,o),
(86,390,o),
(218,337,cs),
(332,290,o),
(368,251,o),
(355,176,cs),
(343,107,o),
(283,54,o),
(182,54,cs),
(88,54,o),
(30,111,o),
(33,201,c),
(-41,184,l),
(-43,67,o),
(40,-10,o),
(169,-10,cs)
);
}
);
width = 574;
}
);
note = Scaron;
unicode = 352;
},
{
glyphname = Scedilla;
kernLeft = S;
kernRight = S;
lastChange = "2022-12-26 09:35:14 +0000";
layers = (
{
hints = (
{
horizontal = 1;
place = (-378, -81);
place = (-378, -81);
type = Stem;
},
{
horizontal = 1;
place = (-217, -93);
place = (-217, -93);
type = Stem;
},
{
horizontal = 1;
place = (-131, -61);
place = (-131, -61);
type = Stem;
},
{
horizontal = 1;
place = (520, -59);
place = (520, -59);
type = Stem;
},
{
place = (-32, -52);
place = (-32, -52);
type = Stem;
},
{
place = (219, -81);
place = (219, -81);
type = Stem;
},
{
place = (324, -51);
place = (324, -51);
type = Stem;
}
);
layerId = m01;
shapes = (
{
closed = 1;
nodes = (
(445,279,o),
(411,335,o),
(267,394,cs),
(164,436,o),
(122,470,o),
(133,534,cs),
(144,593,o),
(204,643,o),
(277,643,cs),
(337,643,o),
(383,611,o),
(403,557,c),
(470,594,l),
(441,668,o),
(379,707,o),
(291,707,cs),
(173,707,o),
(80,637,o),
(62,531,cs),
(46,440,o),
(86,390,o),
(218,337,cs),
(332,290,o),
(368,251,o),
(355,176,cs),
(343,107,o),
(283,54,o),
(182,54,cs),
(88,54,o),
(30,111,o),
(33,201,c),
(-41,184,l),
(-43,77,o),
(26,4,o),
(136,-8,c),
(72,-94,l),
(102,-94,o),
(127,-96,o),
(146,-101,cs),
(176,-109,o),
(197,-125,o),
(191,-158,cs),
(185,-193,o),
(160,-213,o),
(123,-213,cs),
(99,-213,o),
(75,-201,o),
(63,-175,c),
(32,-208,l),
(49,-239,o),
(82,-255,o),
(113,-255,cs),
(175,-255,o),
(223,-214,o),
(233,-157,cs),
(240,-119,o),
(225,-95,o),
(195,-80,cs),
(178,-72,o),
(159,-68,o),
(134,-64,c),
(177,-10,l),
(317,-7,o),
(408,67,o),
(428,182,cs)
);
}
);
width = 574;
}
);
note = Scedilla;
unicode = 350;
},
{
glyphname = uni0218;
kernLeft = S;
kernRight = S;
lastChange = "2022-12-26 09:35:14 +0000";
layers = (
{
hints = (
{
horizontal = 1;
place = (-344, 42);
place = (-344, 42);
type = Stem;
},
{
horizontal = 1;
place = (-133, -59);
place = (-133, -59);
type = Stem;
},
{
horizontal = 1;
place = (520, -59);
place = (520, -59);
type = Stem;
},
{
place = (-32, -52);
place = (-32, -52);
type = Stem;
},
{
place = (324, -51);
place = (324, -51);
type = Stem;
}
);
layerId = m01;
shapes = (
{
closed = 1;
nodes = (
(313,-10,o),
(408,65,o),
(428,182,cs),
(445,279,o),
(411,335,o),
(267,394,cs),
(164,436,o),
(122,470,o),
(133,534,cs),
(144,593,o),
(204,643,o),
(277,643,cs),
(337,643,o),
(383,611,o),
(403,557,c),
(470,594,l),
(441,668,o),
(379,707,o),
(291,707,cs),
(173,707,o),
(80,637,o),
(62,531,cs),
(46,440,o),
(86,390,o),
(218,337,cs),
(332,290,o),
(368,251,o),
(355,176,cs),
(343,107,o),
(283,54,o),
(182,54,cs),
(88,54,o),
(30,111,o),
(33,201,c),
(-41,184,l),
(-43,67,o),
(40,-10,o),
(169,-10,cs)
);
},
{
closed = 1;
nodes = (
(0,-221,l),
(44,-221,l),
(190,-56,l),
(117,-56,l)
);
}
);
width = 574;
}
);
note = uni0218;
unicode = 536;
},
{
glyphname = uni1E9E;
lastChange = "2022-12-26 09:35:14 +0000";
layers = (
{
hints = (
{
horizontal = 1;
place = (-131, -56);
place = (-131, -56);
type = Stem;
},
{
horizontal = 1;
place = (505, -54);
place = (505, -54);
type = Stem;
},
{
place = (-23, -52);
place = (-23, -52);
type = Stem;
},
{
place = (167, -51);
place = (167, -51);
type = Stem;
},
{
place = (445, -46);
place = (445, -46);
type = Stem;
},
{
horizontal = 1;
place = (-123, 21);
target = up;
type = BottomGhost;
}
);
layerId = m01;
shapes = (
{
closed = 1;
nodes = (
(448,-8,o),
(531,53,o),
(547,142,cs),
(580,327,o),
(284,255,o),
(304,368,cs),
(308,393,o),
(326,411,o),
(342,427,cs),
(584,656,l),
(591,697,l),
(329,697,ls),
(118,697,o),
(73,546,o),
(55,441,cs),
(-23,0,l),
(48,0,l),
(126,441,ls),
(148,566,o),
(201,628,o),
(317,628,cs),
(471,628,l),
(301,469,ls),
(272,442,o),
(240,416,o),
(231,363,cs),
(201,195,o),
(493,269,o),
(469,138,cs),
(461,89,o),
(418,59,o),
(355,59,cs),
(281,59,o),
(238,100,o),
(225,154,c),
(159,122,l),
(171,48,o),
(239,-8,o),
(341,-8,cs)
);
}
);
width = 694;
}
);
note = uni1E9E;
unicode = 7838;
},
{
glyphname = T;
kernLeft = T;
kernRight = T;
lastChange = "2022-12-26 09:35:14 +0000";
layers = (
{
hints = (
{
horizontal = 1;
place = (-123, 21);
target = up;
type = BottomGhost;
},
{
horizontal = 1;
place = (508, -57);
place = (508, -57);
type = Stem;
},
{
place = (152, -51);
place = (152, -51);
type = Stem;
}
);
layerId = m01;
shapes = (
{
closed = 1;
nodes = (
(152,0,l),
(189,0,l),
(233,50,l),
(335,631,l),
(577,631,l),
(589,697,l),
(34,697,l),
(22,631,l),
(263,631,l)
);
}
);
width = 623;
}
);
note = T;
unicode = 84;
},
{
glyphname = Tbar;
kernLeft = T;
kernRight = T;
lastChange = "2022-12-26 09:35:14 +0000";
layers = (
{
hints = (
{
horizontal = 1;
place = (-123, 21);
target = up;
type = BottomGhost;
},
{
horizontal = 1;
place = (202, -76);
place = (202, -76);
type = Stem;
},
{
horizontal = 1;
place = (508, -57);
place = (508, -57);
type = Stem;
},
{
place = (152, -51);
place = (152, -51);
type = Stem;
}
);
layerId = m01;
shapes = (
{
closed = 1;
nodes = (
(577,631,l),
(589,697,l),
(34,697,l),
(22,631,l),
(263,631,l),
(218,372,l),
(119,372,l),
(110,325,l),
(209,325,l),
(152,0,l),
(224,0,l),
(281,325,l),
(380,325,l),
(389,372,l),
(290,372,l),
(335,631,l)
);
}
);
width = 623;
}
);
note = Tbar;
unicode = 358;
},
{
glyphname = Tcaron;
kernLeft = T;
kernRight = T;
lastChange = "2022-12-26 09:35:14 +0000";
layers = (
{
hints = (
{
horizontal = 1;
place = (-123, 21);
target = up;
type = BottomGhost;
},
{
horizontal = 1;
place = (508, -57);
place = (508, -57);
type = Stem;
},
{
place = (152, -51);
place = (152, -51);
type = Stem;
}
);
layerId = m01;
shapes = (
{
closed = 1;
nodes = (
(320,748,l),
(496,901,l),
(439,901,l),
(330,806,l),
(255,901,l),
(198,901,l)
);
},
{
closed = 1;
nodes = (
(152,0,l),
(224,0,l),
(335,631,l),
(577,631,l),
(589,697,l),
(34,697,l),
(22,631,l),
(263,631,l)
);
}
);
width = 623;
}
);
note = Tcaron;
unicode = 356;
},
{
glyphname = uni0162;
kernLeft = T;
kernRight = T;
lastChange = "2022-12-26 09:35:14 +0000";
layers = (
{
hints = (
{
horizontal = 1;
place = (-378, -81);
place = (-378, -81);
type = Stem;
},
{
horizontal = 1;
place = (-217, -93);
place = (-217, -93);
type = Stem;
},
{
horizontal = 1;
place = (-123, 21);
target = up;
type = BottomGhost;
},
{
horizontal = 1;
place = (508, -57);
place = (508, -57);
type = Stem;
},
{
place = (152, -51);
place = (152, -51);
type = Stem;
},
{
place = (243, -81);
place = (243, -81);
type = Stem;
}
);
layerId = m01;
shapes = (
{
closed = 1;
nodes = (
(224,0,l),
(335,631,l),
(577,631,l),
(589,697,l),
(34,697,l),
(22,631,l),
(263,631,l),
(152,0,l),
(166,0,l),
(96,-94,l),
(126,-94,o),
(151,-96,o),
(170,-101,cs),
(200,-109,o),
(221,-125,o),
(215,-158,cs),
(209,-193,o),
(184,-213,o),
(147,-213,cs),
(123,-213,o),
(99,-201,o),
(87,-175,c),
(56,-208,l),
(73,-239,o),
(106,-255,o),
(137,-255,cs),
(199,-255,o),
(247,-214,o),
(257,-157,cs),
(264,-119,o),
(249,-95,o),
(219,-80,cs),
(202,-72,o),
(183,-68,o),
(158,-64,c),
(209,0,l)
);
}
);
width = 623;
}
);
note = uni0162;
unicode = 354;
},
{
glyphname = uni021A;
kernLeft = T;
kernRight = T;
lastChange = "2022-12-26 09:35:14 +0000";
layers = (
{
hints = (
{
horizontal = 1;
place = (-344, 42);
place = (-344, 42);
type = Stem;
},
{
horizontal = 1;
place = (-123, 21);
target = up;
type = BottomGhost;
},
{
horizontal = 1;
place = (508, -57);
place = (508, -57);
type = Stem;
},
{
place = (152, -51);
place = (152, -51);
type = Stem;
}
);
layerId = m01;
shapes = (
{
closed = 1;
nodes = (
(152,0,l),
(224,0,l),
(335,631,l),
(577,631,l),
(589,697,l),
(34,697,l),
(22,631,l),
(263,631,l)
);
},
{
closed = 1;
nodes = (
(24,-221,l),
(68,-221,l),
(214,-56,l),
(141,-56,l)
);
}
);
width = 623;
}
);
note = uni021A;
unicode = 538;
},
{
glyphname = U;
kernLeft = U;
kernRight = J;
lastChange = "2022-12-26 09:35:14 +0000";
layers = (
{
hints = (
{
horizontal = 1;
place = (-133, -53);
place = (-133, -53);
type = Stem;
},
{
horizontal = 1;
place = (574, -20);
target = down;
type = TopGhost;
},
{
place = (-24, -52);
place = (-24, -52);
type = Stem;
},
{
place = (406, -52);
place = (406, -52);
type = Stem;
}
);
layerId = m01;
shapes = (
{
closed = 1;
nodes = (
(387,-10,o),
(492,82,o),
(522,257,cs),
(600,697,l),
(529,697,l),
(452,262,ls),
(428,125,o),
(359,60,o),
(237,60,cs),
(116,60,o),
(69,124,o),
(93,259,cs),
(167,682,ls),
(169,690,o),
(163,697,o),
(155,697,cs),
(99,697,l),
(21,252,ls),
(-10,81,o),
(62,-10,o),
(224,-10,cs)
);
}
);
width = 699;
}
);
note = U;
unicode = 85;
},
{
glyphname = Uacute;
kernLeft = U;
kernRight = J;
lastChange = "2022-12-26 09:35:14 +0000";
layers = (
{
hints = (
{
horizontal = 1;
place = (-133, -53);
place = (-133, -53);
type = Stem;
},
{
horizontal = 1;
place = (574, -20);
target = down;
type = TopGhost;
},
{
horizontal = 1;
place = (637, 18);
place = (637, 18);
type = Stem;
},
{
place = (-24, -52);
place = (-24, -52);
type = Stem;
},
{
place = (406, -52);
place = (406, -52);
type = Stem;
}
);
layerId = m01;
shapes = (
{
closed = 1;
nodes = (
(335,760,l),
(388,760,l),
(542,901,l),
(468,901,l)
);
},
{
closed = 1;
nodes = (
(387,-10,o),
(492,82,o),
(522,257,cs),
(600,697,l),
(529,697,l),
(452,262,ls),
(428,125,o),
(359,60,o),
(237,60,cs),
(116,60,o),
(69,124,o),
(93,259,cs),
(170,697,l),
(99,697,l),
(21,252,ls),
(-10,81,o),
(62,-10,o),
(224,-10,cs)
);
}
);
width = 699;
}
);
note = Uacute;
unicode = 218;
},
{
glyphname = uni01D3;
kernLeft = U;
kernRight = J;
lastChange = "2022-12-26 09:35:14 +0000";
layers = (
{
hints = (
{
horizontal = 1;
place = (-133, -53);
place = (-133, -53);
type = Stem;
},
{
horizontal = 1;
place = (574, -20);
target = down;
type = TopGhost;
},
{
place = (-24, -52);
place = (-24, -52);
type = Stem;
},
{
place = (406, -52);
place = (406, -52);
type = Stem;
}
);
layerId = m01;
shapes = (
{
closed = 1;
nodes = (
(359,748,l),
(535,901,l),
(478,901,l),
(369,806,l),
(294,901,l),
(237,901,l)
);
},
{
closed = 1;
nodes = (
(387,-10,o),
(492,82,o),
(522,257,cs),
(600,697,l),
(529,697,l),
(452,262,ls),
(428,125,o),
(359,60,o),
(237,60,cs),
(116,60,o),
(69,124,o),
(93,259,cs),
(170,697,l),
(99,697,l),
(21,252,ls),
(-10,81,o),
(62,-10,o),
(224,-10,cs)
);
}
);
width = 699;
}
);
note = uni01D3;
unicode = 467;
},
{
glyphname = Ucircumflex;
kernLeft = U;
kernRight = J;
lastChange = "2022-12-26 09:35:14 +0000";
layers = (
{
hints = (
{
horizontal = 1;
place = (-133, -53);
place = (-133, -53);
type = Stem;
},
{
horizontal = 1;
place = (574, -20);
target = down;
type = TopGhost;
},
{
place = (-24, -52);
place = (-24, -52);
type = Stem;
},
{
place = (406, -52);
place = (406, -52);
type = Stem;
}
);
layerId = m01;
shapes = (
{
closed = 1;
nodes = (
(211,752,l),
(269,752,l),
(377,850,l),
(452,752,l),
(509,752,l),
(388,911,l)
);
},
{
closed = 1;
nodes = (
(387,-10,o),
(492,82,o),
(522,257,cs),
(600,697,l),
(529,697,l),
(452,262,ls),
(428,125,o),
(359,60,o),
(237,60,cs),
(116,60,o),
(69,124,o),
(93,259,cs),
(170,697,l),
(99,697,l),
(21,252,ls),
(-10,81,o),
(62,-10,o),
(224,-10,cs)
);
}
);
width = 699;
}
);
note = Ucircumflex;
unicode = 219;
},
{
glyphname = Udieresis;
kernLeft = U;
kernRight = J;
lastChange = "2022-12-26 09:35:14 +0000";
layers = (
{
hints = (
{
horizontal = 1;
place = (-133, -53);
place = (-133, -53);
type = Stem;
},
{
horizontal = 1;
place = (574, -20);
target = down;
type = TopGhost;
},
{
horizontal = 1;
place = (676, -21);
place = (676, -21);
type = Stem;
},
{
place = (-24, -52);
place = (-24, -52);
type = Stem;
},
{
place = (97, -43);
place = (97, -43);
type = Stem;
},
{
place = (277, -43);
place = (277, -43);
type = Stem;
},
{
place = (406, -52);
place = (406, -52);
type = Stem;
}
);
layerId = m01;
shapes = (
{
closed = 1;
nodes = (
(238,799,l),
(318,799,l),
(336,901,l),
(256,901,l)
);
},
{
closed = 1;
nodes = (
(418,799,l),
(498,799,l),
(516,901,l),
(436,901,l)
);
},
{
closed = 1;
nodes = (
(387,-10,o),
(492,82,o),
(522,257,cs),
(600,697,l),
(529,697,l),
(452,262,ls),
(428,125,o),
(359,60,o),
(237,60,cs),
(116,60,o),
(69,124,o),
(93,259,cs),
(170,697,l),
(99,697,l),
(21,252,ls),
(-10,81,o),
(62,-10,o),
(224,-10,cs)
);
}
);
width = 699;
}
);
note = Udieresis;
unicode = 220;
},
{
glyphname = uni01D7;
kernLeft = U;
kernRight = J;
lastChange = "2022-12-26 09:35:14 +0000";
layers = (
{
hints = (
{
horizontal = 1;
place = (-133, -53);
place = (-133, -53);
type = Stem;
},
{
horizontal = 1;
place = (574, -20);
target = down;
type = TopGhost;
},
{
horizontal = 1;
place = (676, -21);
place = (676, -21);
type = Stem;
},
{
horizontal = 1;
place = (841, 18);
place = (841, 18);
type = Stem;
},
{
place = (-24, -52);
place = (-24, -52);
type = Stem;
},
{
place = (97, -43);
place = (97, -43);
type = Stem;
},
{
place = (277, -43);
place = (277, -43);
type = Stem;
},
{
place = (406, -52);
place = (406, -52);
type = Stem;
}
);
layerId = m01;
shapes = (
{
closed = 1;
nodes = (
(371,964,l),
(424,964,l),
(578,1105,l),
(504,1105,l)
);
},
{
closed = 1;
nodes = (
(238,799,l),
(318,799,l),
(336,901,l),
(256,901,l)
);
},
{
closed = 1;
nodes = (
(418,799,l),
(498,799,l),
(516,901,l),
(436,901,l)
);
},
{
closed = 1;
nodes = (
(387,-10,o),
(492,82,o),
(522,257,cs),
(600,697,l),
(529,697,l),
(452,262,ls),
(428,125,o),
(359,60,o),
(237,60,cs),
(116,60,o),
(69,124,o),
(93,259,cs),
(170,697,l),
(99,697,l),
(21,252,ls),
(-10,81,o),
(62,-10,o),
(224,-10,cs)
);
}
);
width = 699;
}
);
note = uni01D7;
unicode = 471;
},
{
glyphname = uni01D9;
kernLeft = U;
kernRight = J;
lastChange = "2022-12-26 09:35:14 +0000";
layers = (
{
hints = (
{
horizontal = 1;
place = (-133, -53);
place = (-133, -53);
type = Stem;
},
{
horizontal = 1;
place = (574, -20);
target = down;
type = TopGhost;
},
{
horizontal = 1;
place = (676, -21);
place = (676, -21);
type = Stem;
},
{
place = (-24, -52);
place = (-24, -52);
type = Stem;
},
{
place = (97, -43);
place = (97, -43);
type = Stem;
},
{
place = (277, -43);
place = (277, -43);
type = Stem;
},
{
place = (406, -52);
place = (406, -52);
type = Stem;
}
);
layerId = m01;
shapes = (
{
closed = 1;
nodes = (
(395,952,l),
(571,1105,l),
(514,1105,l),
(405,1010,l),
(330,1105,l),
(273,1105,l)
);
},
{
closed = 1;
nodes = (
(238,799,l),
(318,799,l),
(336,901,l),
(256,901,l)
);
},
{
closed = 1;
nodes = (
(418,799,l),
(498,799,l),
(516,901,l),
(436,901,l)
);
},
{
closed = 1;
nodes = (
(387,-10,o),
(492,82,o),
(522,257,cs),
(600,697,l),
(529,697,l),
(452,262,ls),
(428,125,o),
(359,60,o),
(237,60,cs),
(116,60,o),
(69,124,o),
(93,259,cs),
(170,697,l),
(99,697,l),
(21,252,ls),
(-10,81,o),
(62,-10,o),
(224,-10,cs)
);
}
);
width = 699;
}
);
note = uni01D9;
unicode = 473;
},
{
glyphname = uni01DB;
kernLeft = U;
kernRight = J;
lastChange = "2022-12-26 09:35:14 +0000";
layers = (
{
hints = (
{
horizontal = 1;
place = (-133, -53);
place = (-133, -53);
type = Stem;
},
{
horizontal = 1;
place = (574, -20);
target = down;
type = TopGhost;
},
{
horizontal = 1;
place = (676, -21);
place = (676, -21);
type = Stem;
},
{
horizontal = 1;
place = (841, 18);
place = (841, 18);
type = Stem;
},
{
place = (-24, -52);
place = (-24, -52);
type = Stem;
},
{
place = (97, -43);
place = (97, -43);
type = Stem;
},
{
place = (277, -43);
place = (277, -43);
type = Stem;
},
{
place = (406, -52);
place = (406, -52);
type = Stem;
}
);
layerId = m01;
shapes = (
{
closed = 1;
nodes = (
(370,964,l),
(424,964,l),
(345,1105,l),
(271,1105,l)
);
},
{
closed = 1;
nodes = (
(238,799,l),
(318,799,l),
(336,901,l),
(256,901,l)
);
},
{
closed = 1;
nodes = (
(418,799,l),
(498,799,l),
(516,901,l),
(436,901,l)
);
},
{
closed = 1;
nodes = (
(387,-10,o),
(492,82,o),
(522,257,cs),
(600,697,l),
(529,697,l),
(452,262,ls),
(428,125,o),
(359,60,o),
(237,60,cs),
(116,60,o),
(69,124,o),
(93,259,cs),
(170,697,l),
(99,697,l),
(21,252,ls),
(-10,81,o),
(62,-10,o),
(224,-10,cs)
);
}
);
width = 699;
}
);
note = uni01DB;
unicode = 475;
},
{
glyphname = uni01D5;
kernLeft = U;
kernRight = J;
lastChange = "2022-12-26 09:35:14 +0000";
layers = (
{
hints = (
{
horizontal = 1;
place = (-133, -53);
place = (-133, -53);
type = Stem;
},
{
horizontal = 1;
place = (574, -20);
target = down;
type = TopGhost;
},
{
horizontal = 1;
place = (676, -21);
place = (676, -21);
type = Stem;
},
{
horizontal = 1;
place = (884, -81);
place = (884, -81);
type = Stem;
},
{
place = (-24, -52);
place = (-24, -52);
type = Stem;
},
{
place = (97, -43);
place = (97, -43);
type = Stem;
},
{
place = (277, -43);
place = (277, -43);
type = Stem;
},
{
place = (406, -52);
place = (406, -52);
type = Stem;
}
);
layerId = m01;
shapes = (
{
closed = 1;
nodes = (
(269,1007,l),
(539,1007,l),
(546,1049,l),
(276,1049,l)
);
},
{
closed = 1;
nodes = (
(238,799,l),
(318,799,l),
(336,901,l),
(256,901,l)
);
},
{
closed = 1;
nodes = (
(418,799,l),
(498,799,l),
(516,901,l),
(436,901,l)
);
},
{
closed = 1;
nodes = (
(387,-10,o),
(492,82,o),
(522,257,cs),
(600,697,l),
(529,697,l),
(452,262,ls),
(428,125,o),
(359,60,o),
(237,60,cs),
(116,60,o),
(69,124,o),
(93,259,cs),
(170,697,l),
(99,697,l),
(21,252,ls),
(-10,81,o),
(62,-10,o),
(224,-10,cs)
);
}
);
width = 699;
}
);
note = uni01D5;
unicode = 469;
},
{
glyphname = uni1EE4;
kernLeft = U;
kernRight = J;
lastChange = "2022-12-26 09:35:14 +0000";
layers = (
{
hints = (
{
horizontal = 1;
place = (-296, -22);
place = (-296, -22);
type = Stem;
},
{
horizontal = 1;
place = (-133, -53);
place = (-133, -53);
type = Stem;
},
{
horizontal = 1;
place = (574, -20);
target = down;
type = TopGhost;
},
{
place = (-24, -52);
place = (-24, -52);
type = Stem;
},
{
place = (187, -43);
place = (187, -43);
type = Stem;
},
{
place = (406, -52);
place = (406, -52);
type = Stem;
}
);
layerId = m01;
shapes = (
{
closed = 1;
nodes = (
(387,-10,o),
(492,82,o),
(522,257,cs),
(600,697,l),
(529,697,l),
(452,262,ls),
(428,125,o),
(359,60,o),
(237,60,cs),
(116,60,o),
(69,124,o),
(93,259,cs),
(170,697,l),
(99,697,l),
(21,252,ls),
(-10,81,o),
(62,-10,o),
(224,-10,cs)
);
},
{
closed = 1;
nodes = (
(157,-173,l),
(237,-173,l),
(254,-72,l),
(174,-72,l)
);
}
);
width = 699;
}
);
note = uni1EE4;
unicode = 7908;
},
{
glyphname = Ugrave;
kernLeft = U;
kernRight = J;
lastChange = "2022-12-26 09:35:14 +0000";
layers = (
{
hints = (
{
horizontal = 1;
place = (-133, -53);
place = (-133, -53);
type = Stem;
},
{
horizontal = 1;
place = (574, -20);
target = down;
type = TopGhost;
},
{
horizontal = 1;
place = (637, 18);
place = (637, 18);
type = Stem;
},
{
place = (-24, -52);
place = (-24, -52);
type = Stem;
},
{
place = (406, -52);
place = (406, -52);
type = Stem;
}
);
layerId = m01;
shapes = (
{
closed = 1;
nodes = (
(334,760,l),
(388,760,l),
(309,901,l),
(235,901,l)
);
},
{
closed = 1;
nodes = (
(387,-10,o),
(492,82,o),
(522,257,cs),
(600,697,l),
(529,697,l),
(452,262,ls),
(428,125,o),
(359,60,o),
(237,60,cs),
(116,60,o),
(69,124,o),
(93,259,cs),
(170,697,l),
(99,697,l),
(21,252,ls),
(-10,81,o),
(62,-10,o),
(224,-10,cs)
);
}
);
width = 699;
}
);
note = Ugrave;
unicode = 217;
},
{
glyphname = uni1EE6;
kernLeft = U;
kernRight = J;
lastChange = "2022-12-26 09:35:14 +0000";
layers = (
{
hints = (
{
horizontal = 1;
place = (-133, -53);
place = (-133, -53);
type = Stem;
},
{
horizontal = 1;
place = (574, -20);
target = down;
type = TopGhost;
},
{
horizontal = 1;
place = (759, -83);
place = (759, -83);
type = Stem;
},
{
place = (-24, -52);
place = (-24, -52);
type = Stem;
},
{
place = (289, -76);
place = (289, -76);
type = Stem;
},
{
place = (406, -52);
place = (406, -52);
type = Stem;
}
);
layerId = m01;
shapes = (
{
closed = 1;
nodes = (
(351,736,l),
(402,746,o),
(470,757,o),
(481,824,cs),
(493,888,o),
(440,922,o),
(360,922,cs),
(345,922,l),
(338,882,l),
(353,882,ls),
(400,882,o),
(442,867,o),
(435,826,cs),
(428,789,o),
(385,781,o),
(346,775,c)
);
},
{
closed = 1;
nodes = (
(387,-10,o),
(492,82,o),
(522,257,cs),
(600,697,l),
(529,697,l),
(452,262,ls),
(428,125,o),
(359,60,o),
(237,60,cs),
(116,60,o),
(69,124,o),
(93,259,cs),
(170,697,l),
(99,697,l),
(21,252,ls),
(-10,81,o),
(62,-10,o),
(224,-10,cs)
);
}
);
width = 699;
}
);
note = uni1EE6;
unicode = 7910;
},
{
glyphname = Uhorn;
kernLeft = U;
kernRight = J;
lastChange = "2022-12-26 09:35:14 +0000";
layers = (
{
hints = (
{
horizontal = 1;
place = (-133, -53);
place = (-133, -53);
type = Stem;
},
{
horizontal = 1;
place = (574, -20);
target = down;
type = TopGhost;
},
{
place = (-24, -52);
place = (-24, -52);
type = Stem;
},
{
place = (406, -52);
place = (406, -52);
type = Stem;
},
{
place = (556, -70);
place = (556, -70);
type = Stem;
}
);
layerId = m01;
shapes = (
{
closed = 1;
nodes = (
(679,697,l),
(670,644,ls),
(660,589,o),
(632,547,o),
(573,544,c),
(600,697,l),
(529,697,l),
(452,262,ls),
(428,125,o),
(359,60,o),
(237,60,cs),
(116,60,o),
(69,124,o),
(93,259,cs),
(170,697,l),
(99,697,l),
(21,252,ls),
(-10,81,o),
(62,-10,o),
(224,-10,cs),
(387,-10,o),
(492,82,o),
(522,257,cs),
(565,497,l),
(658,500,o),
(708,560,o),
(724,649,cs),
(732,697,l)
);
}
);
width = 699;
}
);
note = Uhorn;
unicode = 431;
},
{
glyphname = uni1EE8;
kernLeft = U;
kernRight = J;
lastChange = "2022-12-26 09:35:14 +0000";
layers = (
{
hints = (
{
horizontal = 1;
place = (-133, -53);
place = (-133, -53);
type = Stem;
},
{
horizontal = 1;
place = (574, -20);
target = down;
type = TopGhost;
},
{
horizontal = 1;
place = (637, 18);
place = (637, 18);
type = Stem;
},
{
place = (-24, -52);
place = (-24, -52);
type = Stem;
},
{
place = (406, -52);
place = (406, -52);
type = Stem;
},
{
place = (556, -70);
place = (556, -70);
type = Stem;
}
);
layerId = m01;
shapes = (
{
closed = 1;
nodes = (
(542,901,l),
(468,901,l),
(335,760,l),
(388,760,l)
);
},
{
closed = 1;
nodes = (
(679,697,l),
(670,644,ls),
(660,589,o),
(632,547,o),
(573,544,c),
(600,697,l),
(529,697,l),
(452,262,ls),
(428,125,o),
(359,60,o),
(237,60,cs),
(116,60,o),
(69,124,o),
(93,259,cs),
(170,697,l),
(99,697,l),
(21,252,ls),
(-10,81,o),
(62,-10,o),
(224,-10,cs),
(387,-10,o),
(492,82,o),
(522,257,cs),
(565,497,l),
(658,500,o),
(708,560,o),
(724,649,cs),
(732,697,l)
);
}
);
width = 699;
}
);
note = uni1EE8;
unicode = 7912;
},
{
glyphname = uni1EF0;
kernLeft = U;
kernRight = J;
lastChange = "2022-12-26 09:35:14 +0000";
layers = (
{
hints = (
{
horizontal = 1;
place = (-296, -22);
place = (-296, -22);
type = Stem;
},
{
horizontal = 1;
place = (-133, -53);
place = (-133, -53);
type = Stem;
},
{
horizontal = 1;
place = (574, -20);
target = down;
type = TopGhost;
},
{
place = (-24, -52);
place = (-24, -52);
type = Stem;
},
{
place = (187, -43);
place = (187, -43);
type = Stem;
},
{
place = (406, -52);
place = (406, -52);
type = Stem;
},
{
place = (556, -70);
place = (556, -70);
type = Stem;
}
);
layerId = m01;
shapes = (
{
closed = 1;
nodes = (
(679,697,l),
(670,644,ls),
(660,589,o),
(632,547,o),
(573,544,c),
(600,697,l),
(529,697,l),
(452,262,ls),
(428,125,o),
(359,60,o),
(237,60,cs),
(116,60,o),
(69,124,o),
(93,259,cs),
(170,697,l),
(99,697,l),
(21,252,ls),
(-10,81,o),
(62,-10,o),
(224,-10,cs),
(387,-10,o),
(492,82,o),
(522,257,cs),
(565,497,l),
(658,500,o),
(708,560,o),
(724,649,cs),
(732,697,l)
);
},
{
closed = 1;
nodes = (
(157,-173,l),
(237,-173,l),
(254,-72,l),
(174,-72,l)
);
}
);
width = 699;
}
);
note = uni1EF0;
unicode = 7920;
},
{
glyphname = uni1EEA;
kernLeft = U;
kernRight = J;
lastChange = "2022-12-26 09:35:14 +0000";
layers = (
{
hints = (
{
horizontal = 1;
place = (-133, -53);
place = (-133, -53);
type = Stem;
},
{
horizontal = 1;
place = (574, -20);
target = down;
type = TopGhost;
},
{
horizontal = 1;
place = (637, 18);
place = (637, 18);
type = Stem;
},
{
place = (-24, -52);
place = (-24, -52);
type = Stem;
},
{
place = (406, -52);
place = (406, -52);
type = Stem;
},
{
place = (556, -70);
place = (556, -70);
type = Stem;
}
);
layerId = m01;
shapes = (
{
closed = 1;
nodes = (
(388,760,l),
(309,901,l),
(235,901,l),
(334,760,l)
);
},
{
closed = 1;
nodes = (
(679,697,l),
(670,644,ls),
(660,589,o),
(632,547,o),
(573,544,c),
(600,697,l),
(529,697,l),
(452,262,ls),
(428,125,o),
(359,60,o),
(237,60,cs),
(116,60,o),
(69,124,o),
(93,259,cs),
(170,697,l),
(99,697,l),
(21,252,ls),
(-10,81,o),
(62,-10,o),
(224,-10,cs),
(387,-10,o),
(492,82,o),
(522,257,cs),
(565,497,l),
(658,500,o),
(708,560,o),
(724,649,cs),
(732,697,l)
);
}
);
width = 699;
}
);
note = uni1EEA;
unicode = 7914;
},
{
glyphname = uni1EEC;
kernLeft = U;
kernRight = J;
lastChange = "2022-12-26 09:35:14 +0000";
layers = (
{
hints = (
{
horizontal = 1;
place = (-133, -53);
place = (-133, -53);
type = Stem;
},
{
horizontal = 1;
place = (574, -20);
target = down;
type = TopGhost;
},
{
horizontal = 1;
place = (759, -83);
place = (759, -83);
type = Stem;
},
{
place = (-24, -52);
place = (-24, -52);
type = Stem;
},
{
place = (289, -76);
place = (289, -76);
type = Stem;
},
{
place = (406, -52);
place = (406, -52);
type = Stem;
},
{
place = (556, -70);
place = (556, -70);
type = Stem;
}
);
layerId = m01;
shapes = (
{
closed = 1;
nodes = (
(428,789,o),
(385,781,o),
(346,775,c),
(351,736,l),
(402,746,o),
(470,757,o),
(481,824,cs),
(493,888,o),
(440,922,o),
(360,922,cs),
(345,922,l),
(338,882,l),
(353,882,ls),
(400,882,o),
(442,867,o),
(435,826,cs)
);
},
{
closed = 1;
nodes = (
(679,697,l),
(670,644,ls),
(660,589,o),
(632,547,o),
(573,544,c),
(600,697,l),
(529,697,l),
(452,262,ls),
(428,125,o),
(359,60,o),
(237,60,cs),
(116,60,o),
(69,124,o),
(93,259,cs),
(170,697,l),
(99,697,l),
(21,252,ls),
(-10,81,o),
(62,-10,o),
(224,-10,cs),
(387,-10,o),
(492,82,o),
(522,257,cs),
(565,497,l),
(658,500,o),
(708,560,o),
(724,649,cs),
(732,697,l)
);
}
);
width = 699;
}
);
note = uni1EEC;
unicode = 7916;
},
{
glyphname = uni1EEE;
kernLeft = U;
kernRight = J;
lastChange = "2022-12-26 09:35:14 +0000";
layers = (
{
hints = (
{
horizontal = 1;
place = (-133, -53);
place = (-133, -53);
type = Stem;
},
{
horizontal = 1;
place = (574, -20);
target = down;
type = TopGhost;
},
{
horizontal = 1;
place = (651, -78);
place = (651, -78);
type = Stem;
},
{
horizontal = 1;
place = (738, -79);
place = (738, -79);
type = Stem;
},
{
place = (-24, -52);
place = (-24, -52);
type = Stem;
},
{
place = (68, -82);
place = (68, -82);
type = Stem;
},
{
place = (342, -80);
place = (342, -80);
type = Stem;
},
{
place = (406, -52);
place = (406, -52);
type = Stem;
},
{
place = (556, -70);
place = (556, -70);
type = Stem;
}
);
layerId = m01;
shapes = (
{
closed = 1;
nodes = (
(364,861,o),
(350,774,o),
(433,774,cs),
(486,774,o),
(530,822,o),
(544,901,c),
(501,901,l),
(492,850,o),
(467,819,o),
(441,819,cs),
(387,819,o),
(396,905,o),
(321,905,cs),
(264,905,o),
(220,860,o),
(206,783,c),
(247,783,l),
(256,832,o),
(280,861,o),
(311,861,cs)
);
},
{
closed = 1;
nodes = (
(679,697,l),
(670,644,ls),
(660,589,o),
(632,547,o),
(573,544,c),
(600,697,l),
(529,697,l),
(452,262,ls),
(428,125,o),
(359,60,o),
(237,60,cs),
(116,60,o),
(69,124,o),
(93,259,cs),
(170,697,l),
(99,697,l),
(21,252,ls),
(-10,81,o),
(62,-10,o),
(224,-10,cs),
(387,-10,o),
(492,82,o),
(522,257,cs),
(565,497,l),
(658,500,o),
(708,560,o),
(724,649,cs),
(732,697,l)
);
}
);
width = 699;
}
);
note = uni1EEE;
unicode = 7918;
},
{
glyphname = Uhungarumlaut;
kernLeft = U;
kernRight = J;
lastChange = "2022-12-26 09:35:14 +0000";
layers = (
{
hints = (
{
horizontal = 1;
place = (-133, -53);
place = (-133, -53);
type = Stem;
},
{
horizontal = 1;
place = (574, -20);
target = down;
type = TopGhost;
},
{
horizontal = 1;
place = (626, 29);
place = (626, 29);
type = Stem;
},
{
place = (-24, -52);
place = (-24, -52);
type = Stem;
},
{
place = (406, -52);
place = (406, -52);
type = Stem;
}
);
layerId = m01;
shapes = (
{
closed = 1;
nodes = (
(247,749,l),
(300,749,l),
(445,901,l),
(382,901,l)
);
},
{
closed = 1;
nodes = (
(417,749,l),
(470,749,l),
(626,901,l),
(552,901,l)
);
},
{
closed = 1;
nodes = (
(387,-10,o),
(492,82,o),
(522,257,cs),
(600,697,l),
(529,697,l),
(452,262,ls),
(428,125,o),
(359,60,o),
(237,60,cs),
(116,60,o),
(69,124,o),
(93,259,cs),
(170,697,l),
(99,697,l),
(21,252,ls),
(-10,81,o),
(62,-10,o),
(224,-10,cs)
);
}
);
width = 699;
}
);
note = Uhungarumlaut;
unicode = 368;
},
{
glyphname = Umacron;
kernLeft = U;
kernRight = J;
lastChange = "2022-12-26 09:35:14 +0000";
layers = (
{
hints = (
{
horizontal = 1;
place = (-133, -53);
place = (-133, -53);
type = Stem;
},
{
horizontal = 1;
place = (574, -20);
target = down;
type = TopGhost;
},
{
horizontal = 1;
place = (680, -81);
place = (680, -81);
type = Stem;
},
{
place = (-24, -52);
place = (-24, -52);
type = Stem;
},
{
place = (406, -52);
place = (406, -52);
type = Stem;
}
);
layerId = m01;
shapes = (
{
closed = 1;
nodes = (
(233,803,l),
(503,803,l),
(510,845,l),
(240,845,l)
);
},
{
closed = 1;
nodes = (
(387,-10,o),
(492,82,o),
(522,257,cs),
(600,697,l),
(529,697,l),
(452,262,ls),
(428,125,o),
(359,60,o),
(237,60,cs),
(116,60,o),
(69,124,o),
(93,259,cs),
(170,697,l),
(99,697,l),
(21,252,ls),
(-10,81,o),
(62,-10,o),
(224,-10,cs)
);
}
);
width = 699;
}
);
note = Umacron;
unicode = 362;
},
{
glyphname = Uogonek;
kernLeft = U;
kernRight = J;
lastChange = "2022-12-26 09:35:14 +0000";
layers = (
{
hints = (
{
horizontal = 1;
place = (-337, -78);
place = (-337, -78);
type = Stem;
},
{
horizontal = 1;
place = (-133, -53);
place = (-133, -53);
type = Stem;
},
{
horizontal = 1;
place = (574, -20);
target = down;
type = TopGhost;
},
{
place = (-24, -52);
place = (-24, -52);
type = Stem;
},
{
place = (153, -80);
place = (153, -80);
type = Stem;
},
{
place = (406, -52);
place = (406, -52);
type = Stem;
}
);
layerId = m01;
shapes = (
{
closed = 1;
nodes = (
(529,697,l),
(452,262,ls),
(428,125,o),
(359,60,o),
(237,60,cs),
(116,60,o),
(69,124,o),
(93,259,cs),
(170,697,l),
(99,697,l),
(21,252,ls),
(-9,82,o),
(62,-9,o),
(222,-10,c),
(182,-37,o),
(139,-79,o),
(130,-130,cs),
(121,-182,o),
(155,-214,o),
(206,-214,cs),
(243,-214,o),
(279,-196,o),
(307,-169,c),
(278,-142,l),
(257,-159,o),
(235,-169,o),
(212,-169,cs),
(188,-169,o),
(168,-157,o),
(174,-124,cs),
(184,-67,o),
(248,-27,o),
(288,-5,c),
(415,17,o),
(496,106,o),
(522,257,cs),
(600,697,l)
);
}
);
width = 699;
}
);
note = Uogonek;
unicode = 370;
},
{
glyphname = Uring;
kernLeft = U;
kernRight = J;
lastChange = "2022-12-26 09:35:14 +0000";
layers = (
{
hints = (
{
horizontal = 1;
place = (-133, -53);
place = (-133, -53);
type = Stem;
},
{
horizontal = 1;
place = (559, -84);
place = (559, -84);
type = Stem;
},
{
horizontal = 1;
place = (714, -84);
place = (714, -84);
type = Stem;
},
{
place = (-24, -52);
place = (-24, -52);
type = Stem;
},
{
place = (130, -84);
place = (130, -84);
type = Stem;
},
{
place = (285, -84);
place = (285, -84);
type = Stem;
},
{
place = (406, -52);
place = (406, -52);
type = Stem;
},
{
horizontal = 1;
place = (574, -20);
target = down;
type = TopGhost;
}
);
layerId = m01;
shapes = (
{
closed = 1;
nodes = (
(401,682,o),
(452,726,o),
(461,779,cs),
(471,833,o),
(434,876,o),
(382,876,cs),
(329,876,o),
(277,833,o),
(267,779,cs),
(258,726,o),
(293,682,o),
(347,682,cs)
);
},
{
closed = 1;
nodes = (
(321,721,o),
(301,747,o),
(306,779,cs),
(312,812,o),
(342,837,o),
(375,837,cs),
(409,837,o),
(428,812,o),
(422,779,cs),
(417,747,o),
(387,721,o),
(354,721,cs)
);
},
{
closed = 1;
nodes = (
(387,-10,o),
(492,82,o),
(522,257,cs),
(600,697,l),
(529,697,l),
(452,262,ls),
(428,125,o),
(359,60,o),
(237,60,cs),
(116,60,o),
(69,124,o),
(93,259,cs),
(170,697,l),
(99,697,l),
(21,252,ls),
(-10,81,o),
(62,-10,o),
(224,-10,cs)
);
}
);
width = 699;
}
);
note = Uring;
unicode = 366;
},
{
glyphname = Utilde;
kernLeft = U;
kernRight = J;
lastChange = "2022-12-26 09:35:14 +0000";
layers = (
{
hints = (
{
horizontal = 1;
place = (-133, -53);
place = (-133, -53);
type = Stem;
},
{
horizontal = 1;
place = (574, -20);
target = down;
type = TopGhost;
},
{
horizontal = 1;
place = (651, -78);
place = (651, -78);
type = Stem;
},
{
horizontal = 1;
place = (738, -79);
place = (738, -79);
type = Stem;
},
{
place = (-24, -52);
place = (-24, -52);
type = Stem;
},
{
place = (68, -82);
place = (68, -82);
type = Stem;
},
{
place = (342, -80);
place = (342, -80);
type = Stem;
},
{
place = (406, -52);
place = (406, -52);
type = Stem;
}
);
layerId = m01;
shapes = (
{
closed = 1;
nodes = (
(486,774,o),
(530,822,o),
(544,901,c),
(501,901,l),
(492,850,o),
(467,819,o),
(441,819,cs),
(387,819,o),
(396,905,o),
(321,905,cs),
(264,905,o),
(220,860,o),
(206,783,c),
(247,783,l),
(256,832,o),
(280,861,o),
(311,861,cs),
(364,861,o),
(350,774,o),
(433,774,cs)
);
},
{
closed = 1;
nodes = (
(387,-10,o),
(492,82,o),
(522,257,cs),
(600,697,l),
(529,697,l),
(452,262,ls),
(428,125,o),
(359,60,o),
(237,60,cs),
(116,60,o),
(69,124,o),
(93,259,cs),
(170,697,l),
(99,697,l),
(21,252,ls),
(-10,81,o),
(62,-10,o),
(224,-10,cs)
);
}
);
width = 699;
}
);
note = Utilde;
unicode = 360;
},
{
glyphname = V;
kernLeft = V;
kernRight = V;
lastChange = "2022-12-26 09:35:14 +0000";
layers = (
{
hints = (
{
horizontal = 1;
place = (-123, 21);
target = up;
type = BottomGhost;
},
{
horizontal = 1;
place = (574, -20);
target = down;
type = TopGhost;
},
{
place = (-87, 486);
place = (-87, 486);
type = Stem;
}
);
layerId = m01;
shapes = (
{
closed = 1;
nodes = (
(576,697,ls),
(571,697,o),
(565,694,o),
(562,688,cs),
(238,111,l),
(115,697,l),
(36,697,l),
(189,0,l),
(247,0,l),
(645,697,l)
);
}
);
width = 681;
}
);
note = V;
unicode = 86;
},
{
glyphname = W;
kernLeft = W;
kernRight = W;
lastChange = "2022-12-26 09:35:14 +0000";
layers = (
{
hints = (
{
horizontal = 1;
place = (0, 21);
target = up;
type = BottomGhost;
},
{
horizontal = 1;
place = (697, -20);
target = down;
type = TopGhost;
},
{
place = (42, 903);
place = (42, 903);
type = Stem;
},
{
horizontal = 1;
place = (0, 106);
place = (0, 106);
type = Stem;
}
);
layerId = m01;
shapes = (
{
closed = 1;
nodes = (
(885,697,ls),
(875,697,o),
(868,693,o),
(864,683,cs),
(599,106,l),
(518,660,l),
(470,660,ls),
(460,660,o),
(453,655,o),
(448,646,cs),
(180,106,l),
(116,697,l),
(42,697,l),
(121,0,l),
(193,0,l),
(468,547,l),
(548,0,l),
(620,0,l),
(945,697,l)
);
}
);
width = 987;
}
);
note = W;
unicode = 87;
},
{
glyphname = Wacute;
kernLeft = W;
kernRight = W;
lastChange = "2022-12-26 09:35:14 +0000";
layers = (
{
hints = (
{
horizontal = 1;
place = (-123, 21);
target = up;
type = BottomGhost;
},
{
horizontal = 1;
place = (574, -20);
target = down;
type = TopGhost;
},
{
horizontal = 1;
place = (637, 18);
place = (637, 18);
type = Stem;
},
{
place = (-81, 780);
place = (-81, 780);
type = Stem;
},
{
horizontal = 1;
place = (-123, -17);
place = (-123, -17);
type = Stem;
}
);
layerId = m01;
shapes = (
{
closed = 1;
nodes = (
(479,760,l),
(532,760,l),
(686,901,l),
(612,901,l)
);
},
{
closed = 1;
nodes = (
(121,0,l),
(193,0,l),
(468,547,l),
(548,0,l),
(620,0,l),
(945,697,l),
(870,697,l),
(599,106,l),
(518,660,l),
(455,660,l),
(180,106,l),
(116,697,l),
(42,697,l)
);
}
);
width = 987;
}
);
note = Wacute;
unicode = 7810;
},
{
glyphname = Wcircumflex;
kernLeft = W;
kernRight = W;
lastChange = "2022-12-26 09:35:14 +0000";
layers = (
{
hints = (
{
horizontal = 1;
place = (-123, 21);
target = up;
type = BottomGhost;
},
{
horizontal = 1;
place = (574, -20);
target = down;
type = TopGhost;
},
{
place = (-81, 780);
place = (-81, 780);
type = Stem;
},
{
horizontal = 1;
place = (-123, -17);
place = (-123, -17);
type = Stem;
}
);
layerId = m01;
shapes = (
{
closed = 1;
nodes = (
(355,752,l),
(413,752,l),
(521,850,l),
(596,752,l),
(653,752,l),
(532,911,l)
);
},
{
closed = 1;
nodes = (
(121,0,l),
(193,0,l),
(468,547,l),
(548,0,l),
(620,0,l),
(945,697,l),
(870,697,l),
(599,106,l),
(518,660,l),
(455,660,l),
(180,106,l),
(116,697,l),
(42,697,l)
);
}
);
width = 987;
}
);
note = Wcircumflex;
unicode = 372;
},
{
glyphname = Wdieresis;
kernLeft = W;
kernRight = W;
lastChange = "2022-12-26 09:35:14 +0000";
layers = (
{
hints = (
{
horizontal = 1;
place = (-123, 21);
target = up;
type = BottomGhost;
},
{
horizontal = 1;
place = (574, -20);
target = down;
type = TopGhost;
},
{
horizontal = 1;
place = (676, -21);
place = (676, -21);
type = Stem;
},
{
place = (241, -43);
place = (241, -43);
type = Stem;
},
{
place = (421, -43);
place = (421, -43);
type = Stem;
},
{
horizontal = 1;
place = (-123, -17);
place = (-123, -17);
type = Stem;
}
);
layerId = m01;
shapes = (
{
closed = 1;
nodes = (
(382,799,l),
(462,799,l),
(480,901,l),
(400,901,l)
);
},
{
closed = 1;
nodes = (
(562,799,l),
(642,799,l),
(660,901,l),
(580,901,l)
);
},
{
closed = 1;
nodes = (
(121,0,l),
(193,0,l),
(468,547,l),
(548,0,l),
(620,0,l),
(945,697,l),
(870,697,l),
(599,106,l),
(518,660,l),
(455,660,l),
(180,106,l),
(116,697,l),
(42,697,l)
);
}
);
width = 987;
}
);
note = Wdieresis;
unicode = 7812;
},
{
glyphname = Wgrave;
kernLeft = W;
kernRight = W;
lastChange = "2022-12-26 09:35:14 +0000";
layers = (
{
hints = (
{
horizontal = 1;
place = (-123, 21);
target = up;
type = BottomGhost;
},
{
horizontal = 1;
place = (574, -20);
target = down;
type = TopGhost;
},
{
horizontal = 1;
place = (637, 18);
place = (637, 18);
type = Stem;
},
{
place = (-81, 780);
place = (-81, 780);
type = Stem;
},
{
horizontal = 1;
place = (-123, -17);
place = (-123, -17);
type = Stem;
}
);
layerId = m01;
shapes = (
{
closed = 1;
nodes = (
(478,760,l),
(532,760,l),
(453,901,l),
(379,901,l)
);
},
{
closed = 1;
nodes = (
(121,0,l),
(193,0,l),
(468,547,l),
(548,0,l),
(620,0,l),
(945,697,l),
(870,697,l),
(599,106,l),
(518,660,l),
(455,660,l),
(180,106,l),
(116,697,l),
(42,697,l)
);
}
);
width = 987;
}
);
note = Wgrave;
unicode = 7808;
},
{
glyphname = X;
kernLeft = X;
kernRight = X;
lastChange = "2022-12-26 09:35:14 +0000";
layers = (
{
hints = (
{
horizontal = 1;
place = (-123, 21);
target = up;
type = BottomGhost;
},
{
horizontal = 1;
place = (574, -20);
target = down;
type = TopGhost;
},
{
place = (-83, 460);
place = (-83, 460);
type = Stem;
}
);
layerId = m01;
shapes = (
{
closed = 1;
nodes = (
(408,12,ls),
(413,4,o),
(419,0,o),
(429,0,cs),
(500,0,l),
(319,351,l),
(618,697,l),
(533,697,l),
(279,401,l),
(136,685,ls),
(131,693,o),
(125,697,o),
(115,697,cs),
(44,697,l),
(221,351,l),
(-83,0,l),
(3,0,l),
(260,299,l)
);
}
);
width = 662;
}
);
note = X;
unicode = 88;
},
{
glyphname = Y;
kernLeft = Y;
kernRight = Y;
lastChange = "2022-12-26 09:35:14 +0000";
layers = (
{
hints = (
{
horizontal = 1;
place = (-123, 21);
target = up;
type = BottomGhost;
},
{
horizontal = 1;
place = (574, -20);
target = down;
type = TopGhost;
},
{
place = (173, -51);
place = (173, -51);
type = Stem;
}
);
layerId = m01;
shapes = (
{
closed = 1;
nodes = (
(173,0,l),
(245,0,l),
(292,267,l),
(634,697,l),
(549,697,l),
(267,336,l),
(114,697,l),
(30,697,l),
(220,267,l)
);
}
);
width = 664;
}
);
note = Y;
unicode = 89;
},
{
glyphname = Yacute;
kernLeft = Y;
kernRight = Y;
lastChange = "2022-12-26 09:35:14 +0000";
layers = (
{
hints = (
{
horizontal = 1;
place = (-123, 21);
target = up;
type = BottomGhost;
},
{
horizontal = 1;
place = (574, -20);
target = down;
type = TopGhost;
},
{
horizontal = 1;
place = (637, 18);
place = (637, 18);
type = Stem;
},
{
place = (173, -51);
place = (173, -51);
type = Stem;
}
);
layerId = m01;
shapes = (
{
closed = 1;
nodes = (
(317,760,l),
(370,760,l),
(524,901,l),
(450,901,l)
);
},
{
closed = 1;
nodes = (
(173,0,l),
(245,0,l),
(292,267,l),
(634,697,l),
(549,697,l),
(267,336,l),
(114,697,l),
(30,697,l),
(220,267,l)
);
}
);
width = 664;
}
);
note = Yacute;
unicode = 221;
},
{
glyphname = Ycircumflex;
kernLeft = Y;
kernRight = Y;
lastChange = "2022-12-26 09:35:14 +0000";
layers = (
{
hints = (
{
horizontal = 1;
place = (-123, 21);
target = up;
type = BottomGhost;
},
{
horizontal = 1;
place = (574, -20);
target = down;
type = TopGhost;
},
{
place = (173, -51);
place = (173, -51);
type = Stem;
}
);
layerId = m01;
shapes = (
{
closed = 1;
nodes = (
(193,752,l),
(251,752,l),
(359,850,l),
(434,752,l),
(491,752,l),
(370,911,l)
);
},
{
closed = 1;
nodes = (
(173,0,l),
(245,0,l),
(292,267,l),
(634,697,l),
(549,697,l),
(267,336,l),
(114,697,l),
(30,697,l),
(220,267,l)
);
}
);
width = 664;
}
);
note = Ycircumflex;
unicode = 374;
},
{
glyphname = Ydieresis;
kernLeft = Y;
kernRight = Y;
lastChange = "2022-12-26 09:35:14 +0000";
layers = (
{
hints = (
{
horizontal = 1;
place = (-123, 21);
target = up;
type = BottomGhost;
},
{
horizontal = 1;
place = (574, -20);
target = down;
type = TopGhost;
},
{
horizontal = 1;
place = (676, -21);
place = (676, -21);
type = Stem;
},
{
place = (79, -43);
place = (79, -43);
type = Stem;
},
{
place = (173, -51);
place = (173, -51);
type = Stem;
},
{
place = (259, -43);
place = (259, -43);
type = Stem;
}
);
layerId = m01;
shapes = (
{
closed = 1;
nodes = (
(220,799,l),
(300,799,l),
(318,901,l),
(238,901,l)
);
},
{
closed = 1;
nodes = (
(400,799,l),
(480,799,l),
(498,901,l),
(418,901,l)
);
},
{
closed = 1;
nodes = (
(173,0,l),
(245,0,l),
(292,267,l),
(634,697,l),
(549,697,l),
(267,336,l),
(114,697,l),
(30,697,l),
(220,267,l)
);
}
);
width = 664;
}
);
note = Ydieresis;
unicode = 376;
},
{
glyphname = uni1EF4;
kernLeft = Y;
kernRight = Y;
lastChange = "2022-12-26 09:35:14 +0000";
layers = (
{
hints = (
{
horizontal = 1;
place = (-296, -22);
place = (-296, -22);
type = Stem;
},
{
horizontal = 1;
place = (-123, 21);
target = up;
type = BottomGhost;
},
{
horizontal = 1;
place = (574, -20);
target = down;
type = TopGhost;
},
{
place = (173, -51);
place = (173, -51);
type = Stem;
},
{
place = (169, -43);
place = (169, -43);
type = Stem;
}
);
layerId = m01;
shapes = (
{
closed = 1;
nodes = (
(173,0,l),
(245,0,l),
(292,267,l),
(634,697,l),
(549,697,l),
(267,336,l),
(114,697,l),
(30,697,l),
(220,267,l)
);
},
{
closed = 1;
nodes = (
(139,-173,l),
(219,-173,l),
(236,-72,l),
(156,-72,l)
);
}
);
width = 664;
}
);
note = uni1EF4;
unicode = 7924;
},
{
glyphname = Ygrave;
kernLeft = Y;
kernRight = Y;
lastChange = "2022-12-26 09:35:14 +0000";
layers = (
{
hints = (
{
horizontal = 1;
place = (-123, 21);
target = up;
type = BottomGhost;
},
{
horizontal = 1;
place = (574, -20);
target = down;
type = TopGhost;
},
{
horizontal = 1;
place = (637, 18);
place = (637, 18);
type = Stem;
},
{
place = (173, -51);
place = (173, -51);
type = Stem;
}
);
layerId = m01;
shapes = (
{
closed = 1;
nodes = (
(316,760,l),
(370,760,l),
(291,901,l),
(217,901,l)
);
},
{
closed = 1;
nodes = (
(173,0,l),
(245,0,l),
(292,267,l),
(634,697,l),
(549,697,l),
(267,336,l),
(114,697,l),
(30,697,l),
(220,267,l)
);
}
);
width = 664;
}
);
note = Ygrave;
unicode = 7922;
},
{
glyphname = uni1EF6;
kernLeft = Y;
kernRight = Y;
lastChange = "2022-12-26 09:35:14 +0000";
layers = (
{
hints = (
{
horizontal = 1;
place = (-123, 21);
target = up;
type = BottomGhost;
},
{
horizontal = 1;
place = (574, -20);
target = down;
type = TopGhost;
},
{
horizontal = 1;
place = (759, -83);
place = (759, -83);
type = Stem;
},
{
place = (173, -51);
place = (173, -51);
type = Stem;
},
{
place = (271, -76);
place = (271, -76);
type = Stem;
}
);
layerId = m01;
shapes = (
{
closed = 1;
nodes = (
(333,736,l),
(384,746,o),
(452,757,o),
(463,824,cs),
(475,888,o),
(422,922,o),
(342,922,cs),
(327,922,l),
(320,882,l),
(335,882,ls),
(382,882,o),
(424,867,o),
(417,826,cs),
(410,789,o),
(367,781,o),
(328,775,c)
);
},
{
closed = 1;
nodes = (
(173,0,l),
(245,0,l),
(292,267,l),
(634,697,l),
(549,697,l),
(267,336,l),
(114,697,l),
(30,697,l),
(220,267,l)
);
}
);
width = 664;
}
);
note = uni1EF6;
unicode = 7926;
},
{
glyphname = uni1EF8;
kernLeft = Y;
kernRight = Y;
lastChange = "2022-12-26 09:35:14 +0000";
layers = (
{
hints = (
{
horizontal = 1;
place = (-123, 21);
target = up;
type = BottomGhost;
},
{
horizontal = 1;
place = (574, -20);
target = down;
type = TopGhost;
},
{
horizontal = 1;
place = (651, -78);
place = (651, -78);
type = Stem;
},
{
horizontal = 1;
place = (738, -79);
place = (738, -79);
type = Stem;
},
{
place = (50, -82);
place = (50, -82);
type = Stem;
},
{
place = (173, -51);
place = (173, -51);
type = Stem;
},
{
place = (324, -80);
place = (324, -80);
type = Stem;
}
);
layerId = m01;
shapes = (
{
closed = 1;
nodes = (
(468,774,o),
(512,822,o),
(526,901,c),
(483,901,l),
(474,850,o),
(449,819,o),
(423,819,cs),
(369,819,o),
(378,905,o),
(303,905,cs),
(246,905,o),
(202,860,o),
(188,783,c),
(229,783,l),
(238,832,o),
(262,861,o),
(293,861,cs),
(346,861,o),
(332,774,o),
(415,774,cs)
);
},
{
closed = 1;
nodes = (
(173,0,l),
(245,0,l),
(292,267,l),
(634,697,l),
(549,697,l),
(267,336,l),
(114,697,l),
(30,697,l),
(220,267,l)
);
}
);
width = 664;
}
);
note = uni1EF8;
unicode = 7928;
},
{
glyphname = Z;
kernLeft = Z;
kernRight = Z;
lastChange = "2022-12-26 09:35:14 +0000";
layers = (
{
hints = (
{
horizontal = 1;
place = (-123, -57);
place = (-123, -57);
type = Stem;
},
{
horizontal = 1;
place = (508, -57);
place = (508, -57);
type = Stem;
},
{
place = (-77, 427);
place = (-77, 427);
type = Stem;
}
);
layerId = m01;
shapes = (
{
closed = 1;
nodes = (
(480,51,ls),
(482,61,o),
(478,66,o),
(468,66,cs),
(30,66,l),
(586,641,l),
(596,697,l),
(69,697,l),
(57,631,l),
(492,631,l),
(-67,54,l),
(-77,0,l),
(471,0,l)
);
}
);
width = 648;
}
);
note = Z;
unicode = 90;
},
{
glyphname = Zacute;
kernLeft = Z;
kernRight = Z;
lastChange = "2022-12-26 09:35:14 +0000";
layers = (
{
hints = (
{
horizontal = 1;
place = (-123, -57);
place = (-123, -57);
type = Stem;
},
{
horizontal = 1;
place = (508, -57);
place = (508, -57);
type = Stem;
},
{
horizontal = 1;
place = (637, 18);
place = (637, 18);
type = Stem;
},
{
place = (-77, 427);
place = (-77, 427);
type = Stem;
}
);
layerId = m01;
shapes = (
{
closed = 1;
nodes = (
(516,901,l),
(442,901,l),
(309,760,l),
(362,760,l)
);
},
{
closed = 1;
nodes = (
(596,697,l),
(69,697,l),
(57,631,l),
(492,631,l),
(-67,54,l),
(-77,0,l),
(471,0,l),
(483,66,l),
(30,66,l),
(586,641,l)
);
}
);
width = 648;
}
);
note = Zacute;
unicode = 377;
},
{
glyphname = Zcaron;
kernLeft = Z;
kernRight = Z;
lastChange = "2022-12-26 09:35:14 +0000";
layers = (
{
hints = (
{
horizontal = 1;
place = (-123, -57);
place = (-123, -57);
type = Stem;
},
{
horizontal = 1;
place = (508, -57);
place = (508, -57);
type = Stem;
},
{
place = (-77, 427);
place = (-77, 427);
type = Stem;
}
);
layerId = m01;
shapes = (
{
closed = 1;
nodes = (
(509,901,l),
(452,901,l),
(343,806,l),
(268,901,l),
(211,901,l),
(333,748,l)
);
},
{
closed = 1;
nodes = (
(596,697,l),
(69,697,l),
(57,631,l),
(492,631,l),
(-67,54,l),
(-77,0,l),
(471,0,l),
(483,66,l),
(30,66,l),
(586,641,l)
);
}
);
width = 648;
}
);
note = Zcaron;
unicode = 381;
},
{
glyphname = Zdotaccent;
kernLeft = Z;
kernRight = Z;
lastChange = "2022-12-26 09:35:14 +0000";
layers = (
{
hints = (
{
horizontal = 1;
place = (-123, -57);
place = (-123, -57);
type = Stem;
},
{
horizontal = 1;
place = (508, -57);
place = (508, -57);
type = Stem;
},
{
horizontal = 1;
place = (676, -21);
place = (676, -21);
type = Stem;
},
{
place = (161, -43);
place = (161, -43);
type = Stem;
}
);
layerId = m01;
shapes = (
{
closed = 1;
nodes = (
(400,901,l),
(320,901,l),
(302,799,l),
(382,799,l)
);
},
{
closed = 1;
nodes = (
(596,697,l),
(69,697,l),
(57,631,l),
(492,631,l),
(-67,54,l),
(-77,0,l),
(471,0,l),
(483,66,l),
(30,66,l),
(586,641,l)
);
}
);
width = 648;
}
);
note = Zdotaccent;
unicode = 379;
},
{
glyphname = uni1EB6.ss03;
kernLeft = A;
kernRight = A;
lastChange = "2022-12-26 09:35:14 +0000";
layers = (
{
hints = (
{
horizontal = 1;
place = (-295, -12);
place = (-295, -12);
type = Stem;
},
{
horizontal = 1;
place = (-123, 21);
target = up;
type = BottomGhost;
},
{
horizontal = 1;
place = (64, -62);
place = (64, -62);
type = Stem;
},
{
horizontal = 1;
place = (574, -20);
target = down;
type = TopGhost;
},
{
horizontal = 1;
place = (647, -81);
place = (647, -81);
type = Stem;
},
{
place = (52, -73);
place = (52, -73);
type = Stem;
},
{
place = (148, -13);
place = (148, -13);
type = Stem;
},
{
place = (304, -73);
place = (304, -73);
type = Stem;
}
);
layerId = m01;
shapes = (
{
closed = 1;
nodes = (
(436,770,o),
(498,814,o),
(513,901,c),
(463,901,l),
(453,844,o),
(409,812,o),
(346,812,cs),
(285,812,o),
(251,842,o),
(261,901,c),
(211,901,l),
(196,816,o),
(238,770,o),
(339,770,cs)
);
},
{
closed = 1;
nodes = (
(493,0,l),
(355,697,l),
(296,697,l),
(-87,0,l),
(-9,0,l),
(91,187,l),
(381,187,l),
(414,0,l)
);
},
{
closed = 1;
nodes = (
(123,248,l),
(308,596,l),
(370,248,l)
);
},
{
closed = 1;
nodes = (
(161,-61,o),
(133,-85,o),
(128,-116,cs),
(122,-147,o),
(143,-172,o),
(173,-172,cs),
(204,-172,o),
(232,-147,o),
(238,-116,cs),
(243,-85,o),
(223,-61,o),
(192,-61,cs)
);
}
);
width = 652;
}
);
note = uni1EB6.ss03;
},
{
glyphname = uni1EAC.ss03;
kernLeft = A;
kernRight = A;
lastChange = "2022-12-26 09:35:14 +0000";
layers = (
{
hints = (
{
horizontal = 1;
place = (-295, -12);
place = (-295, -12);
type = Stem;
},
{
horizontal = 1;
place = (-123, 21);
target = up;
type = BottomGhost;
},
{
horizontal = 1;
place = (64, -62);
place = (64, -62);
type = Stem;
},
{
horizontal = 1;
place = (574, -20);
target = down;
type = TopGhost;
},
{
place = (148, -13);
place = (148, -13);
type = Stem;
}
);
layerId = m01;
shapes = (
{
closed = 1;
nodes = (
(353,850,l),
(428,752,l),
(485,752,l),
(364,911,l),
(187,752,l),
(245,752,l)
);
},
{
closed = 1;
nodes = (
(493,0,l),
(355,697,l),
(296,697,l),
(-87,0,l),
(-9,0,l),
(91,187,l),
(381,187,l),
(414,0,l)
);
},
{
closed = 1;
nodes = (
(123,248,l),
(308,596,l),
(370,248,l)
);
},
{
closed = 1;
nodes = (
(161,-61,o),
(133,-85,o),
(128,-116,cs),
(122,-147,o),
(143,-172,o),
(173,-172,cs),
(204,-172,o),
(232,-147,o),
(238,-116,cs),
(243,-85,o),
(223,-61,o),
(192,-61,cs)
);
}
);
width = 652;
}
);
note = uni1EAC.ss03;
},
{
glyphname = Adieresis.ss03;
kernLeft = A;
kernRight = A;
lastChange = "2022-12-26 09:35:14 +0000";
layers = (
{
hints = (
{
horizontal = 1;
place = (-123, 21);
target = up;
type = BottomGhost;
},
{
horizontal = 1;
place = (64, -62);
place = (64, -62);
type = Stem;
},
{
horizontal = 1;
place = (574, -20);
target = down;
type = TopGhost;
},
{
horizontal = 1;
place = (674, -12);
place = (674, -12);
type = Stem;
},
{
place = (61, -13);
place = (61, -13);
type = Stem;
},
{
place = (235, -13);
place = (235, -13);
type = Stem;
}
);
layerId = m01;
shapes = (
{
closed = 1;
nodes = (
(288,797,o),
(316,822,o),
(322,853,cs),
(327,884,o),
(307,908,o),
(276,908,cs),
(245,908,o),
(217,884,o),
(212,853,cs),
(206,822,o),
(227,797,o),
(257,797,cs)
);
},
{
closed = 1;
nodes = (
(462,797,o),
(490,822,o),
(496,853,cs),
(501,884,o),
(481,908,o),
(450,908,cs),
(419,908,o),
(391,884,o),
(386,853,cs),
(380,822,o),
(401,797,o),
(431,797,cs)
);
},
{
closed = 1;
nodes = (
(414,0,l),
(493,0,l),
(355,697,l),
(296,697,l),
(-87,0,l),
(-9,0,l),
(91,187,l),
(381,187,l)
);
},
{
closed = 1;
nodes = (
(123,248,l),
(308,596,l),
(370,248,l)
);
}
);
width = 652;
}
);
note = Adieresis.ss03;
},
{
glyphname = uni1EA0.ss03;
kernLeft = A;
kernRight = A;
lastChange = "2022-12-26 09:35:14 +0000";
layers = (
{
hints = (
{
horizontal = 1;
place = (-295, -12);
place = (-295, -12);
type = Stem;
},
{
horizontal = 1;
place = (-123, 21);
target = up;
type = BottomGhost;
},
{
horizontal = 1;
place = (64, -62);
place = (64, -62);
type = Stem;
},
{
horizontal = 1;
place = (574, -20);
target = down;
type = TopGhost;
},
{
place = (148, -13);
place = (148, -13);
type = Stem;
}
);
layerId = m01;
shapes = (
{
closed = 1;
nodes = (
(493,0,l),
(355,697,l),
(296,697,l),
(-87,0,l),
(-9,0,l),
(91,187,l),
(381,187,l),
(414,0,l)
);
},
{
closed = 1;
nodes = (
(123,248,l),
(308,596,l),
(370,248,l)
);
},
{
closed = 1;
nodes = (
(161,-61,o),
(133,-85,o),
(128,-116,cs),
(122,-147,o),
(143,-172,o),
(173,-172,cs),
(204,-172,o),
(232,-147,o),
(238,-116,cs),
(243,-85,o),
(223,-61,o),
(192,-61,cs)
);
}
);
width = 652;
}
);
note = uni1EA0.ss03;
},
{
glyphname = Cdotaccent.ss03;
kernLeft = C;
kernRight = C;
lastChange = "2022-12-26 09:35:14 +0000";
layers = (
{
hints = (
{
horizontal = 1;
place = (-133, -55);
place = (-133, -55);
type = Stem;
},
{
horizontal = 1;
place = (516, -55);
place = (516, -55);
type = Stem;
},
{
horizontal = 1;
place = (674, -12);
place = (674, -12);
type = Stem;
},
{
place = (-55, -52);
place = (-55, -52);
type = Stem;
},
{
place = (215, -13);
place = (215, -13);
type = Stem;
}
);
layerId = m01;
shapes = (
{
closed = 1;
nodes = (
(442,797,o),
(470,822,o),
(476,853,cs),
(481,884,o),
(461,908,o),
(430,908,cs),
(399,908,o),
(371,884,o),
(366,853,cs),
(360,822,o),
(381,797,o),
(411,797,cs)
);
},
{
closed = 1;
nodes = (
(399,-10,o),
(514,57,o),
(589,184,c),
(525,209,l),
(468,109,o),
(381,58,o),
(272,58,cs),
(116,58,o),
(45,164,o),
(78,350,cs),
(110,535,o),
(220,639,o),
(380,639,cs),
(490,639,o),
(555,591,o),
(575,491,c),
(645,516,l),
(618,643,o),
(532,707,o),
(392,707,cs),
(191,707,o),
(46,574,o),
(7,350,cs),
(-33,125,o),
(62,-10,o),
(260,-10,cs)
);
}
);
width = 729;
}
);
note = Cdotaccent.ss03;
},
{
glyphname = uni1EC6.ss03;
lastChange = "2022-12-26 09:35:14 +0000";
layers = (
{
hints = (
{
horizontal = 1;
place = (-295, -12);
place = (-295, -12);
type = Stem;
},
{
horizontal = 1;
place = (-123, -57);
place = (-123, -57);
type = Stem;
},
{
horizontal = 1;
place = (199, -57);
place = (199, -57);
type = Stem;
},
{
horizontal = 1;
place = (508, -57);
place = (508, -57);
type = Stem;
},
{
place = (-9, -52);
place = (-9, -52);
type = Stem;
},
{
place = (164, -13);
place = (164, -13);
type = Stem;
}
);
layerId = m01;
shapes = (
{
closed = 1;
nodes = (
(203,752,l),
(261,752,l),
(369,850,l),
(444,752,l),
(501,752,l),
(380,911,l)
);
},
{
closed = 1;
nodes = (
(-9,0,l),
(448,0,l),
(460,66,l),
(74,66,l),
(119,322,l),
(466,322,l),
(478,388,l),
(131,388,l),
(173,631,l),
(559,631,l),
(571,697,l),
(114,697,l)
);
},
{
closed = 1;
nodes = (
(220,-172,o),
(248,-147,o),
(254,-116,cs),
(259,-85,o),
(239,-61,o),
(208,-61,cs),
(177,-61,o),
(149,-85,o),
(144,-116,cs),
(138,-147,o),
(159,-172,o),
(189,-172,cs)
);
}
);
width = 632;
}
);
note = uni1EC6.ss03;
},
{
glyphname = Edieresis.ss03;
lastChange = "2022-12-26 09:35:14 +0000";
layers = (
{
hints = (
{
horizontal = 1;
place = (-123, -57);
place = (-123, -57);
type = Stem;
},
{
horizontal = 1;
place = (199, -57);
place = (199, -57);
type = Stem;
},
{
horizontal = 1;
place = (508, -57);
place = (508, -57);
type = Stem;
},
{
horizontal = 1;
place = (674, -12);
place = (674, -12);
type = Stem;
},
{
place = (-9, -52);
place = (-9, -52);
type = Stem;
},
{
place = (77, -13);
place = (77, -13);
type = Stem;
},
{
place = (251, -13);
place = (251, -13);
type = Stem;
}
);
layerId = m01;
shapes = (
{
closed = 1;
nodes = (
(304,797,o),
(332,822,o),
(338,853,cs),
(343,884,o),
(323,908,o),
(292,908,cs),
(261,908,o),
(233,884,o),
(228,853,cs),
(222,822,o),
(243,797,o),
(273,797,cs)
);
},
{
closed = 1;
nodes = (
(478,797,o),
(506,822,o),
(512,853,cs),
(517,884,o),
(497,908,o),
(466,908,cs),
(435,908,o),
(407,884,o),
(402,853,cs),
(396,822,o),
(417,797,o),
(447,797,cs)
);
},
{
closed = 1;
nodes = (
(-9,0,l),
(448,0,l),
(460,66,l),
(74,66,l),
(119,322,l),
(466,322,l),
(478,388,l),
(131,388,l),
(173,631,l),
(559,631,l),
(571,697,l),
(114,697,l)
);
}
);
width = 632;
}
);
note = Edieresis.ss03;
},
{
glyphname = Edotaccent.ss03;
lastChange = "2022-12-26 09:35:14 +0000";
layers = (
{
hints = (
{
horizontal = 1;
place = (-123, -57);
place = (-123, -57);
type = Stem;
},
{
horizontal = 1;
place = (199, -57);
place = (199, -57);
type = Stem;
},
{
horizontal = 1;
place = (508, -57);
place = (508, -57);
type = Stem;
},
{
horizontal = 1;
place = (674, -12);
place = (674, -12);
type = Stem;
},
{
place = (-9, -52);
place = (-9, -52);
type = Stem;
},
{
place = (164, -13);
place = (164, -13);
type = Stem;
}
);
layerId = m01;
shapes = (
{
closed = 1;
nodes = (
(391,797,o),
(419,822,o),
(425,853,cs),
(430,884,o),
(410,908,o),
(379,908,cs),
(348,908,o),
(320,884,o),
(315,853,cs),
(309,822,o),
(330,797,o),
(360,797,cs)
);
},
{
closed = 1;
nodes = (
(-9,0,l),
(448,0,l),
(460,66,l),
(74,66,l),
(119,322,l),
(466,322,l),
(478,388,l),
(131,388,l),
(173,631,l),
(559,631,l),
(571,697,l),
(114,697,l)
);
}
);
width = 632;
}
);
note = Edotaccent.ss03;
},
{
glyphname = uni1EB8.ss03;
lastChange = "2022-12-26 09:35:14 +0000";
layers = (
{
hints = (
{
horizontal = 1;
place = (-295, -12);
place = (-295, -12);
type = Stem;
},
{
horizontal = 1;
place = (-123, -57);
place = (-123, -57);
type = Stem;
},
{
horizontal = 1;
place = (199, -57);
place = (199, -57);
type = Stem;
},
{
horizontal = 1;
place = (508, -57);
place = (508, -57);
type = Stem;
},
{
place = (-9, -52);
place = (-9, -52);
type = Stem;
},
{
place = (164, -13);
place = (164, -13);
type = Stem;
}
);
layerId = m01;
shapes = (
{
closed = 1;
nodes = (
(-9,0,l),
(448,0,l),
(460,66,l),
(74,66,l),
(119,322,l),
(466,322,l),
(478,388,l),
(131,388,l),
(173,631,l),
(559,631,l),
(571,697,l),
(114,697,l)
);
},
{
closed = 1;
nodes = (
(220,-172,o),
(248,-147,o),
(254,-116,cs),
(259,-85,o),
(239,-61,o),
(208,-61,cs),
(177,-61,o),
(149,-85,o),
(144,-116,cs),
(138,-147,o),
(159,-172,o),
(189,-172,cs)
);
}
);
width = 632;
}
);
note = uni1EB8.ss03;
},
{
glyphname = Gdotaccent.ss03;
kernRight = G;
lastChange = "2022-12-26 09:35:14 +0000";
layers = (
{
hints = (
{
horizontal = 1;
place = (-133, -55);
place = (-133, -55);
type = Stem;
},
{
horizontal = 1;
place = (179, -65);
place = (179, -65);
type = Stem;
},
{
horizontal = 1;
place = (516, -55);
place = (516, -55);
type = Stem;
},
{
horizontal = 1;
place = (674, -12);
place = (674, -12);
type = Stem;
},
{
place = (-55, -52);
place = (-55, -52);
type = Stem;
},
{
place = (207, -13);
place = (207, -13);
type = Stem;
},
{
place = (487, -56);
place = (487, -56);
type = Stem;
},
{
horizontal = 1;
place = (-123, 21);
target = up;
type = BottomGhost;
}
);
layerId = m01;
shapes = (
{
closed = 1;
nodes = (
(434,797,o),
(462,822,o),
(468,853,cs),
(473,884,o),
(453,908,o),
(422,908,cs),
(391,908,o),
(363,884,o),
(358,853,cs),
(352,822,o),
(373,797,o),
(403,797,cs)
);
},
{
closed = 1;
nodes = (
(372,302,l),
(540,302,l),
(536,280,ls),
(508,121,o),
(392,58,o),
(272,58,cs),
(99,58,o),
(49,187,o),
(78,353,cs),
(109,525,o),
(212,639,o),
(380,639,cs),
(496,639,o),
(556,586,o),
(575,491,c),
(645,516,l),
(620,636,o),
(539,707,o),
(392,707,cs),
(178,707,o),
(43,557,o),
(7,350,cs),
(-30,142,o),
(52,-10,o),
(255,-10,cs),
(362,-10,o),
(455,32,o),
(506,109,c),
(497,0,l),
(554,0,l),
(618,360,l),
(383,360,l)
);
}
);
width = 766;
}
);
note = Gdotaccent.ss03;
},
{
glyphname = Idieresis.ss03;
lastChange = "2022-12-26 09:35:14 +0000";
layers = (
{
hints = (
{
horizontal = 1;
place = (-123, 21);
target = up;
type = BottomGhost;
},
{
horizontal = 1;
place = (574, -20);
target = down;
type = TopGhost;
},
{
horizontal = 1;
place = (674, -12);
place = (674, -12);
type = Stem;
},
{
place = (-115, -13);
place = (-115, -13);
type = Stem;
},
{
place = (59, -13);
place = (59, -13);
type = Stem;
},
{
place = (-9, -52);
place = (-9, -52);
type = Stem;
}
);
layerId = m01;
shapes = (
{
closed = 1;
nodes = (
(112,797,o),
(140,822,o),
(146,853,cs),
(151,884,o),
(131,908,o),
(100,908,cs),
(69,908,o),
(41,884,o),
(36,853,cs),
(30,822,o),
(51,797,o),
(81,797,cs)
);
},
{
closed = 1;
nodes = (
(286,797,o),
(314,822,o),
(320,853,cs),
(325,884,o),
(305,908,o),
(274,908,cs),
(243,908,o),
(215,884,o),
(210,853,cs),
(204,822,o),
(225,797,o),
(255,797,cs)
);
},
{
closed = 1;
nodes = (
(-9,0,l),
(62,0,l),
(185,697,l),
(114,697,l)
);
}
);
width = 299;
}
);
note = Idieresis.ss03;
},
{
glyphname = uni1ECA.ss03;
lastChange = "2022-12-26 09:35:14 +0000";
layers = (
{
hints = (
{
horizontal = 1;
place = (-295, -12);
place = (-295, -12);
type = Stem;
},
{
horizontal = 1;
place = (-123, 21);
target = up;
type = BottomGhost;
},
{
horizontal = 1;
place = (574, -20);
target = down;
type = TopGhost;
},
{
place = (-9, -52);
place = (-9, -52);
type = Stem;
}
);
layerId = m01;
shapes = (
{
closed = 1;
nodes = (
(-9,0,l),
(62,0,l),
(185,697,l),
(114,697,l)
);
},
{
closed = 1;
nodes = (
(28,-172,o),
(56,-147,o),
(62,-116,cs),
(67,-85,o),
(47,-61,o),
(16,-61,cs),
(-15,-61,o),
(-43,-85,o),
(-48,-116,cs),
(-54,-147,o),
(-33,-172,o),
(-3,-172,cs)
);
}
);
width = 299;
}
);
note = uni1ECA.ss03;
},
{
glyphname = uni1ED8.ss03;
lastChange = "2022-12-26 09:35:14 +0000";
layers = (
{
hints = (
{
horizontal = 1;
place = (-295, -12);
place = (-295, -12);
type = Stem;
},
{
horizontal = 1;
place = (-133, -55);
place = (-133, -55);
type = Stem;
},
{
horizontal = 1;
place = (516, -55);
place = (516, -55);
type = Stem;
},
{
place = (-56, -52);
place = (-56, -52);
type = Stem;
},
{
place = (208, -13);
place = (208, -13);
type = Stem;
},
{
place = (511, -52);
place = (511, -52);
type = Stem;
}
);
layerId = m01;
shapes = (
{
closed = 1;
nodes = (
(247,752,l),
(305,752,l),
(413,850,l),
(488,752,l),
(545,752,l),
(424,911,l)
);
},
{
closed = 1;
nodes = (
(452,-10,o),
(606,133,o),
(643,348,cs),
(682,564,o),
(579,707,o),
(388,707,cs),
(197,707,o),
(44,564,o),
(5,348,cs),
(-32,133,o),
(70,-10,o),
(261,-10,cs)
);
},
{
closed = 1;
nodes = (
(122,58,o),
(45,171,o),
(76,348,cs),
(108,526,o),
(225,639,o),
(376,639,cs),
(527,639,o),
(604,526,o),
(572,348,cs),
(541,171,o),
(424,58,o),
(273,58,cs)
);
},
{
closed = 1;
nodes = (
(264,-172,o),
(292,-147,o),
(298,-116,cs),
(303,-85,o),
(283,-61,o),
(252,-61,cs),
(221,-61,o),
(193,-85,o),
(188,-116,cs),
(182,-147,o),
(203,-172,o),
(233,-172,cs)
);
}
);
width = 772;
}
);
note = uni1ED8.ss03;
},
{
glyphname = Odieresis.ss03;
lastChange = "2022-12-26 09:35:14 +0000";
layers = (
{
hints = (
{
horizontal = 1;
place = (-133, -55);
place = (-133, -55);
type = Stem;
},
{
horizontal = 1;
place = (516, -55);
place = (516, -55);
type = Stem;
},
{
horizontal = 1;
place = (674, -12);
place = (674, -12);
type = Stem;
},
{
place = (-56, -52);
place = (-56, -52);
type = Stem;
},
{
place = (121, -13);
place = (121, -13);
type = Stem;
},
{
place = (295, -13);
place = (295, -13);
type = Stem;
},
{
place = (511, -52);
place = (511, -52);
type = Stem;
}
);
layerId = m01;
shapes = (
{
closed = 1;
nodes = (
(348,797,o),
(376,822,o),
(382,853,cs),
(387,884,o),
(367,908,o),
(336,908,cs),
(305,908,o),
(277,884,o),
(272,853,cs),
(266,822,o),
(287,797,o),
(317,797,cs)
);
},
{
closed = 1;
nodes = (
(522,797,o),
(550,822,o),
(556,853,cs),
(561,884,o),
(541,908,o),
(510,908,cs),
(479,908,o),
(451,884,o),
(446,853,cs),
(440,822,o),
(461,797,o),
(491,797,cs)
);
},
{
closed = 1;
nodes = (
(452,-10,o),
(606,133,o),
(643,348,cs),
(682,564,o),
(579,707,o),
(388,707,cs),
(197,707,o),
(44,564,o),
(5,348,cs),
(-32,133,o),
(70,-10,o),
(261,-10,cs)
);
},
{
closed = 1;
nodes = (
(122,58,o),
(45,171,o),
(76,348,cs),
(108,526,o),
(225,639,o),
(376,639,cs),
(527,639,o),
(604,526,o),
(572,348,cs),
(541,171,o),
(424,58,o),
(273,58,cs)
);
}
);
width = 772;
}
);
note = Odieresis.ss03;
},
{
glyphname = uni1ECC.ss03;
lastChange = "2022-12-26 09:35:14 +0000";
layers = (
{
hints = (
{
horizontal = 1;
place = (-295, -12);
place = (-295, -12);
type = Stem;
},
{
horizontal = 1;
place = (-133, -55);
place = (-133, -55);
type = Stem;
},
{
horizontal = 1;
place = (516, -55);
place = (516, -55);
type = Stem;
},
{
place = (-56, -52);
place = (-56, -52);
type = Stem;
},
{
place = (208, -13);
place = (208, -13);
type = Stem;
},
{
place = (511, -52);
place = (511, -52);
type = Stem;
}
);
layerId = m01;
shapes = (
{
closed = 1;
nodes = (
(452,-10,o),
(606,133,o),
(643,348,cs),
(682,564,o),
(579,707,o),
(388,707,cs),
(197,707,o),
(44,564,o),
(5,348,cs),
(-32,133,o),
(70,-10,o),
(261,-10,cs)
);
},
{
closed = 1;
nodes = (
(122,58,o),
(45,171,o),
(76,348,cs),
(108,526,o),
(225,639,o),
(376,639,cs),
(527,639,o),
(604,526,o),
(572,348,cs),
(541,171,o),
(424,58,o),
(273,58,cs)
);
},
{
closed = 1;
nodes = (
(264,-172,o),
(292,-147,o),
(298,-116,cs),
(303,-85,o),
(283,-61,o),
(252,-61,cs),
(221,-61,o),
(193,-85,o),
(188,-116,cs),
(182,-147,o),
(203,-172,o),
(233,-172,cs)
);
}
);
width = 772;
}
);
note = uni1ECC.ss03;
},
{
glyphname = uni1EE2.ss03;
lastChange = "2022-12-26 09:35:14 +0000";
layers = (
{
hints = (
{
horizontal = 1;
place = (-295, -12);
place = (-295, -12);
type = Stem;
},
{
horizontal = 1;
place = (-133, -55);
place = (-133, -55);
type = Stem;
},
{
horizontal = 1;
place = (378, -20);
target = down;
type = TopGhost;
},
{
horizontal = 1;
place = (574, -20);
target = down;
type = TopGhost;
},
{
place = (-56, -52);
place = (-56, -52);
type = Stem;
},
{
place = (511, -52);
place = (511, -52);
type = Stem;
},
{
place = (601, -70);
place = (601, -70);
type = Stem;
},
{
horizontal = 1;
place = (516, -55);
place = (516, -55);
type = Stem;
},
{
place = (208, -13);
place = (208, -13);
type = Stem;
}
);
layerId = m01;
shapes = (
{
closed = 1;
nodes = (
(724,697,l),
(715,644,ls),
(706,594,o),
(682,555,o),
(633,546,c),
(598,647,o),
(512,707,o),
(388,707,cs),
(197,707,o),
(44,564,o),
(5,348,cs),
(-32,133,o),
(70,-10,o),
(261,-10,cs),
(452,-10,o),
(606,133,o),
(643,348,cs),
(653,404,o),
(654,456,o),
(645,501,c),
(716,517,o),
(755,572,o),
(769,649,cs),
(777,697,l)
);
},
{
closed = 1;
nodes = (
(122,58,o),
(45,171,o),
(76,348,cs),
(108,526,o),
(225,639,o),
(376,639,cs),
(527,639,o),
(604,526,o),
(572,348,cs),
(541,171,o),
(424,58,o),
(273,58,cs)
);
},
{
closed = 1;
nodes = (
(221,-61,o),
(193,-85,o),
(188,-116,cs),
(182,-147,o),
(203,-172,o),
(233,-172,cs),
(264,-172,o),
(292,-147,o),
(298,-116,cs),
(303,-85,o),
(283,-61,o),
(252,-61,cs)
);
}
);
width = 772;
}
);
note = uni1EE2.ss03;
},
{
glyphname = Udieresis.ss03;
kernLeft = U;
lastChange = "2022-12-26 09:35:14 +0000";
layers = (
{
hints = (
{
horizontal = 1;
place = (-133, -53);
place = (-133, -53);
type = Stem;
},
{
horizontal = 1;
place = (574, -20);
target = down;
type = TopGhost;
},
{
horizontal = 1;
place = (674, -12);
place = (674, -12);
type = Stem;
},
{
place = (-24, -52);
place = (-24, -52);
type = Stem;
},
{
place = (85, -13);
place = (85, -13);
type = Stem;
},
{
place = (259, -13);
place = (259, -13);
type = Stem;
},
{
place = (406, -52);
place = (406, -52);
type = Stem;
}
);
layerId = m01;
shapes = (
{
closed = 1;
nodes = (
(312,797,o),
(340,822,o),
(346,853,cs),
(351,884,o),
(331,908,o),
(300,908,cs),
(269,908,o),
(241,884,o),
(236,853,cs),
(230,822,o),
(251,797,o),
(281,797,cs)
);
},
{
closed = 1;
nodes = (
(486,797,o),
(514,822,o),
(520,853,cs),
(525,884,o),
(505,908,o),
(474,908,cs),
(443,908,o),
(415,884,o),
(410,853,cs),
(404,822,o),
(425,797,o),
(455,797,cs)
);
},
{
closed = 1;
nodes = (
(387,-10,o),
(492,82,o),
(522,257,cs),
(600,697,l),
(529,697,l),
(452,262,ls),
(428,125,o),
(359,60,o),
(237,60,cs),
(116,60,o),
(69,124,o),
(93,259,cs),
(170,697,l),
(99,697,l),
(21,252,ls),
(-10,81,o),
(62,-10,o),
(224,-10,cs)
);
}
);
width = 699;
}
);
note = Udieresis.ss03;
},
{
glyphname = uni01D7.ss03;
kernLeft = U;
lastChange = "2022-12-26 09:35:14 +0000";
layers = (
{
hints = (
{
horizontal = 1;
place = (-133, -53);
place = (-133, -53);
type = Stem;
},
{
horizontal = 1;
place = (574, -20);
target = down;
type = TopGhost;
},
{
horizontal = 1;
place = (674, -12);
place = (674, -12);
type = Stem;
},
{
horizontal = 1;
place = (848, 18);
place = (848, 18);
type = Stem;
},
{
place = (-24, -52);
place = (-24, -52);
type = Stem;
},
{
place = (85, -13);
place = (85, -13);
type = Stem;
},
{
place = (259, -13);
place = (259, -13);
type = Stem;
},
{
place = (406, -52);
place = (406, -52);
type = Stem;
}
);
layerId = m01;
shapes = (
{
closed = 1;
nodes = (
(372,971,l),
(425,971,l),
(579,1112,l),
(505,1112,l)
);
},
{
closed = 1;
nodes = (
(312,797,o),
(340,822,o),
(346,853,cs),
(351,884,o),
(331,908,o),
(300,908,cs),
(269,908,o),
(241,884,o),
(236,853,cs),
(230,822,o),
(251,797,o),
(281,797,cs)
);
},
{
closed = 1;
nodes = (
(486,797,o),
(514,822,o),
(520,853,cs),
(525,884,o),
(505,908,o),
(474,908,cs),
(443,908,o),
(415,884,o),
(410,853,cs),
(404,822,o),
(425,797,o),
(455,797,cs)
);
},
{
closed = 1;
nodes = (
(387,-10,o),
(492,82,o),
(522,257,cs),
(600,697,l),
(529,697,l),
(452,262,ls),
(428,125,o),
(359,60,o),
(237,60,cs),
(116,60,o),
(69,124,o),
(93,259,cs),
(170,697,l),
(99,697,l),
(21,252,ls),
(-10,81,o),
(62,-10,o),
(224,-10,cs)
);
}
);
width = 699;
}
);
note = uni01D7.ss03;
},
{
glyphname = uni01D9.ss03;
kernLeft = U;
lastChange = "2022-12-26 09:35:14 +0000";
layers = (
{
hints = (
{
horizontal = 1;
place = (-133, -53);
place = (-133, -53);
type = Stem;
},
{
horizontal = 1;
place = (574, -20);
target = down;
type = TopGhost;
},
{
horizontal = 1;
place = (674, -12);
place = (674, -12);
type = Stem;
},
{
place = (-24, -52);
place = (-24, -52);
type = Stem;
},
{
place = (85, -13);
place = (85, -13);
type = Stem;
},
{
place = (259, -13);
place = (259, -13);
type = Stem;
},
{
place = (406, -52);
place = (406, -52);
type = Stem;
}
);
layerId = m01;
shapes = (
{
closed = 1;
nodes = (
(396,959,l),
(572,1112,l),
(515,1112,l),
(406,1017,l),
(331,1112,l),
(274,1112,l)
);
},
{
closed = 1;
nodes = (
(312,797,o),
(340,822,o),
(346,853,cs),
(351,884,o),
(331,908,o),
(300,908,cs),
(269,908,o),
(241,884,o),
(236,853,cs),
(230,822,o),
(251,797,o),
(281,797,cs)
);
},
{
closed = 1;
nodes = (
(486,797,o),
(514,822,o),
(520,853,cs),
(525,884,o),
(505,908,o),
(474,908,cs),
(443,908,o),
(415,884,o),
(410,853,cs),
(404,822,o),
(425,797,o),
(455,797,cs)
);
},
{
closed = 1;
nodes = (
(387,-10,o),
(492,82,o),
(522,257,cs),
(600,697,l),
(529,697,l),
(452,262,ls),
(428,125,o),
(359,60,o),
(237,60,cs),
(116,60,o),
(69,124,o),
(93,259,cs),
(170,697,l),
(99,697,l),
(21,252,ls),
(-10,81,o),
(62,-10,o),
(224,-10,cs)
);
}
);
width = 699;
}
);
note = uni01D9.ss03;
},
{
glyphname = uni01DB.ss03;
kernLeft = U;
lastChange = "2022-12-26 09:35:14 +0000";
layers = (
{
hints = (
{
horizontal = 1;
place = (-133, -53);
place = (-133, -53);
type = Stem;
},
{
horizontal = 1;
place = (574, -20);
target = down;
type = TopGhost;
},
{
horizontal = 1;
place = (674, -12);
place = (674, -12);
type = Stem;
},
{
horizontal = 1;
place = (848, 18);
place = (848, 18);
type = Stem;
},
{
place = (-24, -52);
place = (-24, -52);
type = Stem;
},
{
place = (85, -13);
place = (85, -13);
type = Stem;
},
{
place = (259, -13);
place = (259, -13);
type = Stem;
},
{
place = (406, -52);
place = (406, -52);
type = Stem;
}
);
layerId = m01;
shapes = (
{
closed = 1;
nodes = (
(371,971,l),
(425,971,l),
(346,1112,l),
(272,1112,l)
);
},
{
closed = 1;
nodes = (
(312,797,o),
(340,822,o),
(346,853,cs),
(351,884,o),
(331,908,o),
(300,908,cs),
(269,908,o),
(241,884,o),
(236,853,cs),
(230,822,o),
(251,797,o),
(281,797,cs)
);
},
{
closed = 1;
nodes = (
(486,797,o),
(514,822,o),
(520,853,cs),
(525,884,o),
(505,908,o),
(474,908,cs),
(443,908,o),
(415,884,o),
(410,853,cs),
(404,822,o),
(425,797,o),
(455,797,cs)
);
},
{
closed = 1;
nodes = (
(387,-10,o),
(492,82,o),
(522,257,cs),
(600,697,l),
(529,697,l),
(452,262,ls),
(428,125,o),
(359,60,o),
(237,60,cs),
(116,60,o),
(69,124,o),
(93,259,cs),
(170,697,l),
(99,697,l),
(21,252,ls),
(-10,81,o),
(62,-10,o),
(224,-10,cs)
);
}
);
width = 699;
}
);
note = uni01DB.ss03;
},
{
glyphname = uni01D5.ss03;
kernLeft = U;
lastChange = "2022-12-26 09:35:14 +0000";
layers = (
{
hints = (
{
horizontal = 1;
place = (-133, -53);
place = (-133, -53);
type = Stem;
},
{
horizontal = 1;
place = (574, -20);
target = down;
type = TopGhost;
},
{
horizontal = 1;
place = (674, -12);
place = (674, -12);
type = Stem;
},
{
horizontal = 1;
place = (891, -81);
place = (891, -81);
type = Stem;
},
{
place = (-24, -52);
place = (-24, -52);
type = Stem;
},
{
place = (85, -13);
place = (85, -13);
type = Stem;
},
{
place = (259, -13);
place = (259, -13);
type = Stem;
},
{
place = (406, -52);
place = (406, -52);
type = Stem;
}
);
layerId = m01;
shapes = (
{
closed = 1;
nodes = (
(270,1014,l),
(540,1014,l),
(547,1056,l),
(277,1056,l)
);
},
{
closed = 1;
nodes = (
(312,797,o),
(340,822,o),
(346,853,cs),
(351,884,o),
(331,908,o),
(300,908,cs),
(269,908,o),
(241,884,o),
(236,853,cs),
(230,822,o),
(251,797,o),
(281,797,cs)
);
},
{
closed = 1;
nodes = (
(486,797,o),
(514,822,o),
(520,853,cs),
(525,884,o),
(505,908,o),
(474,908,cs),
(443,908,o),
(415,884,o),
(410,853,cs),
(404,822,o),
(425,797,o),
(455,797,cs)
);
},
{
closed = 1;
nodes = (
(387,-10,o),
(492,82,o),
(522,257,cs),
(600,697,l),
(529,697,l),
(452,262,ls),
(428,125,o),
(359,60,o),
(237,60,cs),
(116,60,o),
(69,124,o),
(93,259,cs),
(170,697,l),
(99,697,l),
(21,252,ls),
(-10,81,o),
(62,-10,o),
(224,-10,cs)
);
}
);
width = 699;
}
);
note = uni01D5.ss03;
},
{
glyphname = uni1EE4.ss03;
kernLeft = U;
lastChange = "2022-12-26 09:35:14 +0000";
layers = (
{
hints = (
{
horizontal = 1;
place = (-295, -12);
place = (-295, -12);
type = Stem;
},
{
horizontal = 1;
place = (-133, -53);
place = (-133, -53);
type = Stem;
},
{
horizontal = 1;
place = (574, -20);
target = down;
type = TopGhost;
},
{
place = (-24, -52);
place = (-24, -52);
type = Stem;
},
{
place = (172, -13);
place = (172, -13);
type = Stem;
},
{
place = (406, -52);
place = (406, -52);
type = Stem;
}
);
layerId = m01;
shapes = (
{
closed = 1;
nodes = (
(387,-10,o),
(492,82,o),
(522,257,cs),
(600,697,l),
(529,697,l),
(452,262,ls),
(428,125,o),
(359,60,o),
(237,60,cs),
(116,60,o),
(69,124,o),
(93,259,cs),
(170,697,l),
(99,697,l),
(21,252,ls),
(-10,81,o),
(62,-10,o),
(224,-10,cs)
);
},
{
closed = 1;
nodes = (
(228,-172,o),
(256,-147,o),
(262,-116,cs),
(267,-85,o),
(247,-61,o),
(216,-61,cs),
(185,-61,o),
(157,-85,o),
(152,-116,cs),
(146,-147,o),
(167,-172,o),
(197,-172,cs)
);
}
);
width = 699;
}
);
note = uni1EE4.ss03;
},
{
glyphname = uni1EF0.ss03;
kernLeft = U;
lastChange = "2022-12-26 09:35:14 +0000";
layers = (
{
hints = (
{
horizontal = 1;
place = (-295, -12);
place = (-295, -12);
type = Stem;
},
{
horizontal = 1;
place = (-133, -53);
place = (-133, -53);
type = Stem;
},
{
horizontal = 1;
place = (574, -20);
target = down;
type = TopGhost;
},
{
place = (-24, -52);
place = (-24, -52);
type = Stem;
},
{
place = (172, -13);
place = (172, -13);
type = Stem;
},
{
place = (406, -52);
place = (406, -52);
type = Stem;
},
{
place = (556, -70);
place = (556, -70);
type = Stem;
}
);
layerId = m01;
shapes = (
{
closed = 1;
nodes = (
(679,697,l),
(670,644,ls),
(660,589,o),
(632,547,o),
(573,544,c),
(600,697,l),
(529,697,l),
(452,262,ls),
(428,125,o),
(359,60,o),
(237,60,cs),
(116,60,o),
(69,124,o),
(93,259,cs),
(170,697,l),
(99,697,l),
(21,252,ls),
(-10,81,o),
(62,-10,o),
(224,-10,cs),
(387,-10,o),
(492,82,o),
(522,257,cs),
(565,497,l),
(658,500,o),
(708,560,o),
(724,649,cs),
(732,697,l)
);
},
{
closed = 1;
nodes = (
(185,-61,o),
(157,-85,o),
(152,-116,cs),
(146,-147,o),
(167,-172,o),
(197,-172,cs),
(228,-172,o),
(256,-147,o),
(262,-116,cs),
(267,-85,o),
(247,-61,o),
(216,-61,cs)
);
}
);
width = 699;
}
);
note = uni1EF0.ss03;
},
{
glyphname = Wdieresis.ss03;
kernLeft = W;
kernRight = W;
lastChange = "2022-12-26 09:35:14 +0000";
layers = (
{
hints = (
{
horizontal = 1;
place = (-123, 21);
target = up;
type = BottomGhost;
},
{
horizontal = 1;
place = (574, -20);
target = down;
type = TopGhost;
},
{
horizontal = 1;
place = (674, -12);
place = (674, -12);
type = Stem;
},
{
place = (229, -13);
place = (229, -13);
type = Stem;
},
{
place = (403, -13);
place = (403, -13);
type = Stem;
},
{
horizontal = 1;
place = (-123, -17);
place = (-123, -17);
type = Stem;
}
);
layerId = m01;
shapes = (
{
closed = 1;
nodes = (
(456,797,o),
(484,822,o),
(490,853,cs),
(495,884,o),
(475,908,o),
(444,908,cs),
(413,908,o),
(385,884,o),
(380,853,cs),
(374,822,o),
(395,797,o),
(425,797,cs)
);
},
{
closed = 1;
nodes = (
(630,797,o),
(658,822,o),
(664,853,cs),
(669,884,o),
(649,908,o),
(618,908,cs),
(587,908,o),
(559,884,o),
(554,853,cs),
(548,822,o),
(569,797,o),
(599,797,cs)
);
},
{
closed = 1;
nodes = (
(121,0,l),
(193,0,l),
(468,547,l),
(548,0,l),
(620,0,l),
(945,697,l),
(870,697,l),
(599,106,l),
(518,660,l),
(455,660,l),
(180,106,l),
(116,697,l),
(42,697,l)
);
}
);
width = 987;
}
);
note = Wdieresis.ss03;
},
{
glyphname = Ydieresis.ss03;
kernLeft = Y;
kernRight = Y;
lastChange = "2022-12-26 09:35:14 +0000";
layers = (
{
hints = (
{
horizontal = 1;
place = (-123, 21);
target = up;
type = BottomGhost;
},
{
horizontal = 1;
place = (574, -20);
target = down;
type = TopGhost;
},
{
horizontal = 1;
place = (674, -12);
place = (674, -12);
type = Stem;
},
{
place = (67, -13);
place = (67, -13);
type = Stem;
},
{
place = (241, -13);
place = (241, -13);
type = Stem;
},
{
place = (173, -51);
place = (173, -51);
type = Stem;
}
);
layerId = m01;
shapes = (
{
closed = 1;
nodes = (
(294,797,o),
(322,822,o),
(328,853,cs),
(333,884,o),
(313,908,o),
(282,908,cs),
(251,908,o),
(223,884,o),
(218,853,cs),
(212,822,o),
(233,797,o),
(263,797,cs)
);
},
{
closed = 1;
nodes = (
(468,797,o),
(496,822,o),
(502,853,cs),
(507,884,o),
(487,908,o),
(456,908,cs),
(425,908,o),
(397,884,o),
(392,853,cs),
(386,822,o),
(407,797,o),
(437,797,cs)
);
},
{
closed = 1;
nodes = (
(173,0,l),
(245,0,l),
(292,267,l),
(634,697,l),
(549,697,l),
(267,336,l),
(114,697,l),
(30,697,l),
(220,267,l)
);
}
);
width = 664;
}
);
note = Ydieresis.ss03;
},
{
glyphname = uni1EF4.ss03;
kernLeft = Y;
kernRight = Y;
lastChange = "2022-12-26 09:35:14 +0000";
layers = (
{
hints = (
{
horizontal = 1;
place = (-295, -12);
place = (-295, -12);
type = Stem;
},
{
horizontal = 1;
place = (-123, 21);
target = up;
type = BottomGhost;
},
{
horizontal = 1;
place = (574, -20);
target = down;
type = TopGhost;
},
{
place = (173, -51);
place = (173, -51);
type = Stem;
},
{
place = (154, -13);
place = (154, -13);
type = Stem;
}
);
layerId = m01;
shapes = (
{
closed = 1;
nodes = (
(173,0,l),
(245,0,l),
(292,267,l),
(634,697,l),
(549,697,l),
(267,336,l),
(114,697,l),
(30,697,l),
(220,267,l)
);
},
{
closed = 1;
nodes = (
(210,-172,o),
(238,-147,o),
(244,-116,cs),
(249,-85,o),
(229,-61,o),
(198,-61,cs),
(167,-61,o),
(139,-85,o),
(134,-116,cs),
(128,-147,o),
(149,-172,o),
(179,-172,cs)
);
}
);
width = 664;
}
);
note = uni1EF4.ss03;
},
{
glyphname = Zdotaccent.ss03;
kernLeft = Z;
kernRight = Z;
lastChange = "2022-12-26 09:35:14 +0000";
layers = (
{
hints = (
{
horizontal = 1;
place = (-123, -57);
place = (-123, -57);
type = Stem;
},
{
horizontal = 1;
place = (508, -57);
place = (508, -57);
type = Stem;
},
{
horizontal = 1;
place = (674, -12);
place = (674, -12);
type = Stem;
},
{
place = (146, -13);
place = (146, -13);
type = Stem;
}
);
layerId = m01;
shapes = (
{
closed = 1;
nodes = (
(373,797,o),
(401,822,o),
(407,853,cs),
(412,884,o),
(392,908,o),
(361,908,cs),
(330,908,o),
(302,884,o),
(297,853,cs),
(291,822,o),
(312,797,o),
(342,797,cs)
);
},
{
closed = 1;
nodes = (
(596,697,l),
(69,697,l),
(57,631,l),
(492,631,l),
(-67,54,l),
(-77,0,l),
(471,0,l),
(483,66,l),
(30,66,l),
(586,641,l)
);
}
);
width = 648;
}
);
note = Zdotaccent.ss03;
},
{
glyphname = a;
kernLeft = a;
kernRight = a;
lastChange = "2022-12-26 09:35:14 +0000";
layers = (
{
hints = (
{
horizontal = 1;
place = (-131, -66);
place = (-131, -66);
type = Stem;
},
{
horizontal = 1;
place = (105, -67);
place = (105, -67);
type = Stem;
},
{
horizontal = 1;
place = (317, -62);
place = (317, -62);
type = Stem;
},
{
place = (-79, -54);
place = (-79, -54);
type = Stem;
},
{
place = (266, -54);
place = (266, -54);
type = Stem;
},
{
place = (270, -58);
place = (270, -58);
type = Stem;
},
{
horizontal = 1;
place = (-123, 21);
target = up;
type = BottomGhost;
}
);
layerId = m01;
shapes = (
{
closed = 1;
nodes = (
(148,501,o),
(83,473,o),
(21,412,cs),
(14,405,o),
(13,395,o),
(18,390,cs),
(51,358,l),
(101,413,o),
(154,440,o),
(216,440,cs),
(299,440,o),
(335,393,o),
(320,307,cs),
(316,284,l),
(215,284,ls),
(118,284,o),
(64,275,o),
(22,253,cs),
(-18,231,o),
(-45,193,o),
(-54,143,cs),
(-70,48,o),
(-17,-8,o),
(90,-8,cs),
(168,-8,o),
(233,21,o),
(282,76,c),
(278,0,l),
(314,0,l),
(345,50,l),
(389,307,ls),
(411,430,o),
(351,501,o),
(227,501,cs)
);
},
{
closed = 1;
nodes = (
(46,49,o),
(5,84,o),
(15,139,cs),
(20,167,o),
(32,189,o),
(53,203,cs),
(80,222,o),
(120,228,o),
(211,228,cs),
(306,228,l),
(305,221,ls),
(287,116,o),
(215,49,o),
(120,49,cs)
);
}
);
width = 535;
}
);
note = a;
unicode = 97;
},
{
glyphname = aacute;
kernLeft = a;
kernRight = a;
lastChange = "2022-12-26 09:35:14 +0000";
layers = (
{
hints = (
{
horizontal = 1;
place = (-131, -66);
place = (-131, -66);
type = Stem;
},
{
horizontal = 1;
place = (105, -67);
place = (105, -67);
type = Stem;
},
{
horizontal = 1;
place = (317, -62);
place = (317, -62);
type = Stem;
},
{
horizontal = 1;
place = (433, 18);
place = (433, 18);
type = Stem;
},
{
place = (-79, -54);
place = (-79, -54);
type = Stem;
},
{
place = (266, -54);
place = (266, -54);
type = Stem;
},
{
place = (270, -58);
place = (270, -58);
type = Stem;
},
{
horizontal = 1;
place = (-123, 21);
target = up;
type = BottomGhost;
}
);
layerId = m01;
shapes = (
{
closed = 1;
nodes = (
(420,697,l),
(346,697,l),
(213,556,l),
(266,556,l)
);
},
{
closed = 1;
nodes = (
(143,501,o),
(74,469,o),
(9,400,c),
(51,358,l),
(101,413,o),
(154,440,o),
(216,440,cs),
(299,440,o),
(335,393,o),
(320,307,cs),
(316,284,l),
(215,284,ls),
(118,284,o),
(64,275,o),
(22,253,cs),
(-18,231,o),
(-45,193,o),
(-54,143,cs),
(-70,48,o),
(-17,-8,o),
(90,-8,cs),
(168,-8,o),
(233,21,o),
(282,76,c),
(272,0,l),
(335,0,l),
(389,307,ls),
(411,430,o),
(351,501,o),
(227,501,cs)
);
},
{
closed = 1;
nodes = (
(46,49,o),
(5,84,o),
(15,139,cs),
(20,167,o),
(32,189,o),
(53,203,cs),
(80,222,o),
(120,228,o),
(211,228,cs),
(306,228,l),
(305,221,ls),
(287,116,o),
(215,49,o),
(120,49,cs)
);
}
);
width = 535;
}
);
note = aacute;
unicode = 225;
},
